SplineFontDB: 3.0
FontName: UnifontMedium
FullName: Unifont
FamilyName: Unifont
Weight: Medium
Copyright: Copyright (C) 2015 Roman Czyborra, Paul Hardy, Qianqian Fang, Andrew Miller, et al. Licensed under the GNU General Public License; either version 2, or (at your option) a later version, with the GNU Font Embedding Exception.
Version: 8.0.01
ItalicAngle: 0
UnderlinePosition: -140
UnderlineWidth: 40
Ascent: 896
Descent: 128
InvalidEm: 0
sfntRevision: 0x00080000
LayerCount: 2
Layer: 0 1 "Back" 1
Layer: 1 1 "Fore" 0
XUID: [1021 542 582384140 15403830]
StyleMap: 0x0040
FSType: 0
OS2Version: 1
OS2_WeightWidthSlopeOnly: 0
OS2_UseTypoMetrics: 0
CreationTime: 1435545665
ModificationTime: 1466216414
PfmFamily: 17
TTFWeight: 500
TTFWidth: 5
LineGap: 72
VLineGap: 0
Panose: 2 0 6 4 0 0 0 0 0 0
OS2TypoAscent: 896
OS2TypoAOffset: 0
OS2TypoDescent: -128
OS2TypoDOffset: 0
OS2TypoLinegap: 0
OS2WinAscent: 896
OS2WinAOffset: 0
OS2WinDescent: 128
OS2WinDOffset: 0
HheadAscent: 896
HheadAOffset: 0
HheadDescent: -128
HheadDOffset: 0
OS2SubXSize: 665
OS2SubYSize: 716
OS2SubXOff: 0
OS2SubYOff: 143
OS2SupXSize: 665
OS2SupYSize: 716
OS2SupXOff: 0
OS2SupYOff: 491
OS2StrikeYSize: 51
OS2StrikeYPos: 265
OS2Vendor: 'PfEd'
OS2CodePages: 603f01ff.ffff0000
OS2UnicodeRanges: ffffffff.e9ffffff.e817ffff.007f001f
DEI: 91125
ShortTable: maxp 16
  1
  0
  -8447
  256
  45
  0
  0
  2
  0
  1
  1
  0
  64
  0
  0
  0
EndShort
LangName: 1033 "" "" "" "FontForge 2.0 : Unifont : 28-6-2015"
GaspTable: 1 65535 2 0
Encoding: UnicodeBmp
UnicodeInterp: none
NameList: AGL For New Fonts
DisplaySize: -48
AntiAlias: 1
FitToEm: 0
WinInfo: 26 26 9
BeginChars: 65539 192

StartChar: uni0000
Encoding: 0 -1 0
AltUni2: 000000.ffffffff.0
Width: 1024
GlyphClass: 2
Flags: W
LayerCount: 2
Fore
SplineSet
128 -128 m 1,0,-1
 128 -64 l 1,1,-1
 64 -64 l 1,2,-1
 64 -128 l 1,3,-1
 128 -128 l 1,0,-1
256 -128 m 1,4,-1
 256 -64 l 1,5,-1
 192 -64 l 1,6,-1
 192 -128 l 1,7,-1
 256 -128 l 1,4,-1
384 -128 m 1,8,-1
 384 -64 l 1,9,-1
 320 -64 l 1,10,-1
 320 -128 l 1,11,-1
 384 -128 l 1,8,-1
512 -128 m 1,12,-1
 512 -64 l 1,13,-1
 448 -64 l 1,14,-1
 448 -128 l 1,15,-1
 512 -128 l 1,12,-1
640 -128 m 1,16,-1
 640 -64 l 1,17,-1
 576 -64 l 1,18,-1
 576 -128 l 1,19,-1
 640 -128 l 1,16,-1
768 -128 m 1,20,-1
 768 -64 l 1,21,-1
 704 -64 l 1,22,-1
 704 -128 l 1,23,-1
 768 -128 l 1,20,-1
896 -128 m 1,24,-1
 896 -64 l 1,25,-1
 832 -64 l 1,26,-1
 832 -128 l 1,27,-1
 896 -128 l 1,24,-1
1024 -128 m 1,28,-1
 1024 -64 l 1,29,-1
 960 -64 l 1,30,-1
 960 -128 l 1,31,-1
 1024 -128 l 1,28,-1
1024 0 m 1,32,-1
 1024 64 l 1,33,-1
 960 64 l 1,34,-1
 960 0 l 1,35,-1
 1024 0 l 1,32,-1
64 64 m 1,36,-1
 64 128 l 1,37,-1
 0 128 l 1,38,-1
 0 64 l 1,39,-1
 64 64 l 1,36,-1
1024 128 m 1,40,-1
 1024 192 l 1,41,-1
 960 192 l 1,42,-1
 960 128 l 1,43,-1
 1024 128 l 1,40,-1
64 192 m 1,44,-1
 64 256 l 1,45,-1
 0 256 l 1,46,-1
 0 192 l 1,47,-1
 64 192 l 1,44,-1
1024 256 m 1,48,-1
 1024 320 l 1,49,-1
 960 320 l 1,50,-1
 960 256 l 1,51,-1
 1024 256 l 1,48,-1
1024 384 m 1,52,-1
 1024 448 l 1,53,-1
 960 448 l 1,54,-1
 960 384 l 1,55,-1
 768 384 l 1,56,-1
 768 576 l 1,57,-1
 704 576 l 1,58,59
 704 576 704 576 704 320 c 1,60,-1
 960 320 l 1,61,-1
 960 384 l 1,62,-1
 1024 384 l 1,52,-1
1024 512 m 1,63,-1
 1024 576 l 1,64,-1
 960 576 l 1,65,-1
 960 512 l 1,66,-1
 1024 512 l 1,63,-1
1024 640 m 1,67,-1
 1024 704 l 1,68,-1
 960 704 l 1,69,-1
 960 640 l 1,70,-1
 1024 640 l 1,67,-1
64 704 m 1,71,-1
 64 768 l 1,72,-1
 0 768 l 1,73,-1
 0 704 l 1,74,-1
 64 704 l 1,71,-1
1024 768 m 1,75,-1
 1024 832 l 1,76,-1
 960 832 l 1,77,-1
 960 768 l 1,78,-1
 1024 768 l 1,75,-1
64 832 m 1,79,-1
 64 896 l 1,80,-1
 0 896 l 1,81,-1
 0 832 l 1,82,-1
 64 832 l 1,79,-1
192 832 m 1,83,-1
 192 896 l 1,84,-1
 128 896 l 1,85,-1
 128 832 l 1,86,-1
 192 832 l 1,83,-1
320 832 m 1,87,-1
 320 896 l 1,88,-1
 256 896 l 1,89,-1
 256 832 l 1,90,-1
 320 832 l 1,87,-1
448 832 m 1,91,-1
 448 896 l 1,92,-1
 384 896 l 1,93,-1
 384 832 l 1,94,-1
 448 832 l 1,91,-1
576 832 m 1,95,-1
 576 896 l 1,96,-1
 512 896 l 1,97,-1
 512 832 l 1,98,-1
 576 832 l 1,95,-1
704 832 m 1,99,-1
 704 896 l 1,100,-1
 640 896 l 1,101,-1
 640 832 l 1,102,-1
 704 832 l 1,99,-1
832 832 m 1,103,-1
 832 896 l 1,104,-1
 768 896 l 1,105,-1
 768 832 l 1,106,-1
 832 832 l 1,103,-1
64 -64 m 1,107,-1
 64 0 l 1,108,-1
 0 0 l 1,109,-1
 0 -64 l 1,110,-1
 64 -64 l 1,107,-1
64 384 m 1,111,-1
 0 384 l 1,112,-1
 0 320 l 1,113,-1
 128 320 l 1,114,115
 128 320 128 320 128 448 c 1,116,-1
 192 448 l 1,117,-1
 192 384 l 1,118,-1
 256 384 l 1,119,-1
 256 320 l 1,120,-1
 320 320 l 1,121,122
 320 320 320 320 320 576 c 1,123,-1
 256 576 l 1,124,125
 256 576 256 576 256 448 c 1,126,-1
 192 448 l 1,127,-1
 192 512 l 1,128,-1
 128 512 l 1,129,-1
 128 576 l 1,130,-1
 64 576 l 1,131,-1
 64 512 l 1,132,-1
 0 512 l 1,133,-1
 0 448 l 1,134,-1
 64 448 l 1,135,-1
 64 384 l 1,111,-1
448 384 m 1,136,-1
 448 320 l 1,137,-1
 576 320 l 1,138,-1
 576 384 l 1,139,-1
 448 384 l 1,136,-1
448 384 m 1,140,-1
 448 576 l 1,141,-1
 384 576 l 1,142,-1
 384 384 l 1,143,-1
 448 384 l 1,140,-1
576 384 m 1,144,-1
 640 384 l 1,145,-1
 640 576 l 1,146,-1
 576 576 l 1,147,-1
 576 384 l 1,144,-1
64 576 m 1,148,-1
 64 640 l 1,149,-1
 0 640 l 1,150,-1
 0 576 l 1,151,-1
 64 576 l 1,148,-1
960 832 m 1,152,-1
 960 896 l 1,153,-1
 896 896 l 1,154,-1
 896 832 l 1,155,-1
 960 832 l 1,152,-1
EndSplineSet
EndChar

StartChar: uni0001
Encoding: 1 1 1
Width: 1024
GlyphClass: 2
Flags: W
LayerCount: 2
Fore
SplineSet
128 -128 m 1,0,-1
 128 -64 l 1,1,-1
 64 -64 l 1,2,-1
 64 -128 l 1,3,-1
 128 -128 l 1,0,-1
256 -128 m 1,4,-1
 256 -64 l 1,5,-1
 192 -64 l 1,6,-1
 192 -128 l 1,7,-1
 256 -128 l 1,4,-1
384 -128 m 1,8,-1
 384 -64 l 1,9,-1
 320 -64 l 1,10,-1
 320 -128 l 1,11,-1
 384 -128 l 1,8,-1
512 -128 m 1,12,-1
 512 -64 l 1,13,-1
 448 -64 l 1,14,-1
 448 -128 l 1,15,-1
 512 -128 l 1,12,-1
640 -128 m 1,16,-1
 640 -64 l 1,17,-1
 576 -64 l 1,18,-1
 576 -128 l 1,19,-1
 640 -128 l 1,16,-1
768 -128 m 1,20,-1
 768 -64 l 1,21,-1
 704 -64 l 1,22,-1
 704 -128 l 1,23,-1
 768 -128 l 1,20,-1
896 -128 m 1,24,-1
 896 -64 l 1,25,-1
 832 -64 l 1,26,-1
 832 -128 l 1,27,-1
 896 -128 l 1,24,-1
1024 -128 m 1,28,-1
 1024 -64 l 1,29,-1
 960 -64 l 1,30,-1
 960 -128 l 1,31,-1
 1024 -128 l 1,28,-1
1024 0 m 1,32,-1
 1024 64 l 1,33,-1
 960 64 l 1,34,-1
 960 0 l 1,35,-1
 1024 0 l 1,32,-1
64 64 m 1,36,-1
 64 128 l 1,37,-1
 0 128 l 1,38,-1
 0 64 l 1,39,-1
 64 64 l 1,36,-1
1024 128 m 1,40,-1
 1024 192 l 1,41,-1
 960 192 l 1,42,-1
 960 128 l 1,43,-1
 1024 128 l 1,40,-1
1024 256 m 1,44,-1
 1024 320 l 1,45,-1
 960 320 l 1,46,-1
 960 384 l 1,47,-1
 1024 384 l 1,48,-1
 1024 448 l 1,49,-1
 960 448 l 1,50,-1
 960 512 l 1,51,-1
 1024 512 l 1,52,-1
 1024 576 l 1,53,-1
 896 576 l 1,54,55
 896 576 896 576 896 448 c 1,56,-1
 768 448 l 1,57,58
 768 448 768 448 768 576 c 1,59,-1
 704 576 l 1,60,-1
 704 256 l 1,61,-1
 768 256 l 1,62,63
 768 256 768 256 768 384 c 1,64,-1
 896 384 l 1,65,66
 896 384 896 384 896 256 c 1,67,-1
 1024 256 l 1,44,-1
320 320 m 1,68,-1
 320 384 l 1,69,-1
 256 384 l 1,70,-1
 256 320 l 1,71,-1
 64 320 l 1,72,-1
 64 256 l 1,73,-1
 0 256 l 1,74,-1
 0 192 l 1,75,-1
 64 192 l 1,76,-1
 64 256 l 1,77,-1
 256 256 l 1,78,-1
 256 320 l 1,79,-1
 320 320 l 1,68,-1
320 512 m 1,80,-1
 320 576 l 1,81,-1
 128 576 l 1,82,-1
 128 512 l 1,83,-1
 0 512 l 1,84,-1
 0 448 l 1,85,-1
 128 448 l 1,86,-1
 128 384 l 1,87,-1
 256 384 l 1,88,-1
 256 448 l 1,89,-1
 128 448 l 1,90,-1
 128 512 l 1,91,-1
 320 512 l 1,80,-1
64 576 m 1,92,-1
 64 640 l 1,93,-1
 0 640 l 1,94,-1
 0 576 l 1,95,-1
 64 576 l 1,92,-1
1024 640 m 1,96,-1
 1024 704 l 1,97,-1
 960 704 l 1,98,-1
 960 640 l 1,99,-1
 1024 640 l 1,96,-1
64 704 m 1,100,-1
 64 768 l 1,101,-1
 0 768 l 1,102,-1
 0 704 l 1,103,-1
 64 704 l 1,100,-1
1024 768 m 1,104,-1
 1024 832 l 1,105,-1
 960 832 l 1,106,-1
 960 768 l 1,107,-1
 1024 768 l 1,104,-1
64 832 m 1,108,-1
 64 896 l 1,109,-1
 0 896 l 1,110,-1
 0 832 l 1,111,-1
 64 832 l 1,108,-1
192 832 m 1,112,-1
 192 896 l 1,113,-1
 128 896 l 1,114,-1
 128 832 l 1,115,-1
 192 832 l 1,112,-1
320 832 m 1,116,-1
 320 896 l 1,117,-1
 256 896 l 1,118,-1
 256 832 l 1,119,-1
 320 832 l 1,116,-1
448 832 m 1,120,-1
 448 896 l 1,121,-1
 384 896 l 1,122,-1
 384 832 l 1,123,-1
 448 832 l 1,120,-1
576 832 m 1,124,-1
 576 896 l 1,125,-1
 512 896 l 1,126,-1
 512 832 l 1,127,-1
 576 832 l 1,124,-1
704 832 m 1,128,-1
 704 896 l 1,129,-1
 640 896 l 1,130,-1
 640 832 l 1,131,-1
 704 832 l 1,128,-1
832 832 m 1,132,-1
 832 896 l 1,133,-1
 768 896 l 1,134,-1
 768 832 l 1,135,-1
 832 832 l 1,132,-1
64 -64 m 1,136,-1
 64 0 l 1,137,-1
 0 0 l 1,138,-1
 0 -64 l 1,139,-1
 64 -64 l 1,136,-1
64 320 m 1,140,-1
 64 384 l 1,141,-1
 0 384 l 1,142,-1
 0 320 l 1,143,-1
 64 320 l 1,140,-1
448 320 m 1,144,-1
 448 256 l 1,145,-1
 576 256 l 1,146,-1
 576 320 l 1,147,-1
 448 320 l 1,144,-1
448 320 m 1,148,-1
 448 512 l 1,149,-1
 384 512 l 1,150,-1
 384 320 l 1,151,-1
 448 320 l 1,148,-1
576 320 m 1,152,-1
 640 320 l 1,153,-1
 640 512 l 1,154,-1
 576 512 l 1,155,-1
 576 320 l 1,152,-1
448 512 m 1,156,-1
 576 512 l 1,157,-1
 576 576 l 1,158,-1
 448 576 l 1,159,-1
 448 512 l 1,156,-1
960 832 m 1,160,-1
 960 896 l 1,161,-1
 896 896 l 1,162,-1
 896 832 l 1,163,-1
 960 832 l 1,160,-1
EndSplineSet
EndChar

StartChar: uni0002
Encoding: 2 2 2
Width: 1024
GlyphClass: 2
Flags: W
LayerCount: 2
Fore
SplineSet
128 -128 m 1,0,-1
 128 -64 l 1,1,-1
 64 -64 l 1,2,-1
 64 -128 l 1,3,-1
 128 -128 l 1,0,-1
256 -128 m 1,4,-1
 256 -64 l 1,5,-1
 192 -64 l 1,6,-1
 192 -128 l 1,7,-1
 256 -128 l 1,4,-1
384 -128 m 1,8,-1
 384 -64 l 1,9,-1
 320 -64 l 1,10,-1
 320 -128 l 1,11,-1
 384 -128 l 1,8,-1
512 -128 m 1,12,-1
 512 -64 l 1,13,-1
 448 -64 l 1,14,-1
 448 -128 l 1,15,-1
 512 -128 l 1,12,-1
640 -128 m 1,16,-1
 640 -64 l 1,17,-1
 576 -64 l 1,18,-1
 576 -128 l 1,19,-1
 640 -128 l 1,16,-1
768 -128 m 1,20,-1
 768 -64 l 1,21,-1
 704 -64 l 1,22,-1
 704 -128 l 1,23,-1
 768 -128 l 1,20,-1
896 -128 m 1,24,-1
 896 -64 l 1,25,-1
 832 -64 l 1,26,-1
 832 -128 l 1,27,-1
 896 -128 l 1,24,-1
1024 -128 m 1,28,-1
 1024 -64 l 1,29,-1
 960 -64 l 1,30,-1
 960 -128 l 1,31,-1
 1024 -128 l 1,28,-1
1024 0 m 1,32,-1
 1024 64 l 1,33,-1
 960 64 l 1,34,-1
 960 0 l 1,35,-1
 1024 0 l 1,32,-1
64 64 m 1,36,-1
 64 128 l 1,37,-1
 0 128 l 1,38,-1
 0 64 l 1,39,-1
 64 64 l 1,36,-1
1024 128 m 1,40,-1
 1024 192 l 1,41,-1
 960 192 l 1,42,-1
 960 128 l 1,43,-1
 1024 128 l 1,40,-1
1024 256 m 1,44,-1
 1024 320 l 1,45,-1
 960 320 l 1,46,-1
 960 256 l 1,47,-1
 1024 256 l 1,44,-1
320 320 m 1,48,-1
 320 384 l 1,49,-1
 256 384 l 1,50,-1
 256 320 l 1,51,-1
 64 320 l 1,52,-1
 64 256 l 1,53,-1
 0 256 l 1,54,-1
 0 192 l 1,55,-1
 64 192 l 1,56,-1
 64 256 l 1,57,-1
 256 256 l 1,58,-1
 256 320 l 1,59,-1
 320 320 l 1,48,-1
1024 384 m 1,60,-1
 1024 448 l 1,61,-1
 960 448 l 1,62,-1
 960 384 l 1,63,-1
 1024 384 l 1,60,-1
320 512 m 1,64,-1
 320 576 l 1,65,-1
 128 576 l 1,66,-1
 128 512 l 1,67,-1
 0 512 l 1,68,-1
 0 448 l 1,69,-1
 128 448 l 1,70,-1
 128 384 l 1,71,-1
 256 384 l 1,72,-1
 256 448 l 1,73,-1
 128 448 l 1,74,-1
 128 512 l 1,75,-1
 320 512 l 1,64,-1
576 512 m 1,76,-1
 576 576 l 1,77,-1
 384 576 l 1,78,-1
 384 512 l 1,79,-1
 448 512 l 1,80,81
 448 512 448 512 448 256 c 1,82,-1
 512 256 l 1,83,84
 512 256 512 256 512 512 c 1,85,-1
 576 512 l 1,76,-1
1024 512 m 1,86,-1
 1024 576 l 1,87,-1
 960 576 l 1,88,-1
 960 512 l 1,89,-1
 1024 512 l 1,86,-1
64 576 m 1,90,-1
 64 640 l 1,91,-1
 0 640 l 1,92,-1
 0 576 l 1,93,-1
 64 576 l 1,90,-1
1024 640 m 1,94,-1
 1024 704 l 1,95,-1
 960 704 l 1,96,-1
 960 640 l 1,97,-1
 1024 640 l 1,94,-1
64 704 m 1,98,-1
 64 768 l 1,99,-1
 0 768 l 1,100,-1
 0 704 l 1,101,-1
 64 704 l 1,98,-1
1024 768 m 1,102,-1
 1024 832 l 1,103,-1
 960 832 l 1,104,-1
 960 768 l 1,105,-1
 1024 768 l 1,102,-1
64 832 m 1,106,-1
 64 896 l 1,107,-1
 0 896 l 1,108,-1
 0 832 l 1,109,-1
 64 832 l 1,106,-1
192 832 m 1,110,-1
 192 896 l 1,111,-1
 128 896 l 1,112,-1
 128 832 l 1,113,-1
 192 832 l 1,110,-1
320 832 m 1,114,-1
 320 896 l 1,115,-1
 256 896 l 1,116,-1
 256 832 l 1,117,-1
 320 832 l 1,114,-1
448 832 m 1,118,-1
 448 896 l 1,119,-1
 384 896 l 1,120,-1
 384 832 l 1,121,-1
 448 832 l 1,118,-1
576 832 m 1,122,-1
 576 896 l 1,123,-1
 512 896 l 1,124,-1
 512 832 l 1,125,-1
 576 832 l 1,122,-1
704 832 m 1,126,-1
 704 896 l 1,127,-1
 640 896 l 1,128,-1
 640 832 l 1,129,-1
 704 832 l 1,126,-1
832 832 m 1,130,-1
 832 896 l 1,131,-1
 768 896 l 1,132,-1
 768 832 l 1,133,-1
 832 832 l 1,130,-1
64 -64 m 1,134,-1
 64 0 l 1,135,-1
 0 0 l 1,136,-1
 0 -64 l 1,137,-1
 64 -64 l 1,134,-1
64 320 m 1,138,-1
 64 384 l 1,139,-1
 0 384 l 1,140,-1
 0 320 l 1,141,-1
 64 320 l 1,138,-1
640 384 m 1,142,143
 640 384 640 384 640 256 c 1,144,-1
 704 256 l 1,145,146
 704 256 704 256 704 384 c 1,147,-1
 640 384 l 1,142,143
832 384 m 1,148,149
 832 384 832 384 832 256 c 1,150,-1
 896 256 l 1,151,152
 896 256 896 256 896 384 c 1,153,-1
 832 384 l 1,148,149
704 384 m 1,154,-1
 832 384 l 1,155,-1
 832 448 l 1,156,-1
 704 448 l 1,157,-1
 704 384 l 1,154,-1
704 448 m 1,158,159
 704 448 704 448 704 576 c 1,160,-1
 640 576 l 1,161,162
 640 576 640 576 640 448 c 1,163,-1
 704 448 l 1,158,159
832 448 m 1,164,-1
 896 448 l 1,165,166
 896 448 896 448 896 576 c 1,167,-1
 832 576 l 1,168,169
 832 576 832 576 832 448 c 1,164,-1
960 832 m 1,170,-1
 960 896 l 1,171,-1
 896 896 l 1,172,-1
 896 832 l 1,173,-1
 960 832 l 1,170,-1
EndSplineSet
EndChar

StartChar: uni0003
Encoding: 3 3 3
Width: 1024
GlyphClass: 2
Flags: W
LayerCount: 2
Fore
SplineSet
128 -128 m 1,0,-1
 128 -64 l 1,1,-1
 64 -64 l 1,2,-1
 64 -128 l 1,3,-1
 128 -128 l 1,0,-1
256 -128 m 1,4,-1
 256 -64 l 1,5,-1
 192 -64 l 1,6,-1
 192 -128 l 1,7,-1
 256 -128 l 1,4,-1
384 -128 m 1,8,-1
 384 -64 l 1,9,-1
 320 -64 l 1,10,-1
 320 -128 l 1,11,-1
 384 -128 l 1,8,-1
512 -128 m 1,12,-1
 512 -64 l 1,13,-1
 448 -64 l 1,14,-1
 448 -128 l 1,15,-1
 512 -128 l 1,12,-1
640 -128 m 1,16,-1
 640 -64 l 1,17,-1
 576 -64 l 1,18,-1
 576 -128 l 1,19,-1
 640 -128 l 1,16,-1
768 -128 m 1,20,-1
 768 -64 l 1,21,-1
 704 -64 l 1,22,-1
 704 -128 l 1,23,-1
 768 -128 l 1,20,-1
896 -128 m 1,24,-1
 896 -64 l 1,25,-1
 832 -64 l 1,26,-1
 832 -128 l 1,27,-1
 896 -128 l 1,24,-1
1024 -128 m 1,28,-1
 1024 -64 l 1,29,-1
 960 -64 l 1,30,-1
 960 -128 l 1,31,-1
 1024 -128 l 1,28,-1
1024 0 m 1,32,-1
 1024 64 l 1,33,-1
 960 64 l 1,34,-1
 960 0 l 1,35,-1
 1024 0 l 1,32,-1
64 64 m 1,36,-1
 64 128 l 1,37,-1
 0 128 l 1,38,-1
 0 64 l 1,39,-1
 64 64 l 1,36,-1
1024 128 m 1,40,-1
 1024 192 l 1,41,-1
 960 192 l 1,42,-1
 960 128 l 1,43,-1
 1024 128 l 1,40,-1
320 256 m 1,44,-1
 320 320 l 1,45,-1
 128 320 l 1,46,-1
 128 384 l 1,47,-1
 320 384 l 1,48,-1
 320 448 l 1,49,-1
 128 448 l 1,50,-1
 128 512 l 1,51,-1
 320 512 l 1,52,-1
 320 576 l 1,53,-1
 64 576 l 1,54,-1
 64 512 l 1,55,-1
 0 512 l 1,56,-1
 0 448 l 1,57,-1
 64 448 l 1,58,-1
 64 384 l 1,59,-1
 0 384 l 1,60,-1
 0 320 l 1,61,-1
 64 320 l 1,62,-1
 64 256 l 1,63,-1
 0 256 l 1,64,-1
 0 192 l 1,65,-1
 64 192 l 1,66,-1
 64 256 l 1,67,-1
 320 256 l 1,44,-1
1024 256 m 1,68,-1
 1024 320 l 1,69,-1
 960 320 l 1,70,-1
 960 256 l 1,71,-1
 1024 256 l 1,68,-1
1024 384 m 1,72,-1
 1024 448 l 1,73,-1
 960 448 l 1,74,-1
 960 384 l 1,75,-1
 1024 384 l 1,72,-1
576 512 m 1,76,-1
 576 576 l 1,77,-1
 384 576 l 1,78,-1
 384 512 l 1,79,-1
 448 512 l 1,80,81
 448 512 448 512 448 256 c 1,82,-1
 512 256 l 1,83,84
 512 256 512 256 512 512 c 1,85,-1
 576 512 l 1,76,-1
1024 512 m 1,86,-1
 1024 576 l 1,87,-1
 960 576 l 1,88,-1
 960 512 l 1,89,-1
 1024 512 l 1,86,-1
1024 640 m 1,90,-1
 1024 704 l 1,91,-1
 960 704 l 1,92,-1
 960 640 l 1,93,-1
 1024 640 l 1,90,-1
64 704 m 1,94,-1
 64 768 l 1,95,-1
 0 768 l 1,96,-1
 0 704 l 1,97,-1
 64 704 l 1,94,-1
1024 768 m 1,98,-1
 1024 832 l 1,99,-1
 960 832 l 1,100,-1
 960 768 l 1,101,-1
 1024 768 l 1,98,-1
64 832 m 1,102,-1
 64 896 l 1,103,-1
 0 896 l 1,104,-1
 0 832 l 1,105,-1
 64 832 l 1,102,-1
192 832 m 1,106,-1
 192 896 l 1,107,-1
 128 896 l 1,108,-1
 128 832 l 1,109,-1
 192 832 l 1,106,-1
320 832 m 1,110,-1
 320 896 l 1,111,-1
 256 896 l 1,112,-1
 256 832 l 1,113,-1
 320 832 l 1,110,-1
448 832 m 1,114,-1
 448 896 l 1,115,-1
 384 896 l 1,116,-1
 384 832 l 1,117,-1
 448 832 l 1,114,-1
576 832 m 1,118,-1
 576 896 l 1,119,-1
 512 896 l 1,120,-1
 512 832 l 1,121,-1
 576 832 l 1,118,-1
704 832 m 1,122,-1
 704 896 l 1,123,-1
 640 896 l 1,124,-1
 640 832 l 1,125,-1
 704 832 l 1,122,-1
832 832 m 1,126,-1
 832 896 l 1,127,-1
 768 896 l 1,128,-1
 768 832 l 1,129,-1
 832 832 l 1,126,-1
64 -64 m 1,130,-1
 64 0 l 1,131,-1
 0 0 l 1,132,-1
 0 -64 l 1,133,-1
 64 -64 l 1,130,-1
640 384 m 1,134,135
 640 384 640 384 640 256 c 1,136,-1
 704 256 l 1,137,138
 704 256 704 256 704 384 c 1,139,-1
 640 384 l 1,134,135
832 384 m 1,140,141
 832 384 832 384 832 256 c 1,142,-1
 896 256 l 1,143,144
 896 256 896 256 896 384 c 1,145,-1
 832 384 l 1,140,141
704 384 m 1,146,-1
 832 384 l 1,147,-1
 832 448 l 1,148,-1
 704 448 l 1,149,-1
 704 384 l 1,146,-1
704 448 m 1,150,151
 704 448 704 448 704 576 c 1,152,-1
 640 576 l 1,153,154
 640 576 640 576 640 448 c 1,155,-1
 704 448 l 1,150,151
832 448 m 1,156,-1
 896 448 l 1,157,158
 896 448 896 448 896 576 c 1,159,-1
 832 576 l 1,160,161
 832 576 832 576 832 448 c 1,156,-1
64 576 m 1,162,-1
 64 640 l 1,163,-1
 0 640 l 1,164,-1
 0 576 l 1,165,-1
 64 576 l 1,162,-1
960 832 m 1,166,-1
 960 896 l 1,167,-1
 896 896 l 1,168,-1
 896 832 l 1,169,-1
 960 832 l 1,166,-1
EndSplineSet
EndChar

StartChar: uni0004
Encoding: 4 4 4
Width: 1024
GlyphClass: 2
Flags: W
LayerCount: 2
Fore
SplineSet
128 -128 m 1,0,-1
 128 -64 l 1,1,-1
 64 -64 l 1,2,-1
 64 -128 l 1,3,-1
 128 -128 l 1,0,-1
256 -128 m 1,4,-1
 256 -64 l 1,5,-1
 192 -64 l 1,6,-1
 192 -128 l 1,7,-1
 256 -128 l 1,4,-1
384 -128 m 1,8,-1
 384 -64 l 1,9,-1
 320 -64 l 1,10,-1
 320 -128 l 1,11,-1
 384 -128 l 1,8,-1
512 -128 m 1,12,-1
 512 -64 l 1,13,-1
 448 -64 l 1,14,-1
 448 -128 l 1,15,-1
 512 -128 l 1,12,-1
640 -128 m 1,16,-1
 640 -64 l 1,17,-1
 576 -64 l 1,18,-1
 576 -128 l 1,19,-1
 640 -128 l 1,16,-1
768 -128 m 1,20,-1
 768 -64 l 1,21,-1
 704 -64 l 1,22,-1
 704 -128 l 1,23,-1
 768 -128 l 1,20,-1
896 -128 m 1,24,-1
 896 -64 l 1,25,-1
 832 -64 l 1,26,-1
 832 -128 l 1,27,-1
 896 -128 l 1,24,-1
1024 -128 m 1,28,-1
 1024 -64 l 1,29,-1
 960 -64 l 1,30,-1
 960 -128 l 1,31,-1
 1024 -128 l 1,28,-1
1024 0 m 1,32,-1
 1024 64 l 1,33,-1
 960 64 l 1,34,-1
 960 0 l 1,35,-1
 1024 0 l 1,32,-1
64 64 m 1,36,-1
 64 128 l 1,37,-1
 0 128 l 1,38,-1
 0 64 l 1,39,-1
 64 64 l 1,36,-1
1024 128 m 1,40,-1
 1024 192 l 1,41,-1
 960 192 l 1,42,-1
 960 128 l 1,43,-1
 1024 128 l 1,40,-1
320 256 m 1,44,-1
 320 320 l 1,45,-1
 128 320 l 1,46,-1
 128 384 l 1,47,-1
 320 384 l 1,48,-1
 320 448 l 1,49,-1
 128 448 l 1,50,-1
 128 512 l 1,51,-1
 320 512 l 1,52,-1
 320 576 l 1,53,-1
 64 576 l 1,54,-1
 64 512 l 1,55,-1
 0 512 l 1,56,-1
 0 448 l 1,57,-1
 64 448 l 1,58,-1
 64 384 l 1,59,-1
 0 384 l 1,60,-1
 0 320 l 1,61,-1
 64 320 l 1,62,-1
 64 256 l 1,63,-1
 0 256 l 1,64,-1
 0 192 l 1,65,-1
 64 192 l 1,66,-1
 64 256 l 1,67,-1
 320 256 l 1,44,-1
1024 256 m 1,68,-1
 1024 320 l 1,69,-1
 960 320 l 1,70,-1
 960 256 l 1,71,-1
 1024 256 l 1,68,-1
1024 384 m 1,72,-1
 1024 448 l 1,73,-1
 960 448 l 1,74,-1
 960 384 l 1,75,-1
 1024 384 l 1,72,-1
1024 512 m 1,76,-1
 1024 576 l 1,77,-1
 640 576 l 1,78,-1
 640 512 l 1,79,-1
 576 512 l 1,80,-1
 576 320 l 1,81,-1
 448 320 l 1,82,-1
 448 256 l 1,83,-1
 576 256 l 1,84,-1
 576 320 l 1,85,-1
 640 320 l 1,86,-1
 640 512 l 1,87,-1
 768 512 l 1,88,89
 768 512 768 512 768 256 c 1,90,-1
 832 256 l 1,91,92
 832 256 832 256 832 512 c 1,93,-1
 1024 512 l 1,76,-1
1024 640 m 1,94,-1
 1024 704 l 1,95,-1
 960 704 l 1,96,-1
 960 640 l 1,97,-1
 1024 640 l 1,94,-1
64 704 m 1,98,-1
 64 768 l 1,99,-1
 0 768 l 1,100,-1
 0 704 l 1,101,-1
 64 704 l 1,98,-1
1024 768 m 1,102,-1
 1024 832 l 1,103,-1
 960 832 l 1,104,-1
 960 768 l 1,105,-1
 1024 768 l 1,102,-1
64 832 m 1,106,-1
 64 896 l 1,107,-1
 0 896 l 1,108,-1
 0 832 l 1,109,-1
 64 832 l 1,106,-1
192 832 m 1,110,-1
 192 896 l 1,111,-1
 128 896 l 1,112,-1
 128 832 l 1,113,-1
 192 832 l 1,110,-1
320 832 m 1,114,-1
 320 896 l 1,115,-1
 256 896 l 1,116,-1
 256 832 l 1,117,-1
 320 832 l 1,114,-1
448 832 m 1,118,-1
 448 896 l 1,119,-1
 384 896 l 1,120,-1
 384 832 l 1,121,-1
 448 832 l 1,118,-1
576 832 m 1,122,-1
 576 896 l 1,123,-1
 512 896 l 1,124,-1
 512 832 l 1,125,-1
 576 832 l 1,122,-1
704 832 m 1,126,-1
 704 896 l 1,127,-1
 640 896 l 1,128,-1
 640 832 l 1,129,-1
 704 832 l 1,126,-1
832 832 m 1,130,-1
 832 896 l 1,131,-1
 768 896 l 1,132,-1
 768 832 l 1,133,-1
 832 832 l 1,130,-1
64 -64 m 1,134,-1
 64 0 l 1,135,-1
 0 0 l 1,136,-1
 0 -64 l 1,137,-1
 64 -64 l 1,134,-1
448 320 m 1,138,-1
 448 512 l 1,139,-1
 384 512 l 1,140,-1
 384 320 l 1,141,-1
 448 320 l 1,138,-1
448 512 m 1,142,-1
 576 512 l 1,143,-1
 576 576 l 1,144,-1
 448 576 l 1,145,-1
 448 512 l 1,142,-1
64 576 m 1,146,-1
 64 640 l 1,147,-1
 0 640 l 1,148,-1
 0 576 l 1,149,-1
 64 576 l 1,146,-1
960 832 m 1,150,-1
 960 896 l 1,151,-1
 896 896 l 1,152,-1
 896 832 l 1,153,-1
 960 832 l 1,150,-1
EndSplineSet
EndChar

StartChar: uni0005
Encoding: 5 5 5
Width: 1024
GlyphClass: 2
Flags: W
LayerCount: 2
Fore
SplineSet
128 -128 m 1,0,-1
 128 -64 l 1,1,-1
 64 -64 l 1,2,-1
 64 -128 l 1,3,-1
 128 -128 l 1,0,-1
256 -128 m 1,4,-1
 256 -64 l 1,5,-1
 192 -64 l 1,6,-1
 192 -128 l 1,7,-1
 256 -128 l 1,4,-1
384 -128 m 1,8,-1
 384 -64 l 1,9,-1
 320 -64 l 1,10,-1
 320 -128 l 1,11,-1
 384 -128 l 1,8,-1
512 -128 m 1,12,-1
 512 -64 l 1,13,-1
 448 -64 l 1,14,-1
 448 -128 l 1,15,-1
 512 -128 l 1,12,-1
640 -128 m 1,16,-1
 640 -64 l 1,17,-1
 576 -64 l 1,18,-1
 576 -128 l 1,19,-1
 640 -128 l 1,16,-1
768 -128 m 1,20,-1
 768 -64 l 1,21,-1
 704 -64 l 1,22,-1
 704 -128 l 1,23,-1
 768 -128 l 1,20,-1
896 -128 m 1,24,-1
 896 -64 l 1,25,-1
 832 -64 l 1,26,-1
 832 -128 l 1,27,-1
 896 -128 l 1,24,-1
1024 -128 m 1,28,-1
 1024 -64 l 1,29,-1
 960 -64 l 1,30,-1
 960 -128 l 1,31,-1
 1024 -128 l 1,28,-1
1024 0 m 1,32,-1
 1024 64 l 1,33,-1
 960 64 l 1,34,-1
 960 0 l 1,35,-1
 1024 0 l 1,32,-1
64 64 m 1,36,-1
 64 128 l 1,37,-1
 0 128 l 1,38,-1
 0 64 l 1,39,-1
 64 64 l 1,36,-1
1024 128 m 1,40,-1
 1024 192 l 1,41,-1
 960 192 l 1,42,-1
 960 128 l 1,43,-1
 1024 128 l 1,40,-1
320 256 m 1,44,-1
 320 320 l 1,45,-1
 128 320 l 1,46,-1
 128 384 l 1,47,-1
 320 384 l 1,48,-1
 320 448 l 1,49,-1
 128 448 l 1,50,-1
 128 512 l 1,51,-1
 320 512 l 1,52,-1
 320 576 l 1,53,-1
 64 576 l 1,54,-1
 64 512 l 1,55,-1
 0 512 l 1,56,-1
 0 448 l 1,57,-1
 64 448 l 1,58,-1
 64 384 l 1,59,-1
 0 384 l 1,60,-1
 0 320 l 1,61,-1
 64 320 l 1,62,-1
 64 256 l 1,63,-1
 0 256 l 1,64,-1
 0 192 l 1,65,-1
 64 192 l 1,66,-1
 64 256 l 1,67,-1
 320 256 l 1,44,-1
1024 256 m 1,68,-1
 1024 320 l 1,69,-1
 960 320 l 1,70,-1
 960 384 l 1,71,-1
 1024 384 l 1,72,-1
 1024 448 l 1,73,-1
 960 448 l 1,74,-1
 960 512 l 1,75,-1
 896 512 l 1,76,77
 896 512 896 512 896 384 c 1,78,-1
 832 384 l 1,79,-1
 832 320 l 1,80,-1
 768 320 l 1,81,-1
 768 256 l 1,82,-1
 1024 256 l 1,68,-1
1024 512 m 1,83,-1
 1024 576 l 1,84,-1
 960 576 l 1,85,-1
 960 512 l 1,86,-1
 1024 512 l 1,83,-1
1024 640 m 1,87,-1
 1024 704 l 1,88,-1
 960 704 l 1,89,-1
 960 640 l 1,90,-1
 1024 640 l 1,87,-1
64 704 m 1,91,-1
 64 768 l 1,92,-1
 0 768 l 1,93,-1
 0 704 l 1,94,-1
 64 704 l 1,91,-1
1024 768 m 1,95,-1
 1024 832 l 1,96,-1
 960 832 l 1,97,-1
 960 768 l 1,98,-1
 1024 768 l 1,95,-1
64 832 m 1,99,-1
 64 896 l 1,100,-1
 0 896 l 1,101,-1
 0 832 l 1,102,-1
 64 832 l 1,99,-1
192 832 m 1,103,-1
 192 896 l 1,104,-1
 128 896 l 1,105,-1
 128 832 l 1,106,-1
 192 832 l 1,103,-1
320 832 m 1,107,-1
 320 896 l 1,108,-1
 256 896 l 1,109,-1
 256 832 l 1,110,-1
 320 832 l 1,107,-1
448 832 m 1,111,-1
 448 896 l 1,112,-1
 384 896 l 1,113,-1
 384 832 l 1,114,-1
 448 832 l 1,111,-1
576 832 m 1,115,-1
 576 896 l 1,116,-1
 512 896 l 1,117,-1
 512 832 l 1,118,-1
 576 832 l 1,115,-1
704 832 m 1,119,-1
 704 896 l 1,120,-1
 640 896 l 1,121,-1
 640 832 l 1,122,-1
 704 832 l 1,119,-1
832 832 m 1,123,-1
 832 896 l 1,124,-1
 768 896 l 1,125,-1
 768 832 l 1,126,-1
 832 832 l 1,123,-1
64 -64 m 1,127,-1
 64 0 l 1,128,-1
 0 0 l 1,129,-1
 0 -64 l 1,130,-1
 64 -64 l 1,127,-1
384 576 m 1,131,-1
 384 256 l 1,132,-1
 448 256 l 1,133,134
 448 256 448 256 448 384 c 1,135,-1
 512 384 l 1,136,-1
 512 320 l 1,137,-1
 576 320 l 1,138,-1
 576 256 l 1,139,-1
 640 256 l 1,140,-1
 640 576 l 1,141,-1
 576 576 l 1,142,-1
 576 384 l 1,143,-1
 512 384 l 1,144,-1
 512 448 l 1,145,-1
 448 448 l 1,146,147
 448 448 448 448 448 576 c 1,148,-1
 384 576 l 1,131,-1
768 320 m 1,149,-1
 768 512 l 1,150,-1
 704 512 l 1,151,-1
 704 320 l 1,152,-1
 768 320 l 1,149,-1
768 512 m 1,153,-1
 896 512 l 1,154,-1
 896 576 l 1,155,-1
 768 576 l 1,156,-1
 768 512 l 1,153,-1
64 576 m 1,157,-1
 64 640 l 1,158,-1
 0 640 l 1,159,-1
 0 576 l 1,160,-1
 64 576 l 1,157,-1
960 832 m 1,161,-1
 960 896 l 1,162,-1
 896 896 l 1,163,-1
 896 832 l 1,164,-1
 960 832 l 1,161,-1
EndSplineSet
EndChar

StartChar: uni0006
Encoding: 6 6 6
Width: 1024
GlyphClass: 2
Flags: W
LayerCount: 2
Fore
SplineSet
128 -128 m 1,0,-1
 128 -64 l 1,1,-1
 64 -64 l 1,2,-1
 64 -128 l 1,3,-1
 128 -128 l 1,0,-1
256 -128 m 1,4,-1
 256 -64 l 1,5,-1
 192 -64 l 1,6,-1
 192 -128 l 1,7,-1
 256 -128 l 1,4,-1
384 -128 m 1,8,-1
 384 -64 l 1,9,-1
 320 -64 l 1,10,-1
 320 -128 l 1,11,-1
 384 -128 l 1,8,-1
512 -128 m 1,12,-1
 512 -64 l 1,13,-1
 448 -64 l 1,14,-1
 448 -128 l 1,15,-1
 512 -128 l 1,12,-1
640 -128 m 1,16,-1
 640 -64 l 1,17,-1
 576 -64 l 1,18,-1
 576 -128 l 1,19,-1
 640 -128 l 1,16,-1
768 -128 m 1,20,-1
 768 -64 l 1,21,-1
 704 -64 l 1,22,-1
 704 -128 l 1,23,-1
 768 -128 l 1,20,-1
896 -128 m 1,24,-1
 896 -64 l 1,25,-1
 832 -64 l 1,26,-1
 832 -128 l 1,27,-1
 896 -128 l 1,24,-1
1024 -128 m 1,28,-1
 1024 -64 l 1,29,-1
 960 -64 l 1,30,-1
 960 -128 l 1,31,-1
 1024 -128 l 1,28,-1
1024 0 m 1,32,-1
 1024 64 l 1,33,-1
 960 64 l 1,34,-1
 960 0 l 1,35,-1
 1024 0 l 1,32,-1
64 64 m 1,36,-1
 64 128 l 1,37,-1
 0 128 l 1,38,-1
 0 64 l 1,39,-1
 64 64 l 1,36,-1
1024 128 m 1,40,-1
 1024 192 l 1,41,-1
 960 192 l 1,42,-1
 960 128 l 1,43,-1
 1024 128 l 1,40,-1
576 256 m 1,44,-1
 576 320 l 1,45,-1
 448 320 l 1,46,-1
 448 256 l 1,47,-1
 576 256 l 1,44,-1
896 256 m 1,48,-1
 896 320 l 1,49,-1
 832 320 l 1,50,-1
 832 256 l 1,51,-1
 896 256 l 1,48,-1
1024 256 m 1,52,-1
 1024 320 l 1,53,-1
 960 320 l 1,54,-1
 960 256 l 1,55,-1
 1024 256 l 1,52,-1
1024 384 m 1,56,-1
 1024 448 l 1,57,-1
 960 448 l 1,58,-1
 960 384 l 1,59,-1
 1024 384 l 1,56,-1
576 512 m 1,60,-1
 576 576 l 1,61,-1
 448 576 l 1,62,-1
 448 512 l 1,63,-1
 384 512 l 1,64,-1
 384 320 l 1,65,-1
 448 320 l 1,66,-1
 448 512 l 1,67,-1
 576 512 l 1,60,-1
896 512 m 1,68,-1
 896 576 l 1,69,-1
 832 576 l 1,70,-1
 832 512 l 1,71,-1
 768 512 l 1,72,-1
 768 448 l 1,73,-1
 704 448 l 1,74,75
 704 448 704 448 704 576 c 1,76,-1
 640 576 l 1,77,-1
 640 256 l 1,78,-1
 704 256 l 1,79,80
 704 256 704 256 704 384 c 1,81,-1
 768 384 l 1,82,-1
 768 320 l 1,83,-1
 832 320 l 1,84,-1
 832 384 l 1,85,-1
 768 384 l 1,86,-1
 768 448 l 1,87,-1
 832 448 l 1,88,-1
 832 512 l 1,89,-1
 896 512 l 1,68,-1
1024 512 m 1,90,-1
 1024 576 l 1,91,-1
 960 576 l 1,92,-1
 960 512 l 1,93,-1
 1024 512 l 1,90,-1
64 576 m 1,94,-1
 64 640 l 1,95,-1
 0 640 l 1,96,-1
 0 576 l 1,97,-1
 64 576 l 1,94,-1
1024 640 m 1,98,-1
 1024 704 l 1,99,-1
 960 704 l 1,100,-1
 960 640 l 1,101,-1
 1024 640 l 1,98,-1
64 704 m 1,102,-1
 64 768 l 1,103,-1
 0 768 l 1,104,-1
 0 704 l 1,105,-1
 64 704 l 1,102,-1
1024 768 m 1,106,-1
 1024 832 l 1,107,-1
 960 832 l 1,108,-1
 960 768 l 1,109,-1
 1024 768 l 1,106,-1
64 832 m 1,110,-1
 64 896 l 1,111,-1
 0 896 l 1,112,-1
 0 832 l 1,113,-1
 64 832 l 1,110,-1
192 832 m 1,114,-1
 192 896 l 1,115,-1
 128 896 l 1,116,-1
 128 832 l 1,117,-1
 192 832 l 1,114,-1
320 832 m 1,118,-1
 320 896 l 1,119,-1
 256 896 l 1,120,-1
 256 832 l 1,121,-1
 320 832 l 1,118,-1
448 832 m 1,122,-1
 448 896 l 1,123,-1
 384 896 l 1,124,-1
 384 832 l 1,125,-1
 448 832 l 1,122,-1
576 832 m 1,126,-1
 576 896 l 1,127,-1
 512 896 l 1,128,-1
 512 832 l 1,129,-1
 576 832 l 1,126,-1
704 832 m 1,130,-1
 704 896 l 1,131,-1
 640 896 l 1,132,-1
 640 832 l 1,133,-1
 704 832 l 1,130,-1
832 832 m 1,134,-1
 832 896 l 1,135,-1
 768 896 l 1,136,-1
 768 832 l 1,137,-1
 832 832 l 1,134,-1
64 -64 m 1,138,-1
 64 0 l 1,139,-1
 0 0 l 1,140,-1
 0 -64 l 1,141,-1
 64 -64 l 1,138,-1
64 256 m 1,142,-1
 0 256 l 1,143,-1
 0 192 l 1,144,-1
 64 192 l 1,145,-1
 64 256 l 1,142,-1
64 256 m 1,146,-1
 128 256 l 1,147,148
 128 256 128 256 128 384 c 1,149,-1
 256 384 l 1,150,151
 256 384 256 384 256 256 c 1,152,-1
 320 256 l 1,153,154
 320 256 320 256 320 512 c 1,155,-1
 256 512 l 1,156,-1
 256 448 l 1,157,-1
 128 448 l 1,158,-1
 128 512 l 1,159,-1
 0 512 l 1,160,-1
 0 448 l 1,161,-1
 64 448 l 1,162,-1
 64 384 l 1,163,-1
 0 384 l 1,164,-1
 0 320 l 1,165,-1
 64 320 l 1,166,-1
 64 256 l 1,146,-1
128 512 m 1,167,-1
 256 512 l 1,168,-1
 256 576 l 1,169,-1
 128 576 l 1,170,-1
 128 512 l 1,167,-1
960 832 m 1,171,-1
 960 896 l 1,172,-1
 896 896 l 1,173,-1
 896 832 l 1,174,-1
 960 832 l 1,171,-1
EndSplineSet
EndChar

StartChar: uni0007
Encoding: 7 7 7
Width: 1024
GlyphClass: 2
Flags: W
LayerCount: 2
Fore
SplineSet
128 -128 m 1,0,-1
 128 -64 l 1,1,-1
 64 -64 l 1,2,-1
 64 -128 l 1,3,-1
 128 -128 l 1,0,-1
256 -128 m 1,4,-1
 256 -64 l 1,5,-1
 192 -64 l 1,6,-1
 192 -128 l 1,7,-1
 256 -128 l 1,4,-1
384 -128 m 1,8,-1
 384 -64 l 1,9,-1
 320 -64 l 1,10,-1
 320 -128 l 1,11,-1
 384 -128 l 1,8,-1
512 -128 m 1,12,-1
 512 -64 l 1,13,-1
 448 -64 l 1,14,-1
 448 -128 l 1,15,-1
 512 -128 l 1,12,-1
640 -128 m 1,16,-1
 640 -64 l 1,17,-1
 576 -64 l 1,18,-1
 576 -128 l 1,19,-1
 640 -128 l 1,16,-1
768 -128 m 1,20,-1
 768 -64 l 1,21,-1
 704 -64 l 1,22,-1
 704 -128 l 1,23,-1
 768 -128 l 1,20,-1
896 -128 m 1,24,-1
 896 -64 l 1,25,-1
 832 -64 l 1,26,-1
 832 -128 l 1,27,-1
 896 -128 l 1,24,-1
1024 -128 m 1,28,-1
 1024 -64 l 1,29,-1
 960 -64 l 1,30,-1
 960 -128 l 1,31,-1
 1024 -128 l 1,28,-1
1024 0 m 1,32,-1
 1024 64 l 1,33,-1
 960 64 l 1,34,-1
 960 0 l 1,35,-1
 1024 0 l 1,32,-1
64 64 m 1,36,-1
 64 128 l 1,37,-1
 0 128 l 1,38,-1
 0 64 l 1,39,-1
 64 64 l 1,36,-1
1024 128 m 1,40,-1
 1024 192 l 1,41,-1
 960 192 l 1,42,-1
 960 128 l 1,43,-1
 1024 128 l 1,40,-1
640 256 m 1,44,-1
 640 320 l 1,45,-1
 448 320 l 1,46,-1
 448 384 l 1,47,-1
 640 384 l 1,48,-1
 640 448 l 1,49,-1
 448 448 l 1,50,-1
 448 512 l 1,51,-1
 640 512 l 1,52,-1
 640 576 l 1,53,-1
 384 576 l 1,54,-1
 384 256 l 1,55,-1
 640 256 l 1,44,-1
1024 256 m 1,56,-1
 1024 320 l 1,57,-1
 768 320 l 1,58,59
 768 320 768 320 768 576 c 1,60,-1
 704 576 l 1,61,-1
 704 256 l 1,62,-1
 1024 256 l 1,56,-1
320 320 m 1,63,-1
 320 384 l 1,64,-1
 256 384 l 1,65,-1
 256 320 l 1,66,-1
 128 320 l 1,67,-1
 128 384 l 1,68,-1
 256 384 l 1,69,-1
 256 448 l 1,70,-1
 128 448 l 1,71,-1
 128 512 l 1,72,-1
 256 512 l 1,73,-1
 256 448 l 1,74,-1
 320 448 l 1,75,-1
 320 512 l 1,76,-1
 256 512 l 1,77,-1
 256 576 l 1,78,-1
 64 576 l 1,79,-1
 64 512 l 1,80,-1
 0 512 l 1,81,-1
 0 448 l 1,82,-1
 64 448 l 1,83,-1
 64 384 l 1,84,-1
 0 384 l 1,85,-1
 0 320 l 1,86,-1
 64 320 l 1,87,-1
 64 256 l 1,88,-1
 0 256 l 1,89,-1
 0 192 l 1,90,-1
 64 192 l 1,91,-1
 64 256 l 1,92,-1
 256 256 l 1,93,-1
 256 320 l 1,94,-1
 320 320 l 1,63,-1
1024 384 m 1,95,-1
 1024 448 l 1,96,-1
 960 448 l 1,97,-1
 960 384 l 1,98,-1
 1024 384 l 1,95,-1
1024 512 m 1,99,-1
 1024 576 l 1,100,-1
 960 576 l 1,101,-1
 960 512 l 1,102,-1
 1024 512 l 1,99,-1
1024 640 m 1,103,-1
 1024 704 l 1,104,-1
 960 704 l 1,105,-1
 960 640 l 1,106,-1
 1024 640 l 1,103,-1
64 704 m 1,107,-1
 64 768 l 1,108,-1
 0 768 l 1,109,-1
 0 704 l 1,110,-1
 64 704 l 1,107,-1
1024 768 m 1,111,-1
 1024 832 l 1,112,-1
 960 832 l 1,113,-1
 960 768 l 1,114,-1
 1024 768 l 1,111,-1
64 832 m 1,115,-1
 64 896 l 1,116,-1
 0 896 l 1,117,-1
 0 832 l 1,118,-1
 64 832 l 1,115,-1
192 832 m 1,119,-1
 192 896 l 1,120,-1
 128 896 l 1,121,-1
 128 832 l 1,122,-1
 192 832 l 1,119,-1
320 832 m 1,123,-1
 320 896 l 1,124,-1
 256 896 l 1,125,-1
 256 832 l 1,126,-1
 320 832 l 1,123,-1
448 832 m 1,127,-1
 448 896 l 1,128,-1
 384 896 l 1,129,-1
 384 832 l 1,130,-1
 448 832 l 1,127,-1
576 832 m 1,131,-1
 576 896 l 1,132,-1
 512 896 l 1,133,-1
 512 832 l 1,134,-1
 576 832 l 1,131,-1
704 832 m 1,135,-1
 704 896 l 1,136,-1
 640 896 l 1,137,-1
 640 832 l 1,138,-1
 704 832 l 1,135,-1
832 832 m 1,139,-1
 832 896 l 1,140,-1
 768 896 l 1,141,-1
 768 832 l 1,142,-1
 832 832 l 1,139,-1
64 -64 m 1,143,-1
 64 0 l 1,144,-1
 0 0 l 1,145,-1
 0 -64 l 1,146,-1
 64 -64 l 1,143,-1
64 576 m 1,147,-1
 64 640 l 1,148,-1
 0 640 l 1,149,-1
 0 576 l 1,150,-1
 64 576 l 1,147,-1
960 832 m 1,151,-1
 960 896 l 1,152,-1
 896 896 l 1,153,-1
 896 832 l 1,154,-1
 960 832 l 1,151,-1
EndSplineSet
EndChar

StartChar: uni0008
Encoding: 8 8 8
Width: 1024
GlyphClass: 2
Flags: W
LayerCount: 2
Fore
SplineSet
128 -128 m 1,0,-1
 128 -64 l 1,1,-1
 64 -64 l 1,2,-1
 64 -128 l 1,3,-1
 128 -128 l 1,0,-1
256 -128 m 1,4,-1
 256 -64 l 1,5,-1
 192 -64 l 1,6,-1
 192 -128 l 1,7,-1
 256 -128 l 1,4,-1
384 -128 m 1,8,-1
 384 -64 l 1,9,-1
 320 -64 l 1,10,-1
 320 -128 l 1,11,-1
 384 -128 l 1,8,-1
512 -128 m 1,12,-1
 512 -64 l 1,13,-1
 448 -64 l 1,14,-1
 448 -128 l 1,15,-1
 512 -128 l 1,12,-1
640 -128 m 1,16,-1
 640 -64 l 1,17,-1
 576 -64 l 1,18,-1
 576 -128 l 1,19,-1
 640 -128 l 1,16,-1
768 -128 m 1,20,-1
 768 -64 l 1,21,-1
 704 -64 l 1,22,-1
 704 -128 l 1,23,-1
 768 -128 l 1,20,-1
896 -128 m 1,24,-1
 896 -64 l 1,25,-1
 832 -64 l 1,26,-1
 832 -128 l 1,27,-1
 896 -128 l 1,24,-1
1024 -128 m 1,28,-1
 1024 -64 l 1,29,-1
 960 -64 l 1,30,-1
 960 -128 l 1,31,-1
 1024 -128 l 1,28,-1
1024 0 m 1,32,-1
 1024 64 l 1,33,-1
 960 64 l 1,34,-1
 960 0 l 1,35,-1
 1024 0 l 1,32,-1
64 64 m 1,36,-1
 64 128 l 1,37,-1
 0 128 l 1,38,-1
 0 64 l 1,39,-1
 64 64 l 1,36,-1
1024 128 m 1,40,-1
 1024 192 l 1,41,-1
 960 192 l 1,42,-1
 960 128 l 1,43,-1
 1024 128 l 1,40,-1
64 192 m 1,44,-1
 64 256 l 1,45,-1
 0 256 l 1,46,-1
 0 192 l 1,47,-1
 64 192 l 1,44,-1
1024 256 m 1,48,-1
 1024 320 l 1,49,-1
 960 320 l 1,50,-1
 960 256 l 1,51,-1
 1024 256 l 1,48,-1
64 320 m 1,52,-1
 64 384 l 1,53,-1
 0 384 l 1,54,-1
 0 320 l 1,55,-1
 64 320 l 1,52,-1
512 320 m 1,56,-1
 512 384 l 1,57,-1
 448 384 l 1,58,-1
 448 320 l 1,59,-1
 256 320 l 1,60,-1
 256 384 l 1,61,-1
 448 384 l 1,62,-1
 448 448 l 1,63,-1
 256 448 l 1,64,-1
 256 512 l 1,65,-1
 448 512 l 1,66,-1
 448 448 l 1,67,-1
 512 448 l 1,68,-1
 512 512 l 1,69,-1
 448 512 l 1,70,-1
 448 576 l 1,71,-1
 192 576 l 1,72,-1
 192 256 l 1,73,-1
 448 256 l 1,74,-1
 448 320 l 1,75,-1
 512 320 l 1,56,-1
832 320 m 1,76,-1
 832 384 l 1,77,-1
 768 384 l 1,78,-1
 768 320 l 1,79,-1
 576 320 l 1,80,-1
 576 256 l 1,81,-1
 768 256 l 1,82,-1
 768 320 l 1,83,-1
 832 320 l 1,76,-1
1024 384 m 1,84,-1
 1024 448 l 1,85,-1
 960 448 l 1,86,-1
 960 384 l 1,87,-1
 1024 384 l 1,84,-1
64 448 m 1,88,-1
 64 512 l 1,89,-1
 0 512 l 1,90,-1
 0 448 l 1,91,-1
 64 448 l 1,88,-1
832 512 m 1,92,-1
 832 576 l 1,93,-1
 640 576 l 1,94,-1
 640 512 l 1,95,-1
 576 512 l 1,96,-1
 576 448 l 1,97,-1
 640 448 l 1,98,-1
 640 384 l 1,99,-1
 768 384 l 1,100,-1
 768 448 l 1,101,-1
 640 448 l 1,102,-1
 640 512 l 1,103,-1
 832 512 l 1,92,-1
1024 512 m 1,104,-1
 1024 576 l 1,105,-1
 960 576 l 1,106,-1
 960 512 l 1,107,-1
 1024 512 l 1,104,-1
64 576 m 1,108,-1
 64 640 l 1,109,-1
 0 640 l 1,110,-1
 0 576 l 1,111,-1
 64 576 l 1,108,-1
1024 640 m 1,112,-1
 1024 704 l 1,113,-1
 960 704 l 1,114,-1
 960 640 l 1,115,-1
 1024 640 l 1,112,-1
64 704 m 1,116,-1
 64 768 l 1,117,-1
 0 768 l 1,118,-1
 0 704 l 1,119,-1
 64 704 l 1,116,-1
1024 768 m 1,120,-1
 1024 832 l 1,121,-1
 960 832 l 1,122,-1
 960 768 l 1,123,-1
 1024 768 l 1,120,-1
64 832 m 1,124,-1
 64 896 l 1,125,-1
 0 896 l 1,126,-1
 0 832 l 1,127,-1
 64 832 l 1,124,-1
192 832 m 1,128,-1
 192 896 l 1,129,-1
 128 896 l 1,130,-1
 128 832 l 1,131,-1
 192 832 l 1,128,-1
320 832 m 1,132,-1
 320 896 l 1,133,-1
 256 896 l 1,134,-1
 256 832 l 1,135,-1
 320 832 l 1,132,-1
448 832 m 1,136,-1
 448 896 l 1,137,-1
 384 896 l 1,138,-1
 384 832 l 1,139,-1
 448 832 l 1,136,-1
576 832 m 1,140,-1
 576 896 l 1,141,-1
 512 896 l 1,142,-1
 512 832 l 1,143,-1
 576 832 l 1,140,-1
704 832 m 1,144,-1
 704 896 l 1,145,-1
 640 896 l 1,146,-1
 640 832 l 1,147,-1
 704 832 l 1,144,-1
832 832 m 1,148,-1
 832 896 l 1,149,-1
 768 896 l 1,150,-1
 768 832 l 1,151,-1
 832 832 l 1,148,-1
64 -64 m 1,152,-1
 64 0 l 1,153,-1
 0 0 l 1,154,-1
 0 -64 l 1,155,-1
 64 -64 l 1,152,-1
960 832 m 1,156,-1
 960 896 l 1,157,-1
 896 896 l 1,158,-1
 896 832 l 1,159,-1
 960 832 l 1,156,-1
EndSplineSet
EndChar

StartChar: uni0009
Encoding: 9 9 9
Width: 1024
GlyphClass: 2
Flags: W
LayerCount: 2
Fore
SplineSet
128 -128 m 1,0,-1
 128 -64 l 1,1,-1
 64 -64 l 1,2,-1
 64 -128 l 1,3,-1
 128 -128 l 1,0,-1
256 -128 m 1,4,-1
 256 -64 l 1,5,-1
 192 -64 l 1,6,-1
 192 -128 l 1,7,-1
 256 -128 l 1,4,-1
384 -128 m 1,8,-1
 384 -64 l 1,9,-1
 320 -64 l 1,10,-1
 320 -128 l 1,11,-1
 384 -128 l 1,8,-1
512 -128 m 1,12,-1
 512 -64 l 1,13,-1
 448 -64 l 1,14,-1
 448 -128 l 1,15,-1
 512 -128 l 1,12,-1
640 -128 m 1,16,-1
 640 -64 l 1,17,-1
 576 -64 l 1,18,-1
 576 -128 l 1,19,-1
 640 -128 l 1,16,-1
768 -128 m 1,20,-1
 768 -64 l 1,21,-1
 704 -64 l 1,22,-1
 704 -128 l 1,23,-1
 768 -128 l 1,20,-1
896 -128 m 1,24,-1
 896 -64 l 1,25,-1
 832 -64 l 1,26,-1
 832 -128 l 1,27,-1
 896 -128 l 1,24,-1
1024 -128 m 1,28,-1
 1024 -64 l 1,29,-1
 960 -64 l 1,30,-1
 960 -128 l 1,31,-1
 1024 -128 l 1,28,-1
1024 0 m 1,32,-1
 1024 64 l 1,33,-1
 960 64 l 1,34,-1
 960 0 l 1,35,-1
 1024 0 l 1,32,-1
64 64 m 1,36,-1
 64 128 l 1,37,-1
 0 128 l 1,38,-1
 0 64 l 1,39,-1
 64 64 l 1,36,-1
1024 128 m 1,40,-1
 1024 192 l 1,41,-1
 960 192 l 1,42,-1
 960 128 l 1,43,-1
 1024 128 l 1,40,-1
64 192 m 1,44,-1
 64 256 l 1,45,-1
 0 256 l 1,46,-1
 0 192 l 1,47,-1
 64 192 l 1,44,-1
1024 256 m 1,48,-1
 1024 320 l 1,49,-1
 960 320 l 1,50,-1
 960 256 l 1,51,-1
 1024 256 l 1,48,-1
64 320 m 1,52,-1
 64 384 l 1,53,-1
 0 384 l 1,54,-1
 0 320 l 1,55,-1
 64 320 l 1,52,-1
1024 384 m 1,56,-1
 1024 448 l 1,57,-1
 960 448 l 1,58,-1
 960 384 l 1,59,-1
 1024 384 l 1,56,-1
64 448 m 1,60,-1
 64 512 l 1,61,-1
 0 512 l 1,62,-1
 0 448 l 1,63,-1
 64 448 l 1,60,-1
832 512 m 1,64,-1
 832 576 l 1,65,-1
 512 576 l 1,66,-1
 512 512 l 1,67,-1
 640 512 l 1,68,69
 640 512 640 512 640 256 c 1,70,-1
 704 256 l 1,71,72
 704 256 704 256 704 512 c 1,73,-1
 832 512 l 1,64,-1
1024 512 m 1,74,-1
 1024 576 l 1,75,-1
 960 576 l 1,76,-1
 960 512 l 1,77,-1
 1024 512 l 1,74,-1
64 576 m 1,78,-1
 64 640 l 1,79,-1
 0 640 l 1,80,-1
 0 576 l 1,81,-1
 64 576 l 1,78,-1
1024 640 m 1,82,-1
 1024 704 l 1,83,-1
 960 704 l 1,84,-1
 960 640 l 1,85,-1
 1024 640 l 1,82,-1
64 704 m 1,86,-1
 64 768 l 1,87,-1
 0 768 l 1,88,-1
 0 704 l 1,89,-1
 64 704 l 1,86,-1
1024 768 m 1,90,-1
 1024 832 l 1,91,-1
 960 832 l 1,92,-1
 960 768 l 1,93,-1
 1024 768 l 1,90,-1
64 832 m 1,94,-1
 64 896 l 1,95,-1
 0 896 l 1,96,-1
 0 832 l 1,97,-1
 64 832 l 1,94,-1
192 832 m 1,98,-1
 192 896 l 1,99,-1
 128 896 l 1,100,-1
 128 832 l 1,101,-1
 192 832 l 1,98,-1
320 832 m 1,102,-1
 320 896 l 1,103,-1
 256 896 l 1,104,-1
 256 832 l 1,105,-1
 320 832 l 1,102,-1
448 832 m 1,106,-1
 448 896 l 1,107,-1
 384 896 l 1,108,-1
 384 832 l 1,109,-1
 448 832 l 1,106,-1
576 832 m 1,110,-1
 576 896 l 1,111,-1
 512 896 l 1,112,-1
 512 832 l 1,113,-1
 576 832 l 1,110,-1
704 832 m 1,114,-1
 704 896 l 1,115,-1
 640 896 l 1,116,-1
 640 832 l 1,117,-1
 704 832 l 1,114,-1
832 832 m 1,118,-1
 832 896 l 1,119,-1
 768 896 l 1,120,-1
 768 832 l 1,121,-1
 832 832 l 1,118,-1
64 -64 m 1,122,-1
 64 0 l 1,123,-1
 0 0 l 1,124,-1
 0 -64 l 1,125,-1
 64 -64 l 1,122,-1
128 576 m 1,126,-1
 128 256 l 1,127,-1
 192 256 l 1,128,129
 192 256 192 256 192 384 c 1,130,-1
 384 384 l 1,131,132
 384 384 384 384 384 256 c 1,133,-1
 448 256 l 1,134,-1
 448 576 l 1,135,-1
 384 576 l 1,136,137
 384 576 384 576 384 448 c 1,138,-1
 192 448 l 1,139,140
 192 448 192 448 192 576 c 1,141,-1
 128 576 l 1,126,-1
960 832 m 1,142,-1
 960 896 l 1,143,-1
 896 896 l 1,144,-1
 896 832 l 1,145,-1
 960 832 l 1,142,-1
EndSplineSet
EndChar

StartChar: uni000A
Encoding: 10 10 10
Width: 1024
GlyphClass: 2
Flags: W
LayerCount: 2
Fore
SplineSet
128 -128 m 1,0,-1
 128 -64 l 1,1,-1
 64 -64 l 1,2,-1
 64 -128 l 1,3,-1
 128 -128 l 1,0,-1
256 -128 m 1,4,-1
 256 -64 l 1,5,-1
 192 -64 l 1,6,-1
 192 -128 l 1,7,-1
 256 -128 l 1,4,-1
384 -128 m 1,8,-1
 384 -64 l 1,9,-1
 320 -64 l 1,10,-1
 320 -128 l 1,11,-1
 384 -128 l 1,8,-1
512 -128 m 1,12,-1
 512 -64 l 1,13,-1
 448 -64 l 1,14,-1
 448 -128 l 1,15,-1
 512 -128 l 1,12,-1
640 -128 m 1,16,-1
 640 -64 l 1,17,-1
 576 -64 l 1,18,-1
 576 -128 l 1,19,-1
 640 -128 l 1,16,-1
768 -128 m 1,20,-1
 768 -64 l 1,21,-1
 704 -64 l 1,22,-1
 704 -128 l 1,23,-1
 768 -128 l 1,20,-1
896 -128 m 1,24,-1
 896 -64 l 1,25,-1
 832 -64 l 1,26,-1
 832 -128 l 1,27,-1
 896 -128 l 1,24,-1
1024 -128 m 1,28,-1
 1024 -64 l 1,29,-1
 960 -64 l 1,30,-1
 960 -128 l 1,31,-1
 1024 -128 l 1,28,-1
1024 0 m 1,32,-1
 1024 64 l 1,33,-1
 960 64 l 1,34,-1
 960 0 l 1,35,-1
 1024 0 l 1,32,-1
64 64 m 1,36,-1
 64 128 l 1,37,-1
 0 128 l 1,38,-1
 0 64 l 1,39,-1
 64 64 l 1,36,-1
1024 128 m 1,40,-1
 1024 192 l 1,41,-1
 960 192 l 1,42,-1
 960 128 l 1,43,-1
 1024 128 l 1,40,-1
64 192 m 1,44,-1
 64 256 l 1,45,-1
 0 256 l 1,46,-1
 0 192 l 1,47,-1
 64 192 l 1,44,-1
448 256 m 1,48,-1
 448 320 l 1,49,-1
 192 320 l 1,50,51
 192 320 192 320 192 576 c 1,52,-1
 128 576 l 1,53,-1
 128 256 l 1,54,-1
 448 256 l 1,48,-1
1024 256 m 1,55,-1
 1024 320 l 1,56,-1
 960 320 l 1,57,-1
 960 256 l 1,58,-1
 1024 256 l 1,55,-1
64 320 m 1,59,-1
 64 384 l 1,60,-1
 0 384 l 1,61,-1
 0 320 l 1,62,-1
 64 320 l 1,59,-1
832 384 m 1,63,-1
 832 448 l 1,64,-1
 576 448 l 1,65,-1
 576 512 l 1,66,-1
 832 512 l 1,67,-1
 832 576 l 1,68,-1
 512 576 l 1,69,-1
 512 256 l 1,70,-1
 576 256 l 1,71,72
 576 256 576 256 576 384 c 1,73,-1
 832 384 l 1,63,-1
1024 384 m 1,74,-1
 1024 448 l 1,75,-1
 960 448 l 1,76,-1
 960 384 l 1,77,-1
 1024 384 l 1,74,-1
64 448 m 1,78,-1
 64 512 l 1,79,-1
 0 512 l 1,80,-1
 0 448 l 1,81,-1
 64 448 l 1,78,-1
1024 512 m 1,82,-1
 1024 576 l 1,83,-1
 960 576 l 1,84,-1
 960 512 l 1,85,-1
 1024 512 l 1,82,-1
64 576 m 1,86,-1
 64 640 l 1,87,-1
 0 640 l 1,88,-1
 0 576 l 1,89,-1
 64 576 l 1,86,-1
1024 640 m 1,90,-1
 1024 704 l 1,91,-1
 960 704 l 1,92,-1
 960 640 l 1,93,-1
 1024 640 l 1,90,-1
64 704 m 1,94,-1
 64 768 l 1,95,-1
 0 768 l 1,96,-1
 0 704 l 1,97,-1
 64 704 l 1,94,-1
1024 768 m 1,98,-1
 1024 832 l 1,99,-1
 960 832 l 1,100,-1
 960 768 l 1,101,-1
 1024 768 l 1,98,-1
64 832 m 1,102,-1
 64 896 l 1,103,-1
 0 896 l 1,104,-1
 0 832 l 1,105,-1
 64 832 l 1,102,-1
192 832 m 1,106,-1
 192 896 l 1,107,-1
 128 896 l 1,108,-1
 128 832 l 1,109,-1
 192 832 l 1,106,-1
320 832 m 1,110,-1
 320 896 l 1,111,-1
 256 896 l 1,112,-1
 256 832 l 1,113,-1
 320 832 l 1,110,-1
448 832 m 1,114,-1
 448 896 l 1,115,-1
 384 896 l 1,116,-1
 384 832 l 1,117,-1
 448 832 l 1,114,-1
576 832 m 1,118,-1
 576 896 l 1,119,-1
 512 896 l 1,120,-1
 512 832 l 1,121,-1
 576 832 l 1,118,-1
704 832 m 1,122,-1
 704 896 l 1,123,-1
 640 896 l 1,124,-1
 640 832 l 1,125,-1
 704 832 l 1,122,-1
832 832 m 1,126,-1
 832 896 l 1,127,-1
 768 896 l 1,128,-1
 768 832 l 1,129,-1
 832 832 l 1,126,-1
64 -64 m 1,130,-1
 64 0 l 1,131,-1
 0 0 l 1,132,-1
 0 -64 l 1,133,-1
 64 -64 l 1,130,-1
960 832 m 1,134,-1
 960 896 l 1,135,-1
 896 896 l 1,136,-1
 896 832 l 1,137,-1
 960 832 l 1,134,-1
EndSplineSet
EndChar

StartChar: uni000B
Encoding: 11 11 11
Width: 1024
GlyphClass: 2
Flags: W
LayerCount: 2
Fore
SplineSet
128 -128 m 1,0,-1
 128 -64 l 1,1,-1
 64 -64 l 1,2,-1
 64 -128 l 1,3,-1
 128 -128 l 1,0,-1
256 -128 m 1,4,-1
 256 -64 l 1,5,-1
 192 -64 l 1,6,-1
 192 -128 l 1,7,-1
 256 -128 l 1,4,-1
384 -128 m 1,8,-1
 384 -64 l 1,9,-1
 320 -64 l 1,10,-1
 320 -128 l 1,11,-1
 384 -128 l 1,8,-1
512 -128 m 1,12,-1
 512 -64 l 1,13,-1
 448 -64 l 1,14,-1
 448 -128 l 1,15,-1
 512 -128 l 1,12,-1
640 -128 m 1,16,-1
 640 -64 l 1,17,-1
 576 -64 l 1,18,-1
 576 -128 l 1,19,-1
 640 -128 l 1,16,-1
768 -128 m 1,20,-1
 768 -64 l 1,21,-1
 704 -64 l 1,22,-1
 704 -128 l 1,23,-1
 768 -128 l 1,20,-1
896 -128 m 1,24,-1
 896 -64 l 1,25,-1
 832 -64 l 1,26,-1
 832 -128 l 1,27,-1
 896 -128 l 1,24,-1
1024 -128 m 1,28,-1
 1024 -64 l 1,29,-1
 960 -64 l 1,30,-1
 960 -128 l 1,31,-1
 1024 -128 l 1,28,-1
1024 0 m 1,32,-1
 1024 64 l 1,33,-1
 960 64 l 1,34,-1
 960 0 l 1,35,-1
 1024 0 l 1,32,-1
64 64 m 1,36,-1
 64 128 l 1,37,-1
 0 128 l 1,38,-1
 0 64 l 1,39,-1
 64 64 l 1,36,-1
1024 128 m 1,40,-1
 1024 192 l 1,41,-1
 960 192 l 1,42,-1
 960 128 l 1,43,-1
 1024 128 l 1,40,-1
64 192 m 1,44,-1
 64 256 l 1,45,-1
 0 256 l 1,46,-1
 0 192 l 1,47,-1
 64 192 l 1,44,-1
1024 256 m 1,48,-1
 1024 320 l 1,49,-1
 960 320 l 1,50,-1
 960 256 l 1,51,-1
 1024 256 l 1,48,-1
64 320 m 1,52,-1
 64 384 l 1,53,-1
 0 384 l 1,54,-1
 0 320 l 1,55,-1
 64 320 l 1,52,-1
1024 384 m 1,56,-1
 1024 448 l 1,57,-1
 960 448 l 1,58,-1
 960 384 l 1,59,-1
 1024 384 l 1,56,-1
64 448 m 1,60,-1
 64 512 l 1,61,-1
 0 512 l 1,62,-1
 0 448 l 1,63,-1
 64 448 l 1,60,-1
832 512 m 1,64,-1
 832 576 l 1,65,-1
 512 576 l 1,66,-1
 512 512 l 1,67,-1
 640 512 l 1,68,69
 640 512 640 512 640 256 c 1,70,-1
 704 256 l 1,71,72
 704 256 704 256 704 512 c 1,73,-1
 832 512 l 1,64,-1
1024 512 m 1,74,-1
 1024 576 l 1,75,-1
 960 576 l 1,76,-1
 960 512 l 1,77,-1
 1024 512 l 1,74,-1
64 576 m 1,78,-1
 64 640 l 1,79,-1
 0 640 l 1,80,-1
 0 576 l 1,81,-1
 64 576 l 1,78,-1
1024 640 m 1,82,-1
 1024 704 l 1,83,-1
 960 704 l 1,84,-1
 960 640 l 1,85,-1
 1024 640 l 1,82,-1
64 704 m 1,86,-1
 64 768 l 1,87,-1
 0 768 l 1,88,-1
 0 704 l 1,89,-1
 64 704 l 1,86,-1
1024 768 m 1,90,-1
 1024 832 l 1,91,-1
 960 832 l 1,92,-1
 960 768 l 1,93,-1
 1024 768 l 1,90,-1
64 832 m 1,94,-1
 64 896 l 1,95,-1
 0 896 l 1,96,-1
 0 832 l 1,97,-1
 64 832 l 1,94,-1
192 832 m 1,98,-1
 192 896 l 1,99,-1
 128 896 l 1,100,-1
 128 832 l 1,101,-1
 192 832 l 1,98,-1
320 832 m 1,102,-1
 320 896 l 1,103,-1
 256 896 l 1,104,-1
 256 832 l 1,105,-1
 320 832 l 1,102,-1
448 832 m 1,106,-1
 448 896 l 1,107,-1
 384 896 l 1,108,-1
 384 832 l 1,109,-1
 448 832 l 1,106,-1
576 832 m 1,110,-1
 576 896 l 1,111,-1
 512 896 l 1,112,-1
 512 832 l 1,113,-1
 576 832 l 1,110,-1
704 832 m 1,114,-1
 704 896 l 1,115,-1
 640 896 l 1,116,-1
 640 832 l 1,117,-1
 704 832 l 1,114,-1
832 832 m 1,118,-1
 832 896 l 1,119,-1
 768 896 l 1,120,-1
 768 832 l 1,121,-1
 832 832 l 1,118,-1
64 -64 m 1,122,-1
 64 0 l 1,123,-1
 0 0 l 1,124,-1
 0 -64 l 1,125,-1
 64 -64 l 1,122,-1
256 320 m 1,126,-1
 256 256 l 1,127,-1
 320 256 l 1,128,-1
 320 320 l 1,129,-1
 256 320 l 1,126,-1
256 320 m 1,130,-1
 256 384 l 1,131,-1
 192 384 l 1,132,-1
 192 320 l 1,133,-1
 256 320 l 1,130,-1
320 320 m 1,134,-1
 384 320 l 1,135,-1
 384 384 l 1,136,-1
 320 384 l 1,137,-1
 320 320 l 1,134,-1
192 384 m 1,138,-1
 192 576 l 1,139,-1
 128 576 l 1,140,-1
 128 384 l 1,141,-1
 192 384 l 1,138,-1
384 384 m 1,142,-1
 448 384 l 1,143,-1
 448 576 l 1,144,-1
 384 576 l 1,145,-1
 384 384 l 1,142,-1
960 832 m 1,146,-1
 960 896 l 1,147,-1
 896 896 l 1,148,-1
 896 832 l 1,149,-1
 960 832 l 1,146,-1
EndSplineSet
EndChar

StartChar: uni000C
Encoding: 12 12 12
Width: 1024
GlyphClass: 2
Flags: W
LayerCount: 2
Fore
SplineSet
128 -128 m 1,0,-1
 128 -64 l 1,1,-1
 64 -64 l 1,2,-1
 64 -128 l 1,3,-1
 128 -128 l 1,0,-1
256 -128 m 1,4,-1
 256 -64 l 1,5,-1
 192 -64 l 1,6,-1
 192 -128 l 1,7,-1
 256 -128 l 1,4,-1
384 -128 m 1,8,-1
 384 -64 l 1,9,-1
 320 -64 l 1,10,-1
 320 -128 l 1,11,-1
 384 -128 l 1,8,-1
512 -128 m 1,12,-1
 512 -64 l 1,13,-1
 448 -64 l 1,14,-1
 448 -128 l 1,15,-1
 512 -128 l 1,12,-1
640 -128 m 1,16,-1
 640 -64 l 1,17,-1
 576 -64 l 1,18,-1
 576 -128 l 1,19,-1
 640 -128 l 1,16,-1
768 -128 m 1,20,-1
 768 -64 l 1,21,-1
 704 -64 l 1,22,-1
 704 -128 l 1,23,-1
 768 -128 l 1,20,-1
896 -128 m 1,24,-1
 896 -64 l 1,25,-1
 832 -64 l 1,26,-1
 832 -128 l 1,27,-1
 896 -128 l 1,24,-1
1024 -128 m 1,28,-1
 1024 -64 l 1,29,-1
 960 -64 l 1,30,-1
 960 -128 l 1,31,-1
 1024 -128 l 1,28,-1
1024 0 m 1,32,-1
 1024 64 l 1,33,-1
 960 64 l 1,34,-1
 960 0 l 1,35,-1
 1024 0 l 1,32,-1
64 64 m 1,36,-1
 64 128 l 1,37,-1
 0 128 l 1,38,-1
 0 64 l 1,39,-1
 64 64 l 1,36,-1
1024 128 m 1,40,-1
 1024 192 l 1,41,-1
 960 192 l 1,42,-1
 960 128 l 1,43,-1
 1024 128 l 1,40,-1
64 192 m 1,44,-1
 64 256 l 1,45,-1
 0 256 l 1,46,-1
 0 192 l 1,47,-1
 64 192 l 1,44,-1
1024 256 m 1,48,-1
 1024 320 l 1,49,-1
 960 320 l 1,50,-1
 960 256 l 1,51,-1
 1024 256 l 1,48,-1
64 320 m 1,52,-1
 64 384 l 1,53,-1
 0 384 l 1,54,-1
 0 320 l 1,55,-1
 64 320 l 1,52,-1
448 384 m 1,56,-1
 448 448 l 1,57,-1
 192 448 l 1,58,-1
 192 512 l 1,59,-1
 448 512 l 1,60,-1
 448 576 l 1,61,-1
 128 576 l 1,62,-1
 128 256 l 1,63,-1
 192 256 l 1,64,65
 192 256 192 256 192 384 c 1,66,-1
 448 384 l 1,56,-1
832 384 m 1,67,-1
 832 448 l 1,68,-1
 576 448 l 1,69,-1
 576 512 l 1,70,-1
 832 512 l 1,71,-1
 832 576 l 1,72,-1
 512 576 l 1,73,-1
 512 256 l 1,74,-1
 576 256 l 1,75,76
 576 256 576 256 576 384 c 1,77,-1
 832 384 l 1,67,-1
1024 384 m 1,78,-1
 1024 448 l 1,79,-1
 960 448 l 1,80,-1
 960 384 l 1,81,-1
 1024 384 l 1,78,-1
64 448 m 1,82,-1
 64 512 l 1,83,-1
 0 512 l 1,84,-1
 0 448 l 1,85,-1
 64 448 l 1,82,-1
1024 512 m 1,86,-1
 1024 576 l 1,87,-1
 960 576 l 1,88,-1
 960 512 l 1,89,-1
 1024 512 l 1,86,-1
64 576 m 1,90,-1
 64 640 l 1,91,-1
 0 640 l 1,92,-1
 0 576 l 1,93,-1
 64 576 l 1,90,-1
1024 640 m 1,94,-1
 1024 704 l 1,95,-1
 960 704 l 1,96,-1
 960 640 l 1,97,-1
 1024 640 l 1,94,-1
64 704 m 1,98,-1
 64 768 l 1,99,-1
 0 768 l 1,100,-1
 0 704 l 1,101,-1
 64 704 l 1,98,-1
1024 768 m 1,102,-1
 1024 832 l 1,103,-1
 960 832 l 1,104,-1
 960 768 l 1,105,-1
 1024 768 l 1,102,-1
64 832 m 1,106,-1
 64 896 l 1,107,-1
 0 896 l 1,108,-1
 0 832 l 1,109,-1
 64 832 l 1,106,-1
192 832 m 1,110,-1
 192 896 l 1,111,-1
 128 896 l 1,112,-1
 128 832 l 1,113,-1
 192 832 l 1,110,-1
320 832 m 1,114,-1
 320 896 l 1,115,-1
 256 896 l 1,116,-1
 256 832 l 1,117,-1
 320 832 l 1,114,-1
448 832 m 1,118,-1
 448 896 l 1,119,-1
 384 896 l 1,120,-1
 384 832 l 1,121,-1
 448 832 l 1,118,-1
576 832 m 1,122,-1
 576 896 l 1,123,-1
 512 896 l 1,124,-1
 512 832 l 1,125,-1
 576 832 l 1,122,-1
704 832 m 1,126,-1
 704 896 l 1,127,-1
 640 896 l 1,128,-1
 640 832 l 1,129,-1
 704 832 l 1,126,-1
832 832 m 1,130,-1
 832 896 l 1,131,-1
 768 896 l 1,132,-1
 768 832 l 1,133,-1
 832 832 l 1,130,-1
64 -64 m 1,134,-1
 64 0 l 1,135,-1
 0 0 l 1,136,-1
 0 -64 l 1,137,-1
 64 -64 l 1,134,-1
960 832 m 1,138,-1
 960 896 l 1,139,-1
 896 896 l 1,140,-1
 896 832 l 1,141,-1
 960 832 l 1,138,-1
EndSplineSet
EndChar

StartChar: uni000D
Encoding: 13 13 13
Width: 1024
GlyphClass: 2
Flags: W
LayerCount: 2
Fore
SplineSet
128 -128 m 1,0,-1
 128 -64 l 1,1,-1
 64 -64 l 1,2,-1
 64 -128 l 1,3,-1
 128 -128 l 1,0,-1
256 -128 m 1,4,-1
 256 -64 l 1,5,-1
 192 -64 l 1,6,-1
 192 -128 l 1,7,-1
 256 -128 l 1,4,-1
384 -128 m 1,8,-1
 384 -64 l 1,9,-1
 320 -64 l 1,10,-1
 320 -128 l 1,11,-1
 384 -128 l 1,8,-1
512 -128 m 1,12,-1
 512 -64 l 1,13,-1
 448 -64 l 1,14,-1
 448 -128 l 1,15,-1
 512 -128 l 1,12,-1
640 -128 m 1,16,-1
 640 -64 l 1,17,-1
 576 -64 l 1,18,-1
 576 -128 l 1,19,-1
 640 -128 l 1,16,-1
768 -128 m 1,20,-1
 768 -64 l 1,21,-1
 704 -64 l 1,22,-1
 704 -128 l 1,23,-1
 768 -128 l 1,20,-1
896 -128 m 1,24,-1
 896 -64 l 1,25,-1
 832 -64 l 1,26,-1
 832 -128 l 1,27,-1
 896 -128 l 1,24,-1
1024 -128 m 1,28,-1
 1024 -64 l 1,29,-1
 960 -64 l 1,30,-1
 960 -128 l 1,31,-1
 1024 -128 l 1,28,-1
1024 0 m 1,32,-1
 1024 64 l 1,33,-1
 960 64 l 1,34,-1
 960 0 l 1,35,-1
 1024 0 l 1,32,-1
64 64 m 1,36,-1
 64 128 l 1,37,-1
 0 128 l 1,38,-1
 0 64 l 1,39,-1
 64 64 l 1,36,-1
1024 128 m 1,40,-1
 1024 192 l 1,41,-1
 960 192 l 1,42,-1
 960 128 l 1,43,-1
 1024 128 l 1,40,-1
64 192 m 1,44,-1
 64 256 l 1,45,-1
 0 256 l 1,46,-1
 0 192 l 1,47,-1
 64 192 l 1,44,-1
448 256 m 1,48,-1
 448 320 l 1,49,-1
 192 320 l 1,50,-1
 192 256 l 1,51,-1
 448 256 l 1,48,-1
832 256 m 1,52,-1
 832 320 l 1,53,-1
 768 320 l 1,54,-1
 768 256 l 1,55,-1
 832 256 l 1,52,-1
1024 256 m 1,56,-1
 1024 320 l 1,57,-1
 960 320 l 1,58,-1
 960 256 l 1,59,-1
 1024 256 l 1,56,-1
64 320 m 1,60,-1
 64 384 l 1,61,-1
 0 384 l 1,62,-1
 0 320 l 1,63,-1
 64 320 l 1,60,-1
1024 384 m 1,64,-1
 1024 448 l 1,65,-1
 960 448 l 1,66,-1
 960 384 l 1,67,-1
 1024 384 l 1,64,-1
64 448 m 1,68,-1
 64 512 l 1,69,-1
 0 512 l 1,70,-1
 0 448 l 1,71,-1
 64 448 l 1,68,-1
832 448 m 1,72,-1
 832 512 l 1,73,-1
 768 512 l 1,74,-1
 768 448 l 1,75,-1
 576 448 l 1,76,-1
 576 512 l 1,77,-1
 768 512 l 1,78,-1
 768 576 l 1,79,-1
 512 576 l 1,80,-1
 512 256 l 1,81,-1
 576 256 l 1,82,83
 576 256 576 256 576 384 c 1,84,-1
 704 384 l 1,85,-1
 704 320 l 1,86,-1
 768 320 l 1,87,88
 768 320 768 320 768 448 c 1,89,-1
 832 448 l 1,72,-1
448 512 m 1,90,-1
 448 576 l 1,91,-1
 192 576 l 1,92,-1
 192 512 l 1,93,-1
 128 512 l 1,94,-1
 128 320 l 1,95,-1
 192 320 l 1,96,-1
 192 512 l 1,97,-1
 448 512 l 1,90,-1
1024 512 m 1,98,-1
 1024 576 l 1,99,-1
 960 576 l 1,100,-1
 960 512 l 1,101,-1
 1024 512 l 1,98,-1
64 576 m 1,102,-1
 64 640 l 1,103,-1
 0 640 l 1,104,-1
 0 576 l 1,105,-1
 64 576 l 1,102,-1
1024 640 m 1,106,-1
 1024 704 l 1,107,-1
 960 704 l 1,108,-1
 960 640 l 1,109,-1
 1024 640 l 1,106,-1
64 704 m 1,110,-1
 64 768 l 1,111,-1
 0 768 l 1,112,-1
 0 704 l 1,113,-1
 64 704 l 1,110,-1
1024 768 m 1,114,-1
 1024 832 l 1,115,-1
 960 832 l 1,116,-1
 960 768 l 1,117,-1
 1024 768 l 1,114,-1
64 832 m 1,118,-1
 64 896 l 1,119,-1
 0 896 l 1,120,-1
 0 832 l 1,121,-1
 64 832 l 1,118,-1
192 832 m 1,122,-1
 192 896 l 1,123,-1
 128 896 l 1,124,-1
 128 832 l 1,125,-1
 192 832 l 1,122,-1
320 832 m 1,126,-1
 320 896 l 1,127,-1
 256 896 l 1,128,-1
 256 832 l 1,129,-1
 320 832 l 1,126,-1
448 832 m 1,130,-1
 448 896 l 1,131,-1
 384 896 l 1,132,-1
 384 832 l 1,133,-1
 448 832 l 1,130,-1
576 832 m 1,134,-1
 576 896 l 1,135,-1
 512 896 l 1,136,-1
 512 832 l 1,137,-1
 576 832 l 1,134,-1
704 832 m 1,138,-1
 704 896 l 1,139,-1
 640 896 l 1,140,-1
 640 832 l 1,141,-1
 704 832 l 1,138,-1
832 832 m 1,142,-1
 832 896 l 1,143,-1
 768 896 l 1,144,-1
 768 832 l 1,145,-1
 832 832 l 1,142,-1
64 -64 m 1,146,-1
 64 0 l 1,147,-1
 0 0 l 1,148,-1
 0 -64 l 1,149,-1
 64 -64 l 1,146,-1
960 832 m 1,150,-1
 960 896 l 1,151,-1
 896 896 l 1,152,-1
 896 832 l 1,153,-1
 960 832 l 1,150,-1
EndSplineSet
EndChar

StartChar: uni000E
Encoding: 14 14 14
Width: 1024
GlyphClass: 2
Flags: W
LayerCount: 2
Fore
SplineSet
128 -128 m 1,0,-1
 128 -64 l 1,1,-1
 64 -64 l 1,2,-1
 64 -128 l 1,3,-1
 128 -128 l 1,0,-1
256 -128 m 1,4,-1
 256 -64 l 1,5,-1
 192 -64 l 1,6,-1
 192 -128 l 1,7,-1
 256 -128 l 1,4,-1
384 -128 m 1,8,-1
 384 -64 l 1,9,-1
 320 -64 l 1,10,-1
 320 -128 l 1,11,-1
 384 -128 l 1,8,-1
512 -128 m 1,12,-1
 512 -64 l 1,13,-1
 448 -64 l 1,14,-1
 448 -128 l 1,15,-1
 512 -128 l 1,12,-1
640 -128 m 1,16,-1
 640 -64 l 1,17,-1
 576 -64 l 1,18,-1
 576 -128 l 1,19,-1
 640 -128 l 1,16,-1
768 -128 m 1,20,-1
 768 -64 l 1,21,-1
 704 -64 l 1,22,-1
 704 -128 l 1,23,-1
 768 -128 l 1,20,-1
896 -128 m 1,24,-1
 896 -64 l 1,25,-1
 832 -64 l 1,26,-1
 832 -128 l 1,27,-1
 896 -128 l 1,24,-1
1024 -128 m 1,28,-1
 1024 -64 l 1,29,-1
 960 -64 l 1,30,-1
 960 -128 l 1,31,-1
 1024 -128 l 1,28,-1
1024 0 m 1,32,-1
 1024 64 l 1,33,-1
 960 64 l 1,34,-1
 960 0 l 1,35,-1
 1024 0 l 1,32,-1
64 64 m 1,36,-1
 64 128 l 1,37,-1
 0 128 l 1,38,-1
 0 64 l 1,39,-1
 64 64 l 1,36,-1
1024 128 m 1,40,-1
 1024 192 l 1,41,-1
 960 192 l 1,42,-1
 960 128 l 1,43,-1
 1024 128 l 1,40,-1
64 192 m 1,44,-1
 64 256 l 1,45,-1
 0 256 l 1,46,-1
 0 192 l 1,47,-1
 64 192 l 1,44,-1
1024 256 m 1,48,-1
 1024 320 l 1,49,-1
 960 320 l 1,50,-1
 960 256 l 1,51,-1
 1024 256 l 1,48,-1
64 320 m 1,52,-1
 64 384 l 1,53,-1
 0 384 l 1,54,-1
 0 320 l 1,55,-1
 64 320 l 1,52,-1
448 320 m 1,56,-1
 448 384 l 1,57,-1
 384 384 l 1,58,-1
 384 320 l 1,59,-1
 128 320 l 1,60,-1
 128 256 l 1,61,-1
 384 256 l 1,62,-1
 384 320 l 1,63,-1
 448 320 l 1,56,-1
1024 384 m 1,64,-1
 1024 448 l 1,65,-1
 960 448 l 1,66,-1
 960 384 l 1,67,-1
 1024 384 l 1,64,-1
64 448 m 1,68,-1
 64 512 l 1,69,-1
 0 512 l 1,70,-1
 0 448 l 1,71,-1
 64 448 l 1,68,-1
448 512 m 1,72,-1
 448 576 l 1,73,-1
 192 576 l 1,74,-1
 192 512 l 1,75,-1
 128 512 l 1,76,-1
 128 448 l 1,77,-1
 192 448 l 1,78,-1
 192 384 l 1,79,-1
 384 384 l 1,80,-1
 384 448 l 1,81,-1
 192 448 l 1,82,-1
 192 512 l 1,83,-1
 448 512 l 1,72,-1
1024 512 m 1,84,-1
 1024 576 l 1,85,-1
 960 576 l 1,86,-1
 960 512 l 1,87,-1
 1024 512 l 1,84,-1
64 576 m 1,88,-1
 64 640 l 1,89,-1
 0 640 l 1,90,-1
 0 576 l 1,91,-1
 64 576 l 1,88,-1
1024 640 m 1,92,-1
 1024 704 l 1,93,-1
 960 704 l 1,94,-1
 960 640 l 1,95,-1
 1024 640 l 1,92,-1
64 704 m 1,96,-1
 64 768 l 1,97,-1
 0 768 l 1,98,-1
 0 704 l 1,99,-1
 64 704 l 1,96,-1
1024 768 m 1,100,-1
 1024 832 l 1,101,-1
 960 832 l 1,102,-1
 960 768 l 1,103,-1
 1024 768 l 1,100,-1
64 832 m 1,104,-1
 64 896 l 1,105,-1
 0 896 l 1,106,-1
 0 832 l 1,107,-1
 64 832 l 1,104,-1
192 832 m 1,108,-1
 192 896 l 1,109,-1
 128 896 l 1,110,-1
 128 832 l 1,111,-1
 192 832 l 1,108,-1
320 832 m 1,112,-1
 320 896 l 1,113,-1
 256 896 l 1,114,-1
 256 832 l 1,115,-1
 320 832 l 1,112,-1
448 832 m 1,116,-1
 448 896 l 1,117,-1
 384 896 l 1,118,-1
 384 832 l 1,119,-1
 448 832 l 1,116,-1
576 832 m 1,120,-1
 576 896 l 1,121,-1
 512 896 l 1,122,-1
 512 832 l 1,123,-1
 576 832 l 1,120,-1
704 832 m 1,124,-1
 704 896 l 1,125,-1
 640 896 l 1,126,-1
 640 832 l 1,127,-1
 704 832 l 1,124,-1
832 832 m 1,128,-1
 832 896 l 1,129,-1
 768 896 l 1,130,-1
 768 832 l 1,131,-1
 832 832 l 1,128,-1
64 -64 m 1,132,-1
 64 0 l 1,133,-1
 0 0 l 1,134,-1
 0 -64 l 1,135,-1
 64 -64 l 1,132,-1
576 320 m 1,136,-1
 576 256 l 1,137,-1
 768 256 l 1,138,-1
 768 320 l 1,139,-1
 576 320 l 1,136,-1
576 320 m 1,140,-1
 576 512 l 1,141,-1
 512 512 l 1,142,-1
 512 320 l 1,143,-1
 576 320 l 1,140,-1
768 320 m 1,144,-1
 832 320 l 1,145,-1
 832 512 l 1,146,-1
 768 512 l 1,147,-1
 768 320 l 1,144,-1
576 512 m 1,148,-1
 768 512 l 1,149,-1
 768 576 l 1,150,-1
 576 576 l 1,151,-1
 576 512 l 1,148,-1
960 832 m 1,152,-1
 960 896 l 1,153,-1
 896 896 l 1,154,-1
 896 832 l 1,155,-1
 960 832 l 1,152,-1
EndSplineSet
EndChar

StartChar: uni000F
Encoding: 15 15 15
Width: 1024
GlyphClass: 2
Flags: W
LayerCount: 2
Fore
SplineSet
128 -128 m 1,0,-1
 128 -64 l 1,1,-1
 64 -64 l 1,2,-1
 64 -128 l 1,3,-1
 128 -128 l 1,0,-1
256 -128 m 1,4,-1
 256 -64 l 1,5,-1
 192 -64 l 1,6,-1
 192 -128 l 1,7,-1
 256 -128 l 1,4,-1
384 -128 m 1,8,-1
 384 -64 l 1,9,-1
 320 -64 l 1,10,-1
 320 -128 l 1,11,-1
 384 -128 l 1,8,-1
512 -128 m 1,12,-1
 512 -64 l 1,13,-1
 448 -64 l 1,14,-1
 448 -128 l 1,15,-1
 512 -128 l 1,12,-1
640 -128 m 1,16,-1
 640 -64 l 1,17,-1
 576 -64 l 1,18,-1
 576 -128 l 1,19,-1
 640 -128 l 1,16,-1
768 -128 m 1,20,-1
 768 -64 l 1,21,-1
 704 -64 l 1,22,-1
 704 -128 l 1,23,-1
 768 -128 l 1,20,-1
896 -128 m 1,24,-1
 896 -64 l 1,25,-1
 832 -64 l 1,26,-1
 832 -128 l 1,27,-1
 896 -128 l 1,24,-1
1024 -128 m 1,28,-1
 1024 -64 l 1,29,-1
 960 -64 l 1,30,-1
 960 -128 l 1,31,-1
 1024 -128 l 1,28,-1
1024 0 m 1,32,-1
 1024 64 l 1,33,-1
 960 64 l 1,34,-1
 960 0 l 1,35,-1
 1024 0 l 1,32,-1
64 64 m 1,36,-1
 64 128 l 1,37,-1
 0 128 l 1,38,-1
 0 64 l 1,39,-1
 64 64 l 1,36,-1
1024 128 m 1,40,-1
 1024 192 l 1,41,-1
 960 192 l 1,42,-1
 960 128 l 1,43,-1
 1024 128 l 1,40,-1
64 192 m 1,44,-1
 64 256 l 1,45,-1
 0 256 l 1,46,-1
 0 192 l 1,47,-1
 64 192 l 1,44,-1
832 256 m 1,48,-1
 832 320 l 1,49,-1
 704 320 l 1,50,-1
 704 512 l 1,51,-1
 832 512 l 1,52,-1
 832 576 l 1,53,-1
 512 576 l 1,54,-1
 512 512 l 1,55,-1
 640 512 l 1,56,-1
 640 320 l 1,57,-1
 512 320 l 1,58,-1
 512 256 l 1,59,-1
 832 256 l 1,48,-1
1024 256 m 1,60,-1
 1024 320 l 1,61,-1
 960 320 l 1,62,-1
 960 256 l 1,63,-1
 1024 256 l 1,60,-1
64 320 m 1,64,-1
 64 384 l 1,65,-1
 0 384 l 1,66,-1
 0 320 l 1,67,-1
 64 320 l 1,64,-1
448 320 m 1,68,-1
 448 384 l 1,69,-1
 384 384 l 1,70,-1
 384 320 l 1,71,-1
 128 320 l 1,72,-1
 128 256 l 1,73,-1
 384 256 l 1,74,-1
 384 320 l 1,75,-1
 448 320 l 1,68,-1
1024 384 m 1,76,-1
 1024 448 l 1,77,-1
 960 448 l 1,78,-1
 960 384 l 1,79,-1
 1024 384 l 1,76,-1
64 448 m 1,80,-1
 64 512 l 1,81,-1
 0 512 l 1,82,-1
 0 448 l 1,83,-1
 64 448 l 1,80,-1
448 512 m 1,84,-1
 448 576 l 1,85,-1
 192 576 l 1,86,-1
 192 512 l 1,87,-1
 128 512 l 1,88,-1
 128 448 l 1,89,-1
 192 448 l 1,90,-1
 192 384 l 1,91,-1
 384 384 l 1,92,-1
 384 448 l 1,93,-1
 192 448 l 1,94,-1
 192 512 l 1,95,-1
 448 512 l 1,84,-1
1024 512 m 1,96,-1
 1024 576 l 1,97,-1
 960 576 l 1,98,-1
 960 512 l 1,99,-1
 1024 512 l 1,96,-1
64 576 m 1,100,-1
 64 640 l 1,101,-1
 0 640 l 1,102,-1
 0 576 l 1,103,-1
 64 576 l 1,100,-1
1024 640 m 1,104,-1
 1024 704 l 1,105,-1
 960 704 l 1,106,-1
 960 640 l 1,107,-1
 1024 640 l 1,104,-1
64 704 m 1,108,-1
 64 768 l 1,109,-1
 0 768 l 1,110,-1
 0 704 l 1,111,-1
 64 704 l 1,108,-1
1024 768 m 1,112,-1
 1024 832 l 1,113,-1
 960 832 l 1,114,-1
 960 768 l 1,115,-1
 1024 768 l 1,112,-1
64 832 m 1,116,-1
 64 896 l 1,117,-1
 0 896 l 1,118,-1
 0 832 l 1,119,-1
 64 832 l 1,116,-1
192 832 m 1,120,-1
 192 896 l 1,121,-1
 128 896 l 1,122,-1
 128 832 l 1,123,-1
 192 832 l 1,120,-1
320 832 m 1,124,-1
 320 896 l 1,125,-1
 256 896 l 1,126,-1
 256 832 l 1,127,-1
 320 832 l 1,124,-1
448 832 m 1,128,-1
 448 896 l 1,129,-1
 384 896 l 1,130,-1
 384 832 l 1,131,-1
 448 832 l 1,128,-1
576 832 m 1,132,-1
 576 896 l 1,133,-1
 512 896 l 1,134,-1
 512 832 l 1,135,-1
 576 832 l 1,132,-1
704 832 m 1,136,-1
 704 896 l 1,137,-1
 640 896 l 1,138,-1
 640 832 l 1,139,-1
 704 832 l 1,136,-1
832 832 m 1,140,-1
 832 896 l 1,141,-1
 768 896 l 1,142,-1
 768 832 l 1,143,-1
 832 832 l 1,140,-1
64 -64 m 1,144,-1
 64 0 l 1,145,-1
 0 0 l 1,146,-1
 0 -64 l 1,147,-1
 64 -64 l 1,144,-1
960 832 m 1,148,-1
 960 896 l 1,149,-1
 896 896 l 1,150,-1
 896 832 l 1,151,-1
 960 832 l 1,148,-1
EndSplineSet
EndChar

StartChar: uni0010
Encoding: 16 16 16
Width: 1024
GlyphClass: 2
Flags: W
LayerCount: 2
Fore
SplineSet
128 -128 m 1,0,-1
 128 -64 l 1,1,-1
 64 -64 l 1,2,-1
 64 -128 l 1,3,-1
 128 -128 l 1,0,-1
256 -128 m 1,4,-1
 256 -64 l 1,5,-1
 192 -64 l 1,6,-1
 192 -128 l 1,7,-1
 256 -128 l 1,4,-1
384 -128 m 1,8,-1
 384 -64 l 1,9,-1
 320 -64 l 1,10,-1
 320 -128 l 1,11,-1
 384 -128 l 1,8,-1
512 -128 m 1,12,-1
 512 -64 l 1,13,-1
 448 -64 l 1,14,-1
 448 -128 l 1,15,-1
 512 -128 l 1,12,-1
640 -128 m 1,16,-1
 640 -64 l 1,17,-1
 576 -64 l 1,18,-1
 576 -128 l 1,19,-1
 640 -128 l 1,16,-1
768 -128 m 1,20,-1
 768 -64 l 1,21,-1
 704 -64 l 1,22,-1
 704 -128 l 1,23,-1
 768 -128 l 1,20,-1
896 -128 m 1,24,-1
 896 -64 l 1,25,-1
 832 -64 l 1,26,-1
 832 -128 l 1,27,-1
 896 -128 l 1,24,-1
1024 -128 m 1,28,-1
 1024 -64 l 1,29,-1
 960 -64 l 1,30,-1
 960 -128 l 1,31,-1
 1024 -128 l 1,28,-1
1024 0 m 1,32,-1
 1024 64 l 1,33,-1
 960 64 l 1,34,-1
 960 0 l 1,35,-1
 1024 0 l 1,32,-1
64 64 m 1,36,-1
 64 128 l 1,37,-1
 0 128 l 1,38,-1
 0 64 l 1,39,-1
 64 64 l 1,36,-1
1024 128 m 1,40,-1
 1024 192 l 1,41,-1
 960 192 l 1,42,-1
 960 128 l 1,43,-1
 1024 128 l 1,40,-1
64 192 m 1,44,-1
 64 256 l 1,45,-1
 0 256 l 1,46,-1
 0 192 l 1,47,-1
 64 192 l 1,44,-1
640 256 m 1,48,-1
 640 320 l 1,49,-1
 512 320 l 1,50,51
 512 320 512 320 512 576 c 1,52,-1
 448 576 l 1,53,-1
 448 256 l 1,54,-1
 640 256 l 1,48,-1
896 256 m 1,55,-1
 896 320 l 1,56,-1
 768 320 l 1,57,-1
 768 384 l 1,58,-1
 896 384 l 1,59,-1
 896 448 l 1,60,-1
 768 448 l 1,61,-1
 768 512 l 1,62,-1
 896 512 l 1,63,-1
 896 576 l 1,64,-1
 704 576 l 1,65,-1
 704 256 l 1,66,-1
 896 256 l 1,55,-1
1024 256 m 1,67,-1
 1024 320 l 1,68,-1
 960 320 l 1,69,-1
 960 256 l 1,70,-1
 1024 256 l 1,67,-1
64 320 m 1,71,-1
 64 384 l 1,72,-1
 0 384 l 1,73,-1
 0 320 l 1,74,-1
 64 320 l 1,71,-1
1024 384 m 1,75,-1
 1024 448 l 1,76,-1
 960 448 l 1,77,-1
 960 384 l 1,78,-1
 1024 384 l 1,75,-1
64 448 m 1,79,-1
 64 512 l 1,80,-1
 0 512 l 1,81,-1
 0 448 l 1,82,-1
 64 448 l 1,79,-1
1024 512 m 1,83,-1
 1024 576 l 1,84,-1
 960 576 l 1,85,-1
 960 512 l 1,86,-1
 1024 512 l 1,83,-1
64 576 m 1,87,-1
 64 640 l 1,88,-1
 0 640 l 1,89,-1
 0 576 l 1,90,-1
 64 576 l 1,87,-1
1024 640 m 1,91,-1
 1024 704 l 1,92,-1
 960 704 l 1,93,-1
 960 640 l 1,94,-1
 1024 640 l 1,91,-1
64 704 m 1,95,-1
 64 768 l 1,96,-1
 0 768 l 1,97,-1
 0 704 l 1,98,-1
 64 704 l 1,95,-1
1024 768 m 1,99,-1
 1024 832 l 1,100,-1
 960 832 l 1,101,-1
 960 768 l 1,102,-1
 1024 768 l 1,99,-1
64 832 m 1,103,-1
 64 896 l 1,104,-1
 0 896 l 1,105,-1
 0 832 l 1,106,-1
 64 832 l 1,103,-1
192 832 m 1,107,-1
 192 896 l 1,108,-1
 128 896 l 1,109,-1
 128 832 l 1,110,-1
 192 832 l 1,107,-1
320 832 m 1,111,-1
 320 896 l 1,112,-1
 256 896 l 1,113,-1
 256 832 l 1,114,-1
 320 832 l 1,111,-1
448 832 m 1,115,-1
 448 896 l 1,116,-1
 384 896 l 1,117,-1
 384 832 l 1,118,-1
 448 832 l 1,115,-1
576 832 m 1,119,-1
 576 896 l 1,120,-1
 512 896 l 1,121,-1
 512 832 l 1,122,-1
 576 832 l 1,119,-1
704 832 m 1,123,-1
 704 896 l 1,124,-1
 640 896 l 1,125,-1
 640 832 l 1,126,-1
 704 832 l 1,123,-1
832 832 m 1,127,-1
 832 896 l 1,128,-1
 768 896 l 1,129,-1
 768 832 l 1,130,-1
 832 832 l 1,127,-1
64 -64 m 1,131,-1
 64 0 l 1,132,-1
 0 0 l 1,133,-1
 0 -64 l 1,134,-1
 64 -64 l 1,131,-1
128 576 m 1,135,-1
 128 256 l 1,136,-1
 320 256 l 1,137,-1
 320 320 l 1,138,-1
 192 320 l 1,139,-1
 192 512 l 1,140,-1
 320 512 l 1,141,-1
 320 320 l 1,142,-1
 384 320 l 1,143,-1
 384 512 l 1,144,-1
 320 512 l 1,145,-1
 320 576 l 1,146,-1
 128 576 l 1,135,-1
960 832 m 1,147,-1
 960 896 l 1,148,-1
 896 896 l 1,149,-1
 896 832 l 1,150,-1
 960 832 l 1,147,-1
EndSplineSet
EndChar

StartChar: uni0011
Encoding: 17 17 17
Width: 1024
GlyphClass: 2
Flags: W
LayerCount: 2
Fore
SplineSet
128 -128 m 1,0,-1
 128 -64 l 1,1,-1
 64 -64 l 1,2,-1
 64 -128 l 1,3,-1
 128 -128 l 1,0,-1
256 -128 m 1,4,-1
 256 -64 l 1,5,-1
 192 -64 l 1,6,-1
 192 -128 l 1,7,-1
 256 -128 l 1,4,-1
384 -128 m 1,8,-1
 384 -64 l 1,9,-1
 320 -64 l 1,10,-1
 320 -128 l 1,11,-1
 384 -128 l 1,8,-1
512 -128 m 1,12,-1
 512 -64 l 1,13,-1
 448 -64 l 1,14,-1
 448 -128 l 1,15,-1
 512 -128 l 1,12,-1
640 -128 m 1,16,-1
 640 -64 l 1,17,-1
 576 -64 l 1,18,-1
 576 -128 l 1,19,-1
 640 -128 l 1,16,-1
768 -128 m 1,20,-1
 768 -64 l 1,21,-1
 704 -64 l 1,22,-1
 704 -128 l 1,23,-1
 768 -128 l 1,20,-1
896 -128 m 1,24,-1
 896 -64 l 1,25,-1
 832 -64 l 1,26,-1
 832 -128 l 1,27,-1
 896 -128 l 1,24,-1
1024 -128 m 1,28,-1
 1024 -64 l 1,29,-1
 960 -64 l 1,30,-1
 960 -128 l 1,31,-1
 1024 -128 l 1,28,-1
1024 0 m 1,32,-1
 1024 64 l 1,33,-1
 960 64 l 1,34,-1
 960 0 l 1,35,-1
 1024 0 l 1,32,-1
64 64 m 1,36,-1
 64 128 l 1,37,-1
 0 128 l 1,38,-1
 0 64 l 1,39,-1
 64 64 l 1,36,-1
1024 128 m 1,40,-1
 1024 192 l 1,41,-1
 960 192 l 1,42,-1
 960 128 l 1,43,-1
 1024 128 l 1,40,-1
576 256 m 1,44,-1
 576 320 l 1,45,-1
 448 320 l 1,46,-1
 448 256 l 1,47,-1
 576 256 l 1,44,-1
896 256 m 1,48,-1
 896 320 l 1,49,-1
 832 320 l 1,50,51
 832 320 832 320 832 576 c 1,52,-1
 768 576 l 1,53,-1
 768 512 l 1,54,-1
 704 512 l 1,55,-1
 704 448 l 1,56,-1
 768 448 l 1,57,58
 768 448 768 448 768 320 c 1,59,-1
 704 320 l 1,60,-1
 704 256 l 1,61,-1
 896 256 l 1,48,-1
1024 256 m 1,62,-1
 1024 320 l 1,63,-1
 960 320 l 1,64,-1
 960 256 l 1,65,-1
 1024 256 l 1,62,-1
1024 384 m 1,66,-1
 1024 448 l 1,67,-1
 960 448 l 1,68,-1
 960 384 l 1,69,-1
 1024 384 l 1,66,-1
576 512 m 1,70,-1
 576 576 l 1,71,-1
 448 576 l 1,72,-1
 448 512 l 1,73,-1
 384 512 l 1,74,-1
 384 320 l 1,75,-1
 448 320 l 1,76,-1
 448 512 l 1,77,-1
 576 512 l 1,70,-1
1024 512 m 1,78,-1
 1024 576 l 1,79,-1
 960 576 l 1,80,-1
 960 512 l 1,81,-1
 1024 512 l 1,78,-1
1024 640 m 1,82,-1
 1024 704 l 1,83,-1
 960 704 l 1,84,-1
 960 640 l 1,85,-1
 1024 640 l 1,82,-1
64 704 m 1,86,-1
 64 768 l 1,87,-1
 0 768 l 1,88,-1
 0 704 l 1,89,-1
 64 704 l 1,86,-1
1024 768 m 1,90,-1
 1024 832 l 1,91,-1
 960 832 l 1,92,-1
 960 768 l 1,93,-1
 1024 768 l 1,90,-1
64 832 m 1,94,-1
 64 896 l 1,95,-1
 0 896 l 1,96,-1
 0 832 l 1,97,-1
 64 832 l 1,94,-1
192 832 m 1,98,-1
 192 896 l 1,99,-1
 128 896 l 1,100,-1
 128 832 l 1,101,-1
 192 832 l 1,98,-1
320 832 m 1,102,-1
 320 896 l 1,103,-1
 256 896 l 1,104,-1
 256 832 l 1,105,-1
 320 832 l 1,102,-1
448 832 m 1,106,-1
 448 896 l 1,107,-1
 384 896 l 1,108,-1
 384 832 l 1,109,-1
 448 832 l 1,106,-1
576 832 m 1,110,-1
 576 896 l 1,111,-1
 512 896 l 1,112,-1
 512 832 l 1,113,-1
 576 832 l 1,110,-1
704 832 m 1,114,-1
 704 896 l 1,115,-1
 640 896 l 1,116,-1
 640 832 l 1,117,-1
 704 832 l 1,114,-1
832 832 m 1,118,-1
 832 896 l 1,119,-1
 768 896 l 1,120,-1
 768 832 l 1,121,-1
 832 832 l 1,118,-1
64 -64 m 1,122,-1
 64 0 l 1,123,-1
 0 0 l 1,124,-1
 0 -64 l 1,125,-1
 64 -64 l 1,122,-1
64 256 m 1,126,-1
 0 256 l 1,127,-1
 0 192 l 1,128,-1
 64 192 l 1,129,-1
 64 256 l 1,126,-1
64 256 m 1,130,-1
 256 256 l 1,131,-1
 256 320 l 1,132,-1
 128 320 l 1,133,-1
 128 512 l 1,134,-1
 256 512 l 1,135,-1
 256 320 l 1,136,-1
 320 320 l 1,137,-1
 320 512 l 1,138,-1
 256 512 l 1,139,-1
 256 576 l 1,140,-1
 64 576 l 1,141,-1
 64 512 l 1,142,-1
 0 512 l 1,143,-1
 0 448 l 1,144,-1
 64 448 l 1,145,-1
 64 384 l 1,146,-1
 0 384 l 1,147,-1
 0 320 l 1,148,-1
 64 320 l 1,149,-1
 64 256 l 1,130,-1
64 576 m 1,150,-1
 64 640 l 1,151,-1
 0 640 l 1,152,-1
 0 576 l 1,153,-1
 64 576 l 1,150,-1
960 832 m 1,154,-1
 960 896 l 1,155,-1
 896 896 l 1,156,-1
 896 832 l 1,157,-1
 960 832 l 1,154,-1
EndSplineSet
EndChar

StartChar: uni0012
Encoding: 18 18 18
Width: 1024
GlyphClass: 2
Flags: W
LayerCount: 2
Fore
SplineSet
128 -128 m 1,0,-1
 128 -64 l 1,1,-1
 64 -64 l 1,2,-1
 64 -128 l 1,3,-1
 128 -128 l 1,0,-1
256 -128 m 1,4,-1
 256 -64 l 1,5,-1
 192 -64 l 1,6,-1
 192 -128 l 1,7,-1
 256 -128 l 1,4,-1
384 -128 m 1,8,-1
 384 -64 l 1,9,-1
 320 -64 l 1,10,-1
 320 -128 l 1,11,-1
 384 -128 l 1,8,-1
512 -128 m 1,12,-1
 512 -64 l 1,13,-1
 448 -64 l 1,14,-1
 448 -128 l 1,15,-1
 512 -128 l 1,12,-1
640 -128 m 1,16,-1
 640 -64 l 1,17,-1
 576 -64 l 1,18,-1
 576 -128 l 1,19,-1
 640 -128 l 1,16,-1
768 -128 m 1,20,-1
 768 -64 l 1,21,-1
 704 -64 l 1,22,-1
 704 -128 l 1,23,-1
 768 -128 l 1,20,-1
896 -128 m 1,24,-1
 896 -64 l 1,25,-1
 832 -64 l 1,26,-1
 832 -128 l 1,27,-1
 896 -128 l 1,24,-1
1024 -128 m 1,28,-1
 1024 -64 l 1,29,-1
 960 -64 l 1,30,-1
 960 -128 l 1,31,-1
 1024 -128 l 1,28,-1
1024 0 m 1,32,-1
 1024 64 l 1,33,-1
 960 64 l 1,34,-1
 960 0 l 1,35,-1
 1024 0 l 1,32,-1
64 64 m 1,36,-1
 64 128 l 1,37,-1
 0 128 l 1,38,-1
 0 64 l 1,39,-1
 64 64 l 1,36,-1
1024 128 m 1,40,-1
 1024 192 l 1,41,-1
 960 192 l 1,42,-1
 960 128 l 1,43,-1
 1024 128 l 1,40,-1
576 256 m 1,44,-1
 576 320 l 1,45,-1
 448 320 l 1,46,-1
 448 256 l 1,47,-1
 576 256 l 1,44,-1
896 256 m 1,48,-1
 896 320 l 1,49,-1
 768 320 l 1,50,-1
 768 384 l 1,51,-1
 704 384 l 1,52,53
 704 384 704 384 704 256 c 1,54,-1
 896 256 l 1,48,-1
1024 256 m 1,55,-1
 1024 320 l 1,56,-1
 960 320 l 1,57,-1
 960 256 l 1,58,-1
 1024 256 l 1,55,-1
1024 384 m 1,59,-1
 1024 448 l 1,60,-1
 960 448 l 1,61,-1
 960 384 l 1,62,-1
 1024 384 l 1,59,-1
896 448 m 1,63,-1
 896 512 l 1,64,-1
 832 512 l 1,65,-1
 832 448 l 1,66,-1
 768 448 l 1,67,-1
 768 384 l 1,68,-1
 832 384 l 1,69,-1
 832 448 l 1,70,-1
 896 448 l 1,63,-1
576 512 m 1,71,-1
 576 576 l 1,72,-1
 448 576 l 1,73,-1
 448 512 l 1,74,-1
 384 512 l 1,75,-1
 384 320 l 1,76,-1
 448 320 l 1,77,-1
 448 512 l 1,78,-1
 576 512 l 1,71,-1
1024 512 m 1,79,-1
 1024 576 l 1,80,-1
 960 576 l 1,81,-1
 960 512 l 1,82,-1
 1024 512 l 1,79,-1
1024 640 m 1,83,-1
 1024 704 l 1,84,-1
 960 704 l 1,85,-1
 960 640 l 1,86,-1
 1024 640 l 1,83,-1
64 704 m 1,87,-1
 64 768 l 1,88,-1
 0 768 l 1,89,-1
 0 704 l 1,90,-1
 64 704 l 1,87,-1
1024 768 m 1,91,-1
 1024 832 l 1,92,-1
 960 832 l 1,93,-1
 960 768 l 1,94,-1
 1024 768 l 1,91,-1
64 832 m 1,95,-1
 64 896 l 1,96,-1
 0 896 l 1,97,-1
 0 832 l 1,98,-1
 64 832 l 1,95,-1
192 832 m 1,99,-1
 192 896 l 1,100,-1
 128 896 l 1,101,-1
 128 832 l 1,102,-1
 192 832 l 1,99,-1
320 832 m 1,103,-1
 320 896 l 1,104,-1
 256 896 l 1,105,-1
 256 832 l 1,106,-1
 320 832 l 1,103,-1
448 832 m 1,107,-1
 448 896 l 1,108,-1
 384 896 l 1,109,-1
 384 832 l 1,110,-1
 448 832 l 1,107,-1
576 832 m 1,111,-1
 576 896 l 1,112,-1
 512 896 l 1,113,-1
 512 832 l 1,114,-1
 576 832 l 1,111,-1
704 832 m 1,115,-1
 704 896 l 1,116,-1
 640 896 l 1,117,-1
 640 832 l 1,118,-1
 704 832 l 1,115,-1
832 832 m 1,119,-1
 832 896 l 1,120,-1
 768 896 l 1,121,-1
 768 832 l 1,122,-1
 832 832 l 1,119,-1
64 -64 m 1,123,-1
 64 0 l 1,124,-1
 0 0 l 1,125,-1
 0 -64 l 1,126,-1
 64 -64 l 1,123,-1
64 256 m 1,127,-1
 0 256 l 1,128,-1
 0 192 l 1,129,-1
 64 192 l 1,130,-1
 64 256 l 1,127,-1
64 256 m 1,131,-1
 256 256 l 1,132,-1
 256 320 l 1,133,-1
 128 320 l 1,134,-1
 128 512 l 1,135,-1
 256 512 l 1,136,-1
 256 320 l 1,137,-1
 320 320 l 1,138,-1
 320 512 l 1,139,-1
 256 512 l 1,140,-1
 256 576 l 1,141,-1
 64 576 l 1,142,-1
 64 512 l 1,143,-1
 0 512 l 1,144,-1
 0 448 l 1,145,-1
 64 448 l 1,146,-1
 64 384 l 1,147,-1
 0 384 l 1,148,-1
 0 320 l 1,149,-1
 64 320 l 1,150,-1
 64 256 l 1,131,-1
832 512 m 1,151,-1
 832 576 l 1,152,-1
 704 576 l 1,153,-1
 704 512 l 1,154,-1
 832 512 l 1,151,-1
64 576 m 1,155,-1
 64 640 l 1,156,-1
 0 640 l 1,157,-1
 0 576 l 1,158,-1
 64 576 l 1,155,-1
960 832 m 1,159,-1
 960 896 l 1,160,-1
 896 896 l 1,161,-1
 896 832 l 1,162,-1
 960 832 l 1,159,-1
EndSplineSet
EndChar

StartChar: uni0013
Encoding: 19 19 19
Width: 1024
GlyphClass: 2
Flags: W
LayerCount: 2
Fore
SplineSet
128 -128 m 1,0,-1
 128 -64 l 1,1,-1
 64 -64 l 1,2,-1
 64 -128 l 1,3,-1
 128 -128 l 1,0,-1
256 -128 m 1,4,-1
 256 -64 l 1,5,-1
 192 -64 l 1,6,-1
 192 -128 l 1,7,-1
 256 -128 l 1,4,-1
384 -128 m 1,8,-1
 384 -64 l 1,9,-1
 320 -64 l 1,10,-1
 320 -128 l 1,11,-1
 384 -128 l 1,8,-1
512 -128 m 1,12,-1
 512 -64 l 1,13,-1
 448 -64 l 1,14,-1
 448 -128 l 1,15,-1
 512 -128 l 1,12,-1
640 -128 m 1,16,-1
 640 -64 l 1,17,-1
 576 -64 l 1,18,-1
 576 -128 l 1,19,-1
 640 -128 l 1,16,-1
768 -128 m 1,20,-1
 768 -64 l 1,21,-1
 704 -64 l 1,22,-1
 704 -128 l 1,23,-1
 768 -128 l 1,20,-1
896 -128 m 1,24,-1
 896 -64 l 1,25,-1
 832 -64 l 1,26,-1
 832 -128 l 1,27,-1
 896 -128 l 1,24,-1
1024 -128 m 1,28,-1
 1024 -64 l 1,29,-1
 960 -64 l 1,30,-1
 960 -128 l 1,31,-1
 1024 -128 l 1,28,-1
1024 0 m 1,32,-1
 1024 64 l 1,33,-1
 960 64 l 1,34,-1
 960 0 l 1,35,-1
 1024 0 l 1,32,-1
64 64 m 1,36,-1
 64 128 l 1,37,-1
 0 128 l 1,38,-1
 0 64 l 1,39,-1
 64 64 l 1,36,-1
1024 128 m 1,40,-1
 1024 192 l 1,41,-1
 960 192 l 1,42,-1
 960 128 l 1,43,-1
 1024 128 l 1,40,-1
576 256 m 1,44,-1
 576 320 l 1,45,-1
 448 320 l 1,46,-1
 448 256 l 1,47,-1
 576 256 l 1,44,-1
1024 256 m 1,48,-1
 1024 320 l 1,49,-1
 960 320 l 1,50,-1
 960 256 l 1,51,-1
 1024 256 l 1,48,-1
896 320 m 1,52,-1
 896 384 l 1,53,-1
 832 384 l 1,54,-1
 832 320 l 1,55,-1
 704 320 l 1,56,-1
 704 256 l 1,57,-1
 832 256 l 1,58,-1
 832 320 l 1,59,-1
 896 320 l 1,52,-1
1024 384 m 1,60,-1
 1024 448 l 1,61,-1
 960 448 l 1,62,-1
 960 384 l 1,63,-1
 1024 384 l 1,60,-1
896 448 m 1,64,-1
 896 512 l 1,65,-1
 832 512 l 1,66,-1
 832 448 l 1,67,-1
 704 448 l 1,68,-1
 704 384 l 1,69,-1
 832 384 l 1,70,-1
 832 448 l 1,71,-1
 896 448 l 1,64,-1
576 512 m 1,72,-1
 576 576 l 1,73,-1
 448 576 l 1,74,-1
 448 512 l 1,75,-1
 384 512 l 1,76,-1
 384 320 l 1,77,-1
 448 320 l 1,78,-1
 448 512 l 1,79,-1
 576 512 l 1,72,-1
1024 512 m 1,80,-1
 1024 576 l 1,81,-1
 960 576 l 1,82,-1
 960 512 l 1,83,-1
 1024 512 l 1,80,-1
1024 640 m 1,84,-1
 1024 704 l 1,85,-1
 960 704 l 1,86,-1
 960 640 l 1,87,-1
 1024 640 l 1,84,-1
64 704 m 1,88,-1
 64 768 l 1,89,-1
 0 768 l 1,90,-1
 0 704 l 1,91,-1
 64 704 l 1,88,-1
1024 768 m 1,92,-1
 1024 832 l 1,93,-1
 960 832 l 1,94,-1
 960 768 l 1,95,-1
 1024 768 l 1,92,-1
64 832 m 1,96,-1
 64 896 l 1,97,-1
 0 896 l 1,98,-1
 0 832 l 1,99,-1
 64 832 l 1,96,-1
192 832 m 1,100,-1
 192 896 l 1,101,-1
 128 896 l 1,102,-1
 128 832 l 1,103,-1
 192 832 l 1,100,-1
320 832 m 1,104,-1
 320 896 l 1,105,-1
 256 896 l 1,106,-1
 256 832 l 1,107,-1
 320 832 l 1,104,-1
448 832 m 1,108,-1
 448 896 l 1,109,-1
 384 896 l 1,110,-1
 384 832 l 1,111,-1
 448 832 l 1,108,-1
576 832 m 1,112,-1
 576 896 l 1,113,-1
 512 896 l 1,114,-1
 512 832 l 1,115,-1
 576 832 l 1,112,-1
704 832 m 1,116,-1
 704 896 l 1,117,-1
 640 896 l 1,118,-1
 640 832 l 1,119,-1
 704 832 l 1,116,-1
832 832 m 1,120,-1
 832 896 l 1,121,-1
 768 896 l 1,122,-1
 768 832 l 1,123,-1
 832 832 l 1,120,-1
64 -64 m 1,124,-1
 64 0 l 1,125,-1
 0 0 l 1,126,-1
 0 -64 l 1,127,-1
 64 -64 l 1,124,-1
64 256 m 1,128,-1
 0 256 l 1,129,-1
 0 192 l 1,130,-1
 64 192 l 1,131,-1
 64 256 l 1,128,-1
64 256 m 1,132,-1
 256 256 l 1,133,-1
 256 320 l 1,134,-1
 128 320 l 1,135,-1
 128 512 l 1,136,-1
 256 512 l 1,137,-1
 256 320 l 1,138,-1
 320 320 l 1,139,-1
 320 512 l 1,140,-1
 256 512 l 1,141,-1
 256 576 l 1,142,-1
 64 576 l 1,143,-1
 64 512 l 1,144,-1
 0 512 l 1,145,-1
 0 448 l 1,146,-1
 64 448 l 1,147,-1
 64 384 l 1,148,-1
 0 384 l 1,149,-1
 0 320 l 1,150,-1
 64 320 l 1,151,-1
 64 256 l 1,132,-1
832 512 m 1,152,-1
 832 576 l 1,153,-1
 704 576 l 1,154,-1
 704 512 l 1,155,-1
 832 512 l 1,152,-1
64 576 m 1,156,-1
 64 640 l 1,157,-1
 0 640 l 1,158,-1
 0 576 l 1,159,-1
 64 576 l 1,156,-1
960 832 m 1,160,-1
 960 896 l 1,161,-1
 896 896 l 1,162,-1
 896 832 l 1,163,-1
 960 832 l 1,160,-1
EndSplineSet
EndChar

StartChar: uni0014
Encoding: 20 20 20
Width: 1024
GlyphClass: 2
Flags: W
LayerCount: 2
Fore
SplineSet
128 -128 m 1,0,-1
 128 -64 l 1,1,-1
 64 -64 l 1,2,-1
 64 -128 l 1,3,-1
 128 -128 l 1,0,-1
256 -128 m 1,4,-1
 256 -64 l 1,5,-1
 192 -64 l 1,6,-1
 192 -128 l 1,7,-1
 256 -128 l 1,4,-1
384 -128 m 1,8,-1
 384 -64 l 1,9,-1
 320 -64 l 1,10,-1
 320 -128 l 1,11,-1
 384 -128 l 1,8,-1
512 -128 m 1,12,-1
 512 -64 l 1,13,-1
 448 -64 l 1,14,-1
 448 -128 l 1,15,-1
 512 -128 l 1,12,-1
640 -128 m 1,16,-1
 640 -64 l 1,17,-1
 576 -64 l 1,18,-1
 576 -128 l 1,19,-1
 640 -128 l 1,16,-1
768 -128 m 1,20,-1
 768 -64 l 1,21,-1
 704 -64 l 1,22,-1
 704 -128 l 1,23,-1
 768 -128 l 1,20,-1
896 -128 m 1,24,-1
 896 -64 l 1,25,-1
 832 -64 l 1,26,-1
 832 -128 l 1,27,-1
 896 -128 l 1,24,-1
1024 -128 m 1,28,-1
 1024 -64 l 1,29,-1
 960 -64 l 1,30,-1
 960 -128 l 1,31,-1
 1024 -128 l 1,28,-1
1024 0 m 1,32,-1
 1024 64 l 1,33,-1
 960 64 l 1,34,-1
 960 0 l 1,35,-1
 1024 0 l 1,32,-1
64 64 m 1,36,-1
 64 128 l 1,37,-1
 0 128 l 1,38,-1
 0 64 l 1,39,-1
 64 64 l 1,36,-1
1024 128 m 1,40,-1
 1024 192 l 1,41,-1
 960 192 l 1,42,-1
 960 128 l 1,43,-1
 1024 128 l 1,40,-1
576 256 m 1,44,-1
 576 320 l 1,45,-1
 448 320 l 1,46,-1
 448 256 l 1,47,-1
 576 256 l 1,44,-1
1024 256 m 1,48,-1
 1024 320 l 1,49,-1
 960 320 l 1,50,-1
 960 256 l 1,51,-1
 1024 256 l 1,48,-1
1024 384 m 1,52,-1
 1024 448 l 1,53,-1
 960 448 l 1,54,-1
 960 384 l 1,55,-1
 1024 384 l 1,52,-1
576 512 m 1,56,-1
 576 576 l 1,57,-1
 448 576 l 1,58,-1
 448 512 l 1,59,-1
 384 512 l 1,60,-1
 384 320 l 1,61,-1
 448 320 l 1,62,-1
 448 512 l 1,63,-1
 576 512 l 1,56,-1
1024 512 m 1,64,-1
 1024 576 l 1,65,-1
 960 576 l 1,66,-1
 960 512 l 1,67,-1
 1024 512 l 1,64,-1
1024 640 m 1,68,-1
 1024 704 l 1,69,-1
 960 704 l 1,70,-1
 960 640 l 1,71,-1
 1024 640 l 1,68,-1
64 704 m 1,72,-1
 64 768 l 1,73,-1
 0 768 l 1,74,-1
 0 704 l 1,75,-1
 64 704 l 1,72,-1
1024 768 m 1,76,-1
 1024 832 l 1,77,-1
 960 832 l 1,78,-1
 960 768 l 1,79,-1
 1024 768 l 1,76,-1
64 832 m 1,80,-1
 64 896 l 1,81,-1
 0 896 l 1,82,-1
 0 832 l 1,83,-1
 64 832 l 1,80,-1
192 832 m 1,84,-1
 192 896 l 1,85,-1
 128 896 l 1,86,-1
 128 832 l 1,87,-1
 192 832 l 1,84,-1
320 832 m 1,88,-1
 320 896 l 1,89,-1
 256 896 l 1,90,-1
 256 832 l 1,91,-1
 320 832 l 1,88,-1
448 832 m 1,92,-1
 448 896 l 1,93,-1
 384 896 l 1,94,-1
 384 832 l 1,95,-1
 448 832 l 1,92,-1
576 832 m 1,96,-1
 576 896 l 1,97,-1
 512 896 l 1,98,-1
 512 832 l 1,99,-1
 576 832 l 1,96,-1
704 832 m 1,100,-1
 704 896 l 1,101,-1
 640 896 l 1,102,-1
 640 832 l 1,103,-1
 704 832 l 1,100,-1
832 832 m 1,104,-1
 832 896 l 1,105,-1
 768 896 l 1,106,-1
 768 832 l 1,107,-1
 832 832 l 1,104,-1
64 -64 m 1,108,-1
 64 0 l 1,109,-1
 0 0 l 1,110,-1
 0 -64 l 1,111,-1
 64 -64 l 1,108,-1
64 256 m 1,112,-1
 0 256 l 1,113,-1
 0 192 l 1,114,-1
 64 192 l 1,115,-1
 64 256 l 1,112,-1
64 256 m 1,116,-1
 256 256 l 1,117,-1
 256 320 l 1,118,-1
 128 320 l 1,119,-1
 128 512 l 1,120,-1
 256 512 l 1,121,-1
 256 320 l 1,122,-1
 320 320 l 1,123,-1
 320 512 l 1,124,-1
 256 512 l 1,125,-1
 256 576 l 1,126,-1
 64 576 l 1,127,-1
 64 512 l 1,128,-1
 0 512 l 1,129,-1
 0 448 l 1,130,-1
 64 448 l 1,131,-1
 64 384 l 1,132,-1
 0 384 l 1,133,-1
 0 320 l 1,134,-1
 64 320 l 1,135,-1
 64 256 l 1,116,-1
832 320 m 1,136,-1
 832 256 l 1,137,-1
 896 256 l 1,138,-1
 896 576 l 1,139,-1
 832 576 l 1,140,-1
 832 512 l 1,141,-1
 768 512 l 1,142,-1
 768 448 l 1,143,-1
 704 448 l 1,144,145
 704 448 704 448 704 320 c 1,146,-1
 832 320 l 1,136,-1
768 384 m 1,147,-1
 768 448 l 1,148,-1
 832 448 l 1,149,-1
 832 384 l 1,150,-1
 768 384 l 1,147,-1
64 576 m 1,151,-1
 64 640 l 1,152,-1
 0 640 l 1,153,-1
 0 576 l 1,154,-1
 64 576 l 1,151,-1
960 832 m 1,155,-1
 960 896 l 1,156,-1
 896 896 l 1,157,-1
 896 832 l 1,158,-1
 960 832 l 1,155,-1
EndSplineSet
EndChar

StartChar: uni0015
Encoding: 21 21 21
Width: 1024
GlyphClass: 2
Flags: W
LayerCount: 2
Fore
SplineSet
128 -128 m 1,0,-1
 128 -64 l 1,1,-1
 64 -64 l 1,2,-1
 64 -128 l 1,3,-1
 128 -128 l 1,0,-1
256 -128 m 1,4,-1
 256 -64 l 1,5,-1
 192 -64 l 1,6,-1
 192 -128 l 1,7,-1
 256 -128 l 1,4,-1
384 -128 m 1,8,-1
 384 -64 l 1,9,-1
 320 -64 l 1,10,-1
 320 -128 l 1,11,-1
 384 -128 l 1,8,-1
512 -128 m 1,12,-1
 512 -64 l 1,13,-1
 448 -64 l 1,14,-1
 448 -128 l 1,15,-1
 512 -128 l 1,12,-1
640 -128 m 1,16,-1
 640 -64 l 1,17,-1
 576 -64 l 1,18,-1
 576 -128 l 1,19,-1
 640 -128 l 1,16,-1
768 -128 m 1,20,-1
 768 -64 l 1,21,-1
 704 -64 l 1,22,-1
 704 -128 l 1,23,-1
 768 -128 l 1,20,-1
896 -128 m 1,24,-1
 896 -64 l 1,25,-1
 832 -64 l 1,26,-1
 832 -128 l 1,27,-1
 896 -128 l 1,24,-1
1024 -128 m 1,28,-1
 1024 -64 l 1,29,-1
 960 -64 l 1,30,-1
 960 -128 l 1,31,-1
 1024 -128 l 1,28,-1
1024 0 m 1,32,-1
 1024 64 l 1,33,-1
 960 64 l 1,34,-1
 960 0 l 1,35,-1
 1024 0 l 1,32,-1
64 64 m 1,36,-1
 64 128 l 1,37,-1
 0 128 l 1,38,-1
 0 64 l 1,39,-1
 64 64 l 1,36,-1
1024 128 m 1,40,-1
 1024 192 l 1,41,-1
 960 192 l 1,42,-1
 960 128 l 1,43,-1
 1024 128 l 1,40,-1
1024 256 m 1,44,-1
 1024 320 l 1,45,-1
 896 320 l 1,46,-1
 896 256 l 1,47,-1
 1024 256 l 1,44,-1
1024 384 m 1,48,-1
 1024 448 l 1,49,-1
 960 448 l 1,50,-1
 960 384 l 1,51,-1
 1024 384 l 1,48,-1
1024 512 m 1,52,-1
 1024 576 l 1,53,-1
 896 576 l 1,54,-1
 896 512 l 1,55,-1
 832 512 l 1,56,-1
 832 448 l 1,57,-1
 768 448 l 1,58,59
 768 448 768 448 768 576 c 1,60,-1
 704 576 l 1,61,-1
 704 256 l 1,62,-1
 768 256 l 1,63,64
 768 256 768 256 768 384 c 1,65,-1
 832 384 l 1,66,-1
 832 320 l 1,67,-1
 896 320 l 1,68,-1
 896 384 l 1,69,-1
 832 384 l 1,70,-1
 832 448 l 1,71,-1
 896 448 l 1,72,-1
 896 512 l 1,73,-1
 1024 512 l 1,52,-1
1024 640 m 1,74,-1
 1024 704 l 1,75,-1
 960 704 l 1,76,-1
 960 640 l 1,77,-1
 1024 640 l 1,74,-1
64 704 m 1,78,-1
 64 768 l 1,79,-1
 0 768 l 1,80,-1
 0 704 l 1,81,-1
 64 704 l 1,78,-1
1024 768 m 1,82,-1
 1024 832 l 1,83,-1
 960 832 l 1,84,-1
 960 768 l 1,85,-1
 1024 768 l 1,82,-1
64 832 m 1,86,-1
 64 896 l 1,87,-1
 0 896 l 1,88,-1
 0 832 l 1,89,-1
 64 832 l 1,86,-1
192 832 m 1,90,-1
 192 896 l 1,91,-1
 128 896 l 1,92,-1
 128 832 l 1,93,-1
 192 832 l 1,90,-1
320 832 m 1,94,-1
 320 896 l 1,95,-1
 256 896 l 1,96,-1
 256 832 l 1,97,-1
 320 832 l 1,94,-1
448 832 m 1,98,-1
 448 896 l 1,99,-1
 384 896 l 1,100,-1
 384 832 l 1,101,-1
 448 832 l 1,98,-1
576 832 m 1,102,-1
 576 896 l 1,103,-1
 512 896 l 1,104,-1
 512 832 l 1,105,-1
 576 832 l 1,102,-1
704 832 m 1,106,-1
 704 896 l 1,107,-1
 640 896 l 1,108,-1
 640 832 l 1,109,-1
 704 832 l 1,106,-1
832 832 m 1,110,-1
 832 896 l 1,111,-1
 768 896 l 1,112,-1
 768 832 l 1,113,-1
 832 832 l 1,110,-1
64 -64 m 1,114,-1
 64 0 l 1,115,-1
 0 0 l 1,116,-1
 0 -64 l 1,117,-1
 64 -64 l 1,114,-1
64 256 m 1,118,-1
 0 256 l 1,119,-1
 0 192 l 1,120,-1
 64 192 l 1,121,-1
 64 256 l 1,118,-1
64 256 m 1,122,-1
 128 256 l 1,123,124
 128 256 128 256 128 384 c 1,125,-1
 192 384 l 1,126,-1
 192 320 l 1,127,-1
 256 320 l 1,128,-1
 256 256 l 1,129,-1
 320 256 l 1,130,-1
 320 576 l 1,131,-1
 256 576 l 1,132,-1
 256 384 l 1,133,-1
 192 384 l 1,134,135
 192 384 192 384 192 512 c 1,136,-1
 128 512 l 1,137,-1
 128 576 l 1,138,-1
 64 576 l 1,139,-1
 64 512 l 1,140,-1
 0 512 l 1,141,-1
 0 448 l 1,142,-1
 64 448 l 1,143,-1
 64 384 l 1,144,-1
 0 384 l 1,145,-1
 0 320 l 1,146,-1
 64 320 l 1,147,-1
 64 256 l 1,122,-1
576 320 m 1,148,-1
 576 256 l 1,149,-1
 640 256 l 1,150,151
 640 256 640 256 640 512 c 1,152,-1
 576 512 l 1,153,154
 576 512 576 512 576 384 c 1,155,-1
 448 384 l 1,156,157
 448 384 448 384 448 512 c 1,158,-1
 384 512 l 1,159,160
 384 512 384 512 384 256 c 1,161,-1
 448 256 l 1,162,-1
 448 320 l 1,163,-1
 576 320 l 1,148,-1
448 512 m 1,164,-1
 576 512 l 1,165,-1
 576 576 l 1,166,-1
 448 576 l 1,167,-1
 448 512 l 1,164,-1
64 576 m 1,168,-1
 64 640 l 1,169,-1
 0 640 l 1,170,-1
 0 576 l 1,171,-1
 64 576 l 1,168,-1
960 832 m 1,172,-1
 960 896 l 1,173,-1
 896 896 l 1,174,-1
 896 832 l 1,175,-1
 960 832 l 1,172,-1
EndSplineSet
EndChar

StartChar: uni0016
Encoding: 22 22 22
Width: 1024
GlyphClass: 2
Flags: W
LayerCount: 2
Fore
SplineSet
128 -128 m 1,0,-1
 128 -64 l 1,1,-1
 64 -64 l 1,2,-1
 64 -128 l 1,3,-1
 128 -128 l 1,0,-1
256 -128 m 1,4,-1
 256 -64 l 1,5,-1
 192 -64 l 1,6,-1
 192 -128 l 1,7,-1
 256 -128 l 1,4,-1
384 -128 m 1,8,-1
 384 -64 l 1,9,-1
 320 -64 l 1,10,-1
 320 -128 l 1,11,-1
 384 -128 l 1,8,-1
512 -128 m 1,12,-1
 512 -64 l 1,13,-1
 448 -64 l 1,14,-1
 448 -128 l 1,15,-1
 512 -128 l 1,12,-1
640 -128 m 1,16,-1
 640 -64 l 1,17,-1
 576 -64 l 1,18,-1
 576 -128 l 1,19,-1
 640 -128 l 1,16,-1
768 -128 m 1,20,-1
 768 -64 l 1,21,-1
 704 -64 l 1,22,-1
 704 -128 l 1,23,-1
 768 -128 l 1,20,-1
896 -128 m 1,24,-1
 896 -64 l 1,25,-1
 832 -64 l 1,26,-1
 832 -128 l 1,27,-1
 896 -128 l 1,24,-1
1024 -128 m 1,28,-1
 1024 -64 l 1,29,-1
 960 -64 l 1,30,-1
 960 -128 l 1,31,-1
 1024 -128 l 1,28,-1
1024 0 m 1,32,-1
 1024 64 l 1,33,-1
 960 64 l 1,34,-1
 960 0 l 1,35,-1
 1024 0 l 1,32,-1
64 64 m 1,36,-1
 64 128 l 1,37,-1
 0 128 l 1,38,-1
 0 64 l 1,39,-1
 64 64 l 1,36,-1
1024 128 m 1,40,-1
 1024 192 l 1,41,-1
 960 192 l 1,42,-1
 960 128 l 1,43,-1
 1024 128 l 1,40,-1
1024 256 m 1,44,-1
 1024 320 l 1,45,-1
 960 320 l 1,46,-1
 960 384 l 1,47,-1
 1024 384 l 1,48,-1
 1024 448 l 1,49,-1
 960 448 l 1,50,-1
 960 512 l 1,51,-1
 1024 512 l 1,52,-1
 1024 576 l 1,53,-1
 896 576 l 1,54,55
 896 576 896 576 896 448 c 1,56,-1
 832 448 l 1,57,-1
 832 384 l 1,58,-1
 896 384 l 1,59,60
 896 384 896 384 896 256 c 1,61,-1
 1024 256 l 1,44,-1
320 320 m 1,62,-1
 320 384 l 1,63,-1
 256 384 l 1,64,-1
 256 320 l 1,65,-1
 64 320 l 1,66,-1
 64 256 l 1,67,-1
 0 256 l 1,68,-1
 0 192 l 1,69,-1
 64 192 l 1,70,-1
 64 256 l 1,71,-1
 256 256 l 1,72,-1
 256 320 l 1,73,-1
 320 320 l 1,62,-1
256 512 m 1,74,-1
 256 576 l 1,75,-1
 128 576 l 1,76,-1
 128 512 l 1,77,-1
 0 512 l 1,78,-1
 0 448 l 1,79,-1
 128 448 l 1,80,-1
 128 384 l 1,81,-1
 256 384 l 1,82,-1
 256 448 l 1,83,-1
 128 448 l 1,84,-1
 128 512 l 1,85,-1
 256 512 l 1,74,-1
640 512 m 1,86,-1
 640 576 l 1,87,-1
 576 576 l 1,88,-1
 576 512 l 1,89,-1
 512 512 l 1,90,-1
 512 448 l 1,91,-1
 448 448 l 1,92,-1
 448 256 l 1,93,-1
 512 256 l 1,94,-1
 512 448 l 1,95,-1
 576 448 l 1,96,-1
 576 512 l 1,97,-1
 640 512 l 1,86,-1
64 576 m 1,98,-1
 64 640 l 1,99,-1
 0 640 l 1,100,-1
 0 576 l 1,101,-1
 64 576 l 1,98,-1
1024 640 m 1,102,-1
 1024 704 l 1,103,-1
 960 704 l 1,104,-1
 960 640 l 1,105,-1
 1024 640 l 1,102,-1
64 704 m 1,106,-1
 64 768 l 1,107,-1
 0 768 l 1,108,-1
 0 704 l 1,109,-1
 64 704 l 1,106,-1
1024 768 m 1,110,-1
 1024 832 l 1,111,-1
 960 832 l 1,112,-1
 960 768 l 1,113,-1
 1024 768 l 1,110,-1
64 832 m 1,114,-1
 64 896 l 1,115,-1
 0 896 l 1,116,-1
 0 832 l 1,117,-1
 64 832 l 1,114,-1
192 832 m 1,118,-1
 192 896 l 1,119,-1
 128 896 l 1,120,-1
 128 832 l 1,121,-1
 192 832 l 1,118,-1
320 832 m 1,122,-1
 320 896 l 1,123,-1
 256 896 l 1,124,-1
 256 832 l 1,125,-1
 320 832 l 1,122,-1
448 832 m 1,126,-1
 448 896 l 1,127,-1
 384 896 l 1,128,-1
 384 832 l 1,129,-1
 448 832 l 1,126,-1
576 832 m 1,130,-1
 576 896 l 1,131,-1
 512 896 l 1,132,-1
 512 832 l 1,133,-1
 576 832 l 1,130,-1
704 832 m 1,134,-1
 704 896 l 1,135,-1
 640 896 l 1,136,-1
 640 832 l 1,137,-1
 704 832 l 1,134,-1
832 832 m 1,138,-1
 832 896 l 1,139,-1
 768 896 l 1,140,-1
 768 832 l 1,141,-1
 832 832 l 1,138,-1
64 -64 m 1,142,-1
 64 0 l 1,143,-1
 0 0 l 1,144,-1
 0 -64 l 1,145,-1
 64 -64 l 1,142,-1
64 320 m 1,146,-1
 64 384 l 1,147,-1
 0 384 l 1,148,-1
 0 320 l 1,149,-1
 64 320 l 1,146,-1
704 576 m 1,150,-1
 704 256 l 1,151,-1
 768 256 l 1,152,-1
 768 448 l 1,153,-1
 832 448 l 1,154,-1
 832 512 l 1,155,-1
 768 512 l 1,156,-1
 768 576 l 1,157,-1
 704 576 l 1,150,-1
448 448 m 1,158,-1
 448 512 l 1,159,-1
 384 512 l 1,160,-1
 384 448 l 1,161,-1
 448 448 l 1,158,-1
384 512 m 1,162,-1
 384 576 l 1,163,-1
 320 576 l 1,164,-1
 320 512 l 1,165,-1
 384 512 l 1,162,-1
960 832 m 1,166,-1
 960 896 l 1,167,-1
 896 896 l 1,168,-1
 896 832 l 1,169,-1
 960 832 l 1,166,-1
EndSplineSet
EndChar

StartChar: uni0017
Encoding: 23 23 23
Width: 1024
GlyphClass: 2
Flags: W
LayerCount: 2
Fore
SplineSet
128 -128 m 1,0,-1
 128 -64 l 1,1,-1
 64 -64 l 1,2,-1
 64 -128 l 1,3,-1
 128 -128 l 1,0,-1
256 -128 m 1,4,-1
 256 -64 l 1,5,-1
 192 -64 l 1,6,-1
 192 -128 l 1,7,-1
 256 -128 l 1,4,-1
384 -128 m 1,8,-1
 384 -64 l 1,9,-1
 320 -64 l 1,10,-1
 320 -128 l 1,11,-1
 384 -128 l 1,8,-1
512 -128 m 1,12,-1
 512 -64 l 1,13,-1
 448 -64 l 1,14,-1
 448 -128 l 1,15,-1
 512 -128 l 1,12,-1
640 -128 m 1,16,-1
 640 -64 l 1,17,-1
 576 -64 l 1,18,-1
 576 -128 l 1,19,-1
 640 -128 l 1,16,-1
768 -128 m 1,20,-1
 768 -64 l 1,21,-1
 704 -64 l 1,22,-1
 704 -128 l 1,23,-1
 768 -128 l 1,20,-1
896 -128 m 1,24,-1
 896 -64 l 1,25,-1
 832 -64 l 1,26,-1
 832 -128 l 1,27,-1
 896 -128 l 1,24,-1
1024 -128 m 1,28,-1
 1024 -64 l 1,29,-1
 960 -64 l 1,30,-1
 960 -128 l 1,31,-1
 1024 -128 l 1,28,-1
1024 0 m 1,32,-1
 1024 64 l 1,33,-1
 960 64 l 1,34,-1
 960 0 l 1,35,-1
 1024 0 l 1,32,-1
64 64 m 1,36,-1
 64 128 l 1,37,-1
 0 128 l 1,38,-1
 0 64 l 1,39,-1
 64 64 l 1,36,-1
1024 128 m 1,40,-1
 1024 192 l 1,41,-1
 960 192 l 1,42,-1
 960 128 l 1,43,-1
 1024 128 l 1,40,-1
320 256 m 1,44,-1
 320 320 l 1,45,-1
 128 320 l 1,46,-1
 128 384 l 1,47,-1
 320 384 l 1,48,-1
 320 448 l 1,49,-1
 128 448 l 1,50,-1
 128 512 l 1,51,-1
 320 512 l 1,52,-1
 320 576 l 1,53,-1
 64 576 l 1,54,-1
 64 512 l 1,55,-1
 0 512 l 1,56,-1
 0 448 l 1,57,-1
 64 448 l 1,58,-1
 64 384 l 1,59,-1
 0 384 l 1,60,-1
 0 320 l 1,61,-1
 64 320 l 1,62,-1
 64 256 l 1,63,-1
 0 256 l 1,64,-1
 0 192 l 1,65,-1
 64 192 l 1,66,-1
 64 256 l 1,67,-1
 320 256 l 1,44,-1
1024 256 m 1,68,-1
 1024 320 l 1,69,-1
 960 320 l 1,70,-1
 960 256 l 1,71,-1
 1024 256 l 1,68,-1
896 320 m 1,72,-1
 896 384 l 1,73,-1
 832 384 l 1,74,-1
 832 320 l 1,75,-1
 704 320 l 1,76,-1
 704 384 l 1,77,-1
 832 384 l 1,78,-1
 832 448 l 1,79,-1
 704 448 l 1,80,-1
 704 512 l 1,81,-1
 832 512 l 1,82,-1
 832 448 l 1,83,-1
 896 448 l 1,84,-1
 896 512 l 1,85,-1
 832 512 l 1,86,-1
 832 576 l 1,87,-1
 640 576 l 1,88,-1
 640 256 l 1,89,-1
 832 256 l 1,90,-1
 832 320 l 1,91,-1
 896 320 l 1,72,-1
1024 384 m 1,92,-1
 1024 448 l 1,93,-1
 960 448 l 1,94,-1
 960 384 l 1,95,-1
 1024 384 l 1,92,-1
576 512 m 1,96,-1
 576 576 l 1,97,-1
 384 576 l 1,98,-1
 384 512 l 1,99,-1
 448 512 l 1,100,101
 448 512 448 512 448 256 c 1,102,-1
 512 256 l 1,103,104
 512 256 512 256 512 512 c 1,105,-1
 576 512 l 1,96,-1
1024 512 m 1,106,-1
 1024 576 l 1,107,-1
 960 576 l 1,108,-1
 960 512 l 1,109,-1
 1024 512 l 1,106,-1
1024 640 m 1,110,-1
 1024 704 l 1,111,-1
 960 704 l 1,112,-1
 960 640 l 1,113,-1
 1024 640 l 1,110,-1
64 704 m 1,114,-1
 64 768 l 1,115,-1
 0 768 l 1,116,-1
 0 704 l 1,117,-1
 64 704 l 1,114,-1
1024 768 m 1,118,-1
 1024 832 l 1,119,-1
 960 832 l 1,120,-1
 960 768 l 1,121,-1
 1024 768 l 1,118,-1
64 832 m 1,122,-1
 64 896 l 1,123,-1
 0 896 l 1,124,-1
 0 832 l 1,125,-1
 64 832 l 1,122,-1
192 832 m 1,126,-1
 192 896 l 1,127,-1
 128 896 l 1,128,-1
 128 832 l 1,129,-1
 192 832 l 1,126,-1
320 832 m 1,130,-1
 320 896 l 1,131,-1
 256 896 l 1,132,-1
 256 832 l 1,133,-1
 320 832 l 1,130,-1
448 832 m 1,134,-1
 448 896 l 1,135,-1
 384 896 l 1,136,-1
 384 832 l 1,137,-1
 448 832 l 1,134,-1
576 832 m 1,138,-1
 576 896 l 1,139,-1
 512 896 l 1,140,-1
 512 832 l 1,141,-1
 576 832 l 1,138,-1
704 832 m 1,142,-1
 704 896 l 1,143,-1
 640 896 l 1,144,-1
 640 832 l 1,145,-1
 704 832 l 1,142,-1
832 832 m 1,146,-1
 832 896 l 1,147,-1
 768 896 l 1,148,-1
 768 832 l 1,149,-1
 832 832 l 1,146,-1
64 -64 m 1,150,-1
 64 0 l 1,151,-1
 0 0 l 1,152,-1
 0 -64 l 1,153,-1
 64 -64 l 1,150,-1
64 576 m 1,154,-1
 64 640 l 1,155,-1
 0 640 l 1,156,-1
 0 576 l 1,157,-1
 64 576 l 1,154,-1
960 832 m 1,158,-1
 960 896 l 1,159,-1
 896 896 l 1,160,-1
 896 832 l 1,161,-1
 960 832 l 1,158,-1
EndSplineSet
EndChar

StartChar: uni0018
Encoding: 24 24 24
Width: 1024
GlyphClass: 2
Flags: W
LayerCount: 2
Fore
SplineSet
128 -128 m 1,0,-1
 128 -64 l 1,1,-1
 64 -64 l 1,2,-1
 64 -128 l 1,3,-1
 128 -128 l 1,0,-1
256 -128 m 1,4,-1
 256 -64 l 1,5,-1
 192 -64 l 1,6,-1
 192 -128 l 1,7,-1
 256 -128 l 1,4,-1
384 -128 m 1,8,-1
 384 -64 l 1,9,-1
 320 -64 l 1,10,-1
 320 -128 l 1,11,-1
 384 -128 l 1,8,-1
512 -128 m 1,12,-1
 512 -64 l 1,13,-1
 448 -64 l 1,14,-1
 448 -128 l 1,15,-1
 512 -128 l 1,12,-1
640 -128 m 1,16,-1
 640 -64 l 1,17,-1
 576 -64 l 1,18,-1
 576 -128 l 1,19,-1
 640 -128 l 1,16,-1
768 -128 m 1,20,-1
 768 -64 l 1,21,-1
 704 -64 l 1,22,-1
 704 -128 l 1,23,-1
 768 -128 l 1,20,-1
896 -128 m 1,24,-1
 896 -64 l 1,25,-1
 832 -64 l 1,26,-1
 832 -128 l 1,27,-1
 896 -128 l 1,24,-1
1024 -128 m 1,28,-1
 1024 -64 l 1,29,-1
 960 -64 l 1,30,-1
 960 -128 l 1,31,-1
 1024 -128 l 1,28,-1
1024 0 m 1,32,-1
 1024 64 l 1,33,-1
 960 64 l 1,34,-1
 960 0 l 1,35,-1
 1024 0 l 1,32,-1
64 64 m 1,36,-1
 64 128 l 1,37,-1
 0 128 l 1,38,-1
 0 64 l 1,39,-1
 64 64 l 1,36,-1
1024 128 m 1,40,-1
 1024 192 l 1,41,-1
 960 192 l 1,42,-1
 960 128 l 1,43,-1
 1024 128 l 1,40,-1
64 192 m 1,44,-1
 64 256 l 1,45,-1
 0 256 l 1,46,-1
 0 192 l 1,47,-1
 64 192 l 1,44,-1
256 256 m 1,48,-1
 256 320 l 1,49,-1
 128 320 l 1,50,-1
 128 256 l 1,51,-1
 256 256 l 1,48,-1
1024 256 m 1,52,-1
 1024 320 l 1,53,-1
 960 320 l 1,54,-1
 960 256 l 1,55,-1
 1024 256 l 1,52,-1
1024 384 m 1,56,-1
 1024 448 l 1,57,-1
 960 448 l 1,58,-1
 960 384 l 1,59,-1
 1024 384 l 1,56,-1
256 512 m 1,60,-1
 256 576 l 1,61,-1
 128 576 l 1,62,-1
 128 512 l 1,63,-1
 0 512 l 1,64,-1
 0 448 l 1,65,-1
 64 448 l 1,66,-1
 64 384 l 1,67,-1
 0 384 l 1,68,-1
 0 320 l 1,69,-1
 128 320 l 1,70,-1
 128 512 l 1,71,-1
 256 512 l 1,60,-1
1024 512 m 1,72,-1
 1024 576 l 1,73,-1
 960 576 l 1,74,-1
 960 512 l 1,75,-1
 1024 512 l 1,72,-1
64 576 m 1,76,-1
 64 640 l 1,77,-1
 0 640 l 1,78,-1
 0 576 l 1,79,-1
 64 576 l 1,76,-1
1024 640 m 1,80,-1
 1024 704 l 1,81,-1
 960 704 l 1,82,-1
 960 640 l 1,83,-1
 1024 640 l 1,80,-1
64 704 m 1,84,-1
 64 768 l 1,85,-1
 0 768 l 1,86,-1
 0 704 l 1,87,-1
 64 704 l 1,84,-1
1024 768 m 1,88,-1
 1024 832 l 1,89,-1
 960 832 l 1,90,-1
 960 768 l 1,91,-1
 1024 768 l 1,88,-1
64 832 m 1,92,-1
 64 896 l 1,93,-1
 0 896 l 1,94,-1
 0 832 l 1,95,-1
 64 832 l 1,92,-1
192 832 m 1,96,-1
 192 896 l 1,97,-1
 128 896 l 1,98,-1
 128 832 l 1,99,-1
 192 832 l 1,96,-1
320 832 m 1,100,-1
 320 896 l 1,101,-1
 256 896 l 1,102,-1
 256 832 l 1,103,-1
 320 832 l 1,100,-1
448 832 m 1,104,-1
 448 896 l 1,105,-1
 384 896 l 1,106,-1
 384 832 l 1,107,-1
 448 832 l 1,104,-1
576 832 m 1,108,-1
 576 896 l 1,109,-1
 512 896 l 1,110,-1
 512 832 l 1,111,-1
 576 832 l 1,108,-1
704 832 m 1,112,-1
 704 896 l 1,113,-1
 640 896 l 1,114,-1
 640 832 l 1,115,-1
 704 832 l 1,112,-1
832 832 m 1,116,-1
 832 896 l 1,117,-1
 768 896 l 1,118,-1
 768 832 l 1,119,-1
 832 832 l 1,116,-1
64 -64 m 1,120,-1
 64 0 l 1,121,-1
 0 0 l 1,122,-1
 0 -64 l 1,123,-1
 64 -64 l 1,120,-1
320 512 m 1,124,125
 320 512 320 512 320 256 c 1,126,-1
 384 256 l 1,127,128
 384 256 384 256 384 384 c 1,129,-1
 512 384 l 1,130,131
 512 384 512 384 512 256 c 1,132,-1
 576 256 l 1,133,134
 576 256 576 256 576 512 c 1,135,-1
 512 512 l 1,136,-1
 512 448 l 1,137,-1
 384 448 l 1,138,-1
 384 512 l 1,139,-1
 320 512 l 1,124,125
640 576 m 1,140,-1
 640 256 l 1,141,-1
 704 256 l 1,142,-1
 704 448 l 1,143,-1
 768 448 l 1,144,-1
 768 384 l 1,145,-1
 832 384 l 1,146,147
 832 384 832 384 832 256 c 1,148,-1
 896 256 l 1,149,-1
 896 576 l 1,150,-1
 832 576 l 1,151,152
 832 576 832 576 832 448 c 1,153,-1
 768 448 l 1,154,-1
 768 512 l 1,155,-1
 704 512 l 1,156,-1
 704 576 l 1,157,-1
 640 576 l 1,140,-1
384 512 m 1,158,-1
 512 512 l 1,159,-1
 512 576 l 1,160,-1
 384 576 l 1,161,-1
 384 512 l 1,158,-1
960 832 m 1,162,-1
 960 896 l 1,163,-1
 896 896 l 1,164,-1
 896 832 l 1,165,-1
 960 832 l 1,162,-1
EndSplineSet
EndChar

StartChar: uni0019
Encoding: 25 25 25
Width: 1024
GlyphClass: 2
Flags: W
LayerCount: 2
Fore
SplineSet
128 -128 m 1,0,-1
 128 -64 l 1,1,-1
 64 -64 l 1,2,-1
 64 -128 l 1,3,-1
 128 -128 l 1,0,-1
256 -128 m 1,4,-1
 256 -64 l 1,5,-1
 192 -64 l 1,6,-1
 192 -128 l 1,7,-1
 256 -128 l 1,4,-1
384 -128 m 1,8,-1
 384 -64 l 1,9,-1
 320 -64 l 1,10,-1
 320 -128 l 1,11,-1
 384 -128 l 1,8,-1
512 -128 m 1,12,-1
 512 -64 l 1,13,-1
 448 -64 l 1,14,-1
 448 -128 l 1,15,-1
 512 -128 l 1,12,-1
640 -128 m 1,16,-1
 640 -64 l 1,17,-1
 576 -64 l 1,18,-1
 576 -128 l 1,19,-1
 640 -128 l 1,16,-1
768 -128 m 1,20,-1
 768 -64 l 1,21,-1
 704 -64 l 1,22,-1
 704 -128 l 1,23,-1
 768 -128 l 1,20,-1
896 -128 m 1,24,-1
 896 -64 l 1,25,-1
 832 -64 l 1,26,-1
 832 -128 l 1,27,-1
 896 -128 l 1,24,-1
1024 -128 m 1,28,-1
 1024 -64 l 1,29,-1
 960 -64 l 1,30,-1
 960 -128 l 1,31,-1
 1024 -128 l 1,28,-1
1024 0 m 1,32,-1
 1024 64 l 1,33,-1
 960 64 l 1,34,-1
 960 0 l 1,35,-1
 1024 0 l 1,32,-1
64 64 m 1,36,-1
 64 128 l 1,37,-1
 0 128 l 1,38,-1
 0 64 l 1,39,-1
 64 64 l 1,36,-1
1024 128 m 1,40,-1
 1024 192 l 1,41,-1
 960 192 l 1,42,-1
 960 128 l 1,43,-1
 1024 128 l 1,40,-1
64 192 m 1,44,-1
 64 256 l 1,45,-1
 0 256 l 1,46,-1
 0 192 l 1,47,-1
 64 192 l 1,44,-1
448 256 m 1,48,-1
 448 320 l 1,49,-1
 192 320 l 1,50,-1
 192 384 l 1,51,-1
 448 384 l 1,52,-1
 448 448 l 1,53,-1
 192 448 l 1,54,-1
 192 512 l 1,55,-1
 448 512 l 1,56,-1
 448 576 l 1,57,-1
 128 576 l 1,58,-1
 128 256 l 1,59,-1
 448 256 l 1,48,-1
1024 256 m 1,60,-1
 1024 320 l 1,61,-1
 960 320 l 1,62,-1
 960 256 l 1,63,-1
 1024 256 l 1,60,-1
64 320 m 1,64,-1
 64 384 l 1,65,-1
 0 384 l 1,66,-1
 0 320 l 1,67,-1
 64 320 l 1,64,-1
1024 384 m 1,68,-1
 1024 448 l 1,69,-1
 960 448 l 1,70,-1
 960 384 l 1,71,-1
 1024 384 l 1,68,-1
64 448 m 1,72,-1
 64 512 l 1,73,-1
 0 512 l 1,74,-1
 0 448 l 1,75,-1
 64 448 l 1,72,-1
1024 512 m 1,76,-1
 1024 576 l 1,77,-1
 960 576 l 1,78,-1
 960 512 l 1,79,-1
 1024 512 l 1,76,-1
64 576 m 1,80,-1
 64 640 l 1,81,-1
 0 640 l 1,82,-1
 0 576 l 1,83,-1
 64 576 l 1,80,-1
1024 640 m 1,84,-1
 1024 704 l 1,85,-1
 960 704 l 1,86,-1
 960 640 l 1,87,-1
 1024 640 l 1,84,-1
64 704 m 1,88,-1
 64 768 l 1,89,-1
 0 768 l 1,90,-1
 0 704 l 1,91,-1
 64 704 l 1,88,-1
1024 768 m 1,92,-1
 1024 832 l 1,93,-1
 960 832 l 1,94,-1
 960 768 l 1,95,-1
 1024 768 l 1,92,-1
64 832 m 1,96,-1
 64 896 l 1,97,-1
 0 896 l 1,98,-1
 0 832 l 1,99,-1
 64 832 l 1,96,-1
192 832 m 1,100,-1
 192 896 l 1,101,-1
 128 896 l 1,102,-1
 128 832 l 1,103,-1
 192 832 l 1,100,-1
320 832 m 1,104,-1
 320 896 l 1,105,-1
 256 896 l 1,106,-1
 256 832 l 1,107,-1
 320 832 l 1,104,-1
448 832 m 1,108,-1
 448 896 l 1,109,-1
 384 896 l 1,110,-1
 384 832 l 1,111,-1
 448 832 l 1,108,-1
576 832 m 1,112,-1
 576 896 l 1,113,-1
 512 896 l 1,114,-1
 512 832 l 1,115,-1
 576 832 l 1,112,-1
704 832 m 1,116,-1
 704 896 l 1,117,-1
 640 896 l 1,118,-1
 640 832 l 1,119,-1
 704 832 l 1,116,-1
832 832 m 1,120,-1
 832 896 l 1,121,-1
 768 896 l 1,122,-1
 768 832 l 1,123,-1
 832 832 l 1,120,-1
64 -64 m 1,124,-1
 64 0 l 1,125,-1
 0 0 l 1,126,-1
 0 -64 l 1,127,-1
 64 -64 l 1,124,-1
512 576 m 1,128,-1
 512 256 l 1,129,-1
 576 256 l 1,130,-1
 576 448 l 1,131,-1
 640 448 l 1,132,-1
 640 384 l 1,133,-1
 704 384 l 1,134,-1
 704 448 l 1,135,-1
 640 448 l 1,136,-1
 640 512 l 1,137,-1
 576 512 l 1,138,-1
 576 576 l 1,139,-1
 512 576 l 1,128,-1
768 448 m 1,140,-1
 768 256 l 1,141,-1
 832 256 l 1,142,-1
 832 576 l 1,143,-1
 768 576 l 1,144,-1
 768 512 l 1,145,-1
 704 512 l 1,146,-1
 704 448 l 1,147,-1
 768 448 l 1,140,-1
960 832 m 1,148,-1
 960 896 l 1,149,-1
 896 896 l 1,150,-1
 896 832 l 1,151,-1
 960 832 l 1,148,-1
EndSplineSet
EndChar

StartChar: uni001A
Encoding: 26 26 26
Width: 1024
GlyphClass: 2
Flags: W
LayerCount: 2
Fore
SplineSet
128 -128 m 1,0,-1
 128 -64 l 1,1,-1
 64 -64 l 1,2,-1
 64 -128 l 1,3,-1
 128 -128 l 1,0,-1
256 -128 m 1,4,-1
 256 -64 l 1,5,-1
 192 -64 l 1,6,-1
 192 -128 l 1,7,-1
 256 -128 l 1,4,-1
384 -128 m 1,8,-1
 384 -64 l 1,9,-1
 320 -64 l 1,10,-1
 320 -128 l 1,11,-1
 384 -128 l 1,8,-1
512 -128 m 1,12,-1
 512 -64 l 1,13,-1
 448 -64 l 1,14,-1
 448 -128 l 1,15,-1
 512 -128 l 1,12,-1
640 -128 m 1,16,-1
 640 -64 l 1,17,-1
 576 -64 l 1,18,-1
 576 -128 l 1,19,-1
 640 -128 l 1,16,-1
768 -128 m 1,20,-1
 768 -64 l 1,21,-1
 704 -64 l 1,22,-1
 704 -128 l 1,23,-1
 768 -128 l 1,20,-1
896 -128 m 1,24,-1
 896 -64 l 1,25,-1
 832 -64 l 1,26,-1
 832 -128 l 1,27,-1
 896 -128 l 1,24,-1
1024 -128 m 1,28,-1
 1024 -64 l 1,29,-1
 960 -64 l 1,30,-1
 960 -128 l 1,31,-1
 1024 -128 l 1,28,-1
1024 0 m 1,32,-1
 1024 64 l 1,33,-1
 960 64 l 1,34,-1
 960 0 l 1,35,-1
 1024 0 l 1,32,-1
64 64 m 1,36,-1
 64 128 l 1,37,-1
 0 128 l 1,38,-1
 0 64 l 1,39,-1
 64 64 l 1,36,-1
1024 128 m 1,40,-1
 1024 192 l 1,41,-1
 960 192 l 1,42,-1
 960 128 l 1,43,-1
 1024 128 l 1,40,-1
1024 256 m 1,44,-1
 1024 320 l 1,45,-1
 960 320 l 1,46,-1
 960 256 l 1,47,-1
 1024 256 l 1,44,-1
320 320 m 1,48,-1
 320 384 l 1,49,-1
 256 384 l 1,50,-1
 256 320 l 1,51,-1
 64 320 l 1,52,-1
 64 256 l 1,53,-1
 0 256 l 1,54,-1
 0 192 l 1,55,-1
 64 192 l 1,56,-1
 64 256 l 1,57,-1
 256 256 l 1,58,-1
 256 320 l 1,59,-1
 320 320 l 1,48,-1
1024 384 m 1,60,-1
 1024 448 l 1,61,-1
 960 448 l 1,62,-1
 960 384 l 1,63,-1
 896 384 l 1,64,-1
 896 320 l 1,65,-1
 768 320 l 1,66,-1
 768 384 l 1,67,-1
 896 384 l 1,68,-1
 896 448 l 1,69,-1
 768 448 l 1,70,-1
 768 512 l 1,71,-1
 896 512 l 1,72,-1
 896 448 l 1,73,-1
 960 448 l 1,74,-1
 960 512 l 1,75,-1
 896 512 l 1,76,-1
 896 576 l 1,77,-1
 704 576 l 1,78,-1
 704 256 l 1,79,-1
 896 256 l 1,80,-1
 896 320 l 1,81,-1
 960 320 l 1,82,-1
 960 384 l 1,83,-1
 1024 384 l 1,60,-1
320 512 m 1,84,-1
 320 576 l 1,85,-1
 128 576 l 1,86,-1
 128 512 l 1,87,-1
 0 512 l 1,88,-1
 0 448 l 1,89,-1
 128 448 l 1,90,-1
 128 384 l 1,91,-1
 256 384 l 1,92,-1
 256 448 l 1,93,-1
 128 448 l 1,94,-1
 128 512 l 1,95,-1
 320 512 l 1,84,-1
1024 512 m 1,96,-1
 1024 576 l 1,97,-1
 960 576 l 1,98,-1
 960 512 l 1,99,-1
 1024 512 l 1,96,-1
64 576 m 1,100,-1
 64 640 l 1,101,-1
 0 640 l 1,102,-1
 0 576 l 1,103,-1
 64 576 l 1,100,-1
1024 640 m 1,104,-1
 1024 704 l 1,105,-1
 960 704 l 1,106,-1
 960 640 l 1,107,-1
 1024 640 l 1,104,-1
64 704 m 1,108,-1
 64 768 l 1,109,-1
 0 768 l 1,110,-1
 0 704 l 1,111,-1
 64 704 l 1,108,-1
1024 768 m 1,112,-1
 1024 832 l 1,113,-1
 960 832 l 1,114,-1
 960 768 l 1,115,-1
 1024 768 l 1,112,-1
64 832 m 1,116,-1
 64 896 l 1,117,-1
 0 896 l 1,118,-1
 0 832 l 1,119,-1
 64 832 l 1,116,-1
192 832 m 1,120,-1
 192 896 l 1,121,-1
 128 896 l 1,122,-1
 128 832 l 1,123,-1
 192 832 l 1,120,-1
320 832 m 1,124,-1
 320 896 l 1,125,-1
 256 896 l 1,126,-1
 256 832 l 1,127,-1
 320 832 l 1,124,-1
448 832 m 1,128,-1
 448 896 l 1,129,-1
 384 896 l 1,130,-1
 384 832 l 1,131,-1
 448 832 l 1,128,-1
576 832 m 1,132,-1
 576 896 l 1,133,-1
 512 896 l 1,134,-1
 512 832 l 1,135,-1
 576 832 l 1,132,-1
704 832 m 1,136,-1
 704 896 l 1,137,-1
 640 896 l 1,138,-1
 640 832 l 1,139,-1
 704 832 l 1,136,-1
832 832 m 1,140,-1
 832 896 l 1,141,-1
 768 896 l 1,142,-1
 768 832 l 1,143,-1
 832 832 l 1,140,-1
64 -64 m 1,144,-1
 64 0 l 1,145,-1
 0 0 l 1,146,-1
 0 -64 l 1,147,-1
 64 -64 l 1,144,-1
64 320 m 1,148,-1
 64 384 l 1,149,-1
 0 384 l 1,150,-1
 0 320 l 1,151,-1
 64 320 l 1,148,-1
448 320 m 1,152,-1
 448 256 l 1,153,-1
 576 256 l 1,154,-1
 576 320 l 1,155,-1
 448 320 l 1,152,-1
448 320 m 1,156,157
 448 320 448 320 448 576 c 1,158,-1
 384 576 l 1,159,160
 384 576 384 576 384 320 c 1,161,-1
 448 320 l 1,156,157
576 320 m 1,162,-1
 640 320 l 1,163,164
 640 320 640 320 640 576 c 1,165,-1
 576 576 l 1,166,167
 576 576 576 576 576 320 c 1,162,-1
960 832 m 1,168,-1
 960 896 l 1,169,-1
 896 896 l 1,170,-1
 896 832 l 1,171,-1
 960 832 l 1,168,-1
EndSplineSet
EndChar

StartChar: uni001B
Encoding: 27 27 27
Width: 1024
GlyphClass: 2
Flags: W
LayerCount: 2
Fore
SplineSet
128 -128 m 1,0,-1
 128 -64 l 1,1,-1
 64 -64 l 1,2,-1
 64 -128 l 1,3,-1
 128 -128 l 1,0,-1
256 -128 m 1,4,-1
 256 -64 l 1,5,-1
 192 -64 l 1,6,-1
 192 -128 l 1,7,-1
 256 -128 l 1,4,-1
384 -128 m 1,8,-1
 384 -64 l 1,9,-1
 320 -64 l 1,10,-1
 320 -128 l 1,11,-1
 384 -128 l 1,8,-1
512 -128 m 1,12,-1
 512 -64 l 1,13,-1
 448 -64 l 1,14,-1
 448 -128 l 1,15,-1
 512 -128 l 1,12,-1
640 -128 m 1,16,-1
 640 -64 l 1,17,-1
 576 -64 l 1,18,-1
 576 -128 l 1,19,-1
 640 -128 l 1,16,-1
768 -128 m 1,20,-1
 768 -64 l 1,21,-1
 704 -64 l 1,22,-1
 704 -128 l 1,23,-1
 768 -128 l 1,20,-1
896 -128 m 1,24,-1
 896 -64 l 1,25,-1
 832 -64 l 1,26,-1
 832 -128 l 1,27,-1
 896 -128 l 1,24,-1
1024 -128 m 1,28,-1
 1024 -64 l 1,29,-1
 960 -64 l 1,30,-1
 960 -128 l 1,31,-1
 1024 -128 l 1,28,-1
1024 0 m 1,32,-1
 1024 64 l 1,33,-1
 960 64 l 1,34,-1
 960 0 l 1,35,-1
 1024 0 l 1,32,-1
64 64 m 1,36,-1
 64 128 l 1,37,-1
 0 128 l 1,38,-1
 0 64 l 1,39,-1
 64 64 l 1,36,-1
1024 128 m 1,40,-1
 1024 192 l 1,41,-1
 960 192 l 1,42,-1
 960 128 l 1,43,-1
 1024 128 l 1,40,-1
320 256 m 1,44,-1
 320 320 l 1,45,-1
 128 320 l 1,46,-1
 128 384 l 1,47,-1
 320 384 l 1,48,-1
 320 448 l 1,49,-1
 128 448 l 1,50,-1
 128 512 l 1,51,-1
 320 512 l 1,52,-1
 320 576 l 1,53,-1
 64 576 l 1,54,-1
 64 512 l 1,55,-1
 0 512 l 1,56,-1
 0 448 l 1,57,-1
 64 448 l 1,58,-1
 64 384 l 1,59,-1
 0 384 l 1,60,-1
 0 320 l 1,61,-1
 64 320 l 1,62,-1
 64 256 l 1,63,-1
 0 256 l 1,64,-1
 0 192 l 1,65,-1
 64 192 l 1,66,-1
 64 256 l 1,67,-1
 320 256 l 1,44,-1
1024 256 m 1,68,-1
 1024 320 l 1,69,-1
 768 320 l 1,70,-1
 768 256 l 1,71,-1
 1024 256 l 1,68,-1
640 320 m 1,72,-1
 640 384 l 1,73,-1
 576 384 l 1,74,-1
 576 320 l 1,75,-1
 384 320 l 1,76,-1
 384 256 l 1,77,-1
 576 256 l 1,78,-1
 576 320 l 1,79,-1
 640 320 l 1,72,-1
1024 384 m 1,80,-1
 1024 448 l 1,81,-1
 960 448 l 1,82,-1
 960 384 l 1,83,-1
 1024 384 l 1,80,-1
640 512 m 1,84,-1
 640 576 l 1,85,-1
 448 576 l 1,86,-1
 448 512 l 1,87,-1
 384 512 l 1,88,-1
 384 448 l 1,89,-1
 448 448 l 1,90,-1
 448 384 l 1,91,-1
 576 384 l 1,92,-1
 576 448 l 1,93,-1
 448 448 l 1,94,-1
 448 512 l 1,95,-1
 640 512 l 1,84,-1
1024 512 m 1,96,-1
 1024 576 l 1,97,-1
 768 576 l 1,98,-1
 768 512 l 1,99,-1
 704 512 l 1,100,-1
 704 320 l 1,101,-1
 768 320 l 1,102,-1
 768 512 l 1,103,-1
 1024 512 l 1,96,-1
1024 640 m 1,104,-1
 1024 704 l 1,105,-1
 960 704 l 1,106,-1
 960 640 l 1,107,-1
 1024 640 l 1,104,-1
64 704 m 1,108,-1
 64 768 l 1,109,-1
 0 768 l 1,110,-1
 0 704 l 1,111,-1
 64 704 l 1,108,-1
1024 768 m 1,112,-1
 1024 832 l 1,113,-1
 960 832 l 1,114,-1
 960 768 l 1,115,-1
 1024 768 l 1,112,-1
64 832 m 1,116,-1
 64 896 l 1,117,-1
 0 896 l 1,118,-1
 0 832 l 1,119,-1
 64 832 l 1,116,-1
192 832 m 1,120,-1
 192 896 l 1,121,-1
 128 896 l 1,122,-1
 128 832 l 1,123,-1
 192 832 l 1,120,-1
320 832 m 1,124,-1
 320 896 l 1,125,-1
 256 896 l 1,126,-1
 256 832 l 1,127,-1
 320 832 l 1,124,-1
448 832 m 1,128,-1
 448 896 l 1,129,-1
 384 896 l 1,130,-1
 384 832 l 1,131,-1
 448 832 l 1,128,-1
576 832 m 1,132,-1
 576 896 l 1,133,-1
 512 896 l 1,134,-1
 512 832 l 1,135,-1
 576 832 l 1,132,-1
704 832 m 1,136,-1
 704 896 l 1,137,-1
 640 896 l 1,138,-1
 640 832 l 1,139,-1
 704 832 l 1,136,-1
832 832 m 1,140,-1
 832 896 l 1,141,-1
 768 896 l 1,142,-1
 768 832 l 1,143,-1
 832 832 l 1,140,-1
64 -64 m 1,144,-1
 64 0 l 1,145,-1
 0 0 l 1,146,-1
 0 -64 l 1,147,-1
 64 -64 l 1,144,-1
64 576 m 1,148,-1
 64 640 l 1,149,-1
 0 640 l 1,150,-1
 0 576 l 1,151,-1
 64 576 l 1,148,-1
960 832 m 1,152,-1
 960 896 l 1,153,-1
 896 896 l 1,154,-1
 896 832 l 1,155,-1
 960 832 l 1,152,-1
EndSplineSet
EndChar

StartChar: uni001C
Encoding: 28 28 28
Width: 1024
GlyphClass: 2
Flags: W
LayerCount: 2
Fore
SplineSet
128 -128 m 1,0,-1
 128 -64 l 1,1,-1
 64 -64 l 1,2,-1
 64 -128 l 1,3,-1
 128 -128 l 1,0,-1
256 -128 m 1,4,-1
 256 -64 l 1,5,-1
 192 -64 l 1,6,-1
 192 -128 l 1,7,-1
 256 -128 l 1,4,-1
384 -128 m 1,8,-1
 384 -64 l 1,9,-1
 320 -64 l 1,10,-1
 320 -128 l 1,11,-1
 384 -128 l 1,8,-1
512 -128 m 1,12,-1
 512 -64 l 1,13,-1
 448 -64 l 1,14,-1
 448 -128 l 1,15,-1
 512 -128 l 1,12,-1
640 -128 m 1,16,-1
 640 -64 l 1,17,-1
 576 -64 l 1,18,-1
 576 -128 l 1,19,-1
 640 -128 l 1,16,-1
768 -128 m 1,20,-1
 768 -64 l 1,21,-1
 704 -64 l 1,22,-1
 704 -128 l 1,23,-1
 768 -128 l 1,20,-1
896 -128 m 1,24,-1
 896 -64 l 1,25,-1
 832 -64 l 1,26,-1
 832 -128 l 1,27,-1
 896 -128 l 1,24,-1
1024 -128 m 1,28,-1
 1024 -64 l 1,29,-1
 960 -64 l 1,30,-1
 960 -128 l 1,31,-1
 1024 -128 l 1,28,-1
1024 0 m 1,32,-1
 1024 64 l 1,33,-1
 960 64 l 1,34,-1
 960 0 l 1,35,-1
 1024 0 l 1,32,-1
64 64 m 1,36,-1
 64 128 l 1,37,-1
 0 128 l 1,38,-1
 0 64 l 1,39,-1
 64 64 l 1,36,-1
1024 128 m 1,40,-1
 1024 192 l 1,41,-1
 960 192 l 1,42,-1
 960 128 l 1,43,-1
 1024 128 l 1,40,-1
64 192 m 1,44,-1
 64 256 l 1,45,-1
 0 256 l 1,46,-1
 0 192 l 1,47,-1
 64 192 l 1,44,-1
1024 256 m 1,48,-1
 1024 320 l 1,49,-1
 960 320 l 1,50,-1
 960 256 l 1,51,-1
 1024 256 l 1,48,-1
64 320 m 1,52,-1
 64 384 l 1,53,-1
 0 384 l 1,54,-1
 0 320 l 1,55,-1
 64 320 l 1,52,-1
768 320 m 1,56,-1
 768 384 l 1,57,-1
 704 384 l 1,58,-1
 704 320 l 1,59,-1
 512 320 l 1,60,-1
 512 256 l 1,61,-1
 704 256 l 1,62,-1
 704 320 l 1,63,-1
 768 320 l 1,56,-1
448 384 m 1,64,-1
 448 448 l 1,65,-1
 256 448 l 1,66,-1
 256 512 l 1,67,-1
 448 512 l 1,68,-1
 448 576 l 1,69,-1
 192 576 l 1,70,-1
 192 256 l 1,71,-1
 256 256 l 1,72,73
 256 256 256 256 256 384 c 1,74,-1
 448 384 l 1,64,-1
1024 384 m 1,75,-1
 1024 448 l 1,76,-1
 960 448 l 1,77,-1
 960 384 l 1,78,-1
 1024 384 l 1,75,-1
64 448 m 1,79,-1
 64 512 l 1,80,-1
 0 512 l 1,81,-1
 0 448 l 1,82,-1
 64 448 l 1,79,-1
768 512 m 1,83,-1
 768 576 l 1,84,-1
 576 576 l 1,85,-1
 576 512 l 1,86,-1
 512 512 l 1,87,-1
 512 448 l 1,88,-1
 576 448 l 1,89,-1
 576 384 l 1,90,-1
 704 384 l 1,91,-1
 704 448 l 1,92,-1
 576 448 l 1,93,-1
 576 512 l 1,94,-1
 768 512 l 1,83,-1
1024 512 m 1,95,-1
 1024 576 l 1,96,-1
 960 576 l 1,97,-1
 960 512 l 1,98,-1
 1024 512 l 1,95,-1
64 576 m 1,99,-1
 64 640 l 1,100,-1
 0 640 l 1,101,-1
 0 576 l 1,102,-1
 64 576 l 1,99,-1
1024 640 m 1,103,-1
 1024 704 l 1,104,-1
 960 704 l 1,105,-1
 960 640 l 1,106,-1
 1024 640 l 1,103,-1
64 704 m 1,107,-1
 64 768 l 1,108,-1
 0 768 l 1,109,-1
 0 704 l 1,110,-1
 64 704 l 1,107,-1
1024 768 m 1,111,-1
 1024 832 l 1,112,-1
 960 832 l 1,113,-1
 960 768 l 1,114,-1
 1024 768 l 1,111,-1
64 832 m 1,115,-1
 64 896 l 1,116,-1
 0 896 l 1,117,-1
 0 832 l 1,118,-1
 64 832 l 1,115,-1
192 832 m 1,119,-1
 192 896 l 1,120,-1
 128 896 l 1,121,-1
 128 832 l 1,122,-1
 192 832 l 1,119,-1
320 832 m 1,123,-1
 320 896 l 1,124,-1
 256 896 l 1,125,-1
 256 832 l 1,126,-1
 320 832 l 1,123,-1
448 832 m 1,127,-1
 448 896 l 1,128,-1
 384 896 l 1,129,-1
 384 832 l 1,130,-1
 448 832 l 1,127,-1
576 832 m 1,131,-1
 576 896 l 1,132,-1
 512 896 l 1,133,-1
 512 832 l 1,134,-1
 576 832 l 1,131,-1
704 832 m 1,135,-1
 704 896 l 1,136,-1
 640 896 l 1,137,-1
 640 832 l 1,138,-1
 704 832 l 1,135,-1
832 832 m 1,139,-1
 832 896 l 1,140,-1
 768 896 l 1,141,-1
 768 832 l 1,142,-1
 832 832 l 1,139,-1
64 -64 m 1,143,-1
 64 0 l 1,144,-1
 0 0 l 1,145,-1
 0 -64 l 1,146,-1
 64 -64 l 1,143,-1
960 832 m 1,147,-1
 960 896 l 1,148,-1
 896 896 l 1,149,-1
 896 832 l 1,150,-1
 960 832 l 1,147,-1
EndSplineSet
EndChar

StartChar: uni001D
Encoding: 29 29 29
Width: 1024
GlyphClass: 2
Flags: W
LayerCount: 2
Fore
SplineSet
128 -128 m 1,0,-1
 128 -64 l 1,1,-1
 64 -64 l 1,2,-1
 64 -128 l 1,3,-1
 128 -128 l 1,0,-1
256 -128 m 1,4,-1
 256 -64 l 1,5,-1
 192 -64 l 1,6,-1
 192 -128 l 1,7,-1
 256 -128 l 1,4,-1
384 -128 m 1,8,-1
 384 -64 l 1,9,-1
 320 -64 l 1,10,-1
 320 -128 l 1,11,-1
 384 -128 l 1,8,-1
512 -128 m 1,12,-1
 512 -64 l 1,13,-1
 448 -64 l 1,14,-1
 448 -128 l 1,15,-1
 512 -128 l 1,12,-1
640 -128 m 1,16,-1
 640 -64 l 1,17,-1
 576 -64 l 1,18,-1
 576 -128 l 1,19,-1
 640 -128 l 1,16,-1
768 -128 m 1,20,-1
 768 -64 l 1,21,-1
 704 -64 l 1,22,-1
 704 -128 l 1,23,-1
 768 -128 l 1,20,-1
896 -128 m 1,24,-1
 896 -64 l 1,25,-1
 832 -64 l 1,26,-1
 832 -128 l 1,27,-1
 896 -128 l 1,24,-1
1024 -128 m 1,28,-1
 1024 -64 l 1,29,-1
 960 -64 l 1,30,-1
 960 -128 l 1,31,-1
 1024 -128 l 1,28,-1
1024 0 m 1,32,-1
 1024 64 l 1,33,-1
 960 64 l 1,34,-1
 960 0 l 1,35,-1
 1024 0 l 1,32,-1
64 64 m 1,36,-1
 64 128 l 1,37,-1
 0 128 l 1,38,-1
 0 64 l 1,39,-1
 64 64 l 1,36,-1
1024 128 m 1,40,-1
 1024 192 l 1,41,-1
 960 192 l 1,42,-1
 960 128 l 1,43,-1
 1024 128 l 1,40,-1
64 192 m 1,44,-1
 64 256 l 1,45,-1
 0 256 l 1,46,-1
 0 192 l 1,47,-1
 64 192 l 1,44,-1
1024 256 m 1,48,-1
 1024 320 l 1,49,-1
 960 320 l 1,50,-1
 960 256 l 1,51,-1
 1024 256 l 1,48,-1
64 320 m 1,52,-1
 64 384 l 1,53,-1
 0 384 l 1,54,-1
 0 320 l 1,55,-1
 64 320 l 1,52,-1
768 320 m 1,56,-1
 768 384 l 1,57,-1
 704 384 l 1,58,-1
 704 320 l 1,59,-1
 512 320 l 1,60,-1
 512 256 l 1,61,-1
 704 256 l 1,62,-1
 704 320 l 1,63,-1
 768 320 l 1,56,-1
1024 384 m 1,64,-1
 1024 448 l 1,65,-1
 960 448 l 1,66,-1
 960 384 l 1,67,-1
 1024 384 l 1,64,-1
64 448 m 1,68,-1
 64 512 l 1,69,-1
 0 512 l 1,70,-1
 0 448 l 1,71,-1
 64 448 l 1,68,-1
448 512 m 1,72,-1
 448 576 l 1,73,-1
 256 576 l 1,74,-1
 256 512 l 1,75,-1
 192 512 l 1,76,-1
 192 320 l 1,77,-1
 256 320 l 1,78,-1
 256 256 l 1,79,-1
 448 256 l 1,80,-1
 448 448 l 1,81,-1
 320 448 l 1,82,-1
 320 384 l 1,83,-1
 384 384 l 1,84,-1
 384 320 l 1,85,-1
 256 320 l 1,86,-1
 256 512 l 1,87,-1
 448 512 l 1,72,-1
768 512 m 1,88,-1
 768 576 l 1,89,-1
 576 576 l 1,90,-1
 576 512 l 1,91,-1
 512 512 l 1,92,-1
 512 448 l 1,93,-1
 576 448 l 1,94,-1
 576 384 l 1,95,-1
 704 384 l 1,96,-1
 704 448 l 1,97,-1
 576 448 l 1,98,-1
 576 512 l 1,99,-1
 768 512 l 1,88,-1
1024 512 m 1,100,-1
 1024 576 l 1,101,-1
 960 576 l 1,102,-1
 960 512 l 1,103,-1
 1024 512 l 1,100,-1
64 576 m 1,104,-1
 64 640 l 1,105,-1
 0 640 l 1,106,-1
 0 576 l 1,107,-1
 64 576 l 1,104,-1
1024 640 m 1,108,-1
 1024 704 l 1,109,-1
 960 704 l 1,110,-1
 960 640 l 1,111,-1
 1024 640 l 1,108,-1
64 704 m 1,112,-1
 64 768 l 1,113,-1
 0 768 l 1,114,-1
 0 704 l 1,115,-1
 64 704 l 1,112,-1
1024 768 m 1,116,-1
 1024 832 l 1,117,-1
 960 832 l 1,118,-1
 960 768 l 1,119,-1
 1024 768 l 1,116,-1
64 832 m 1,120,-1
 64 896 l 1,121,-1
 0 896 l 1,122,-1
 0 832 l 1,123,-1
 64 832 l 1,120,-1
192 832 m 1,124,-1
 192 896 l 1,125,-1
 128 896 l 1,126,-1
 128 832 l 1,127,-1
 192 832 l 1,124,-1
320 832 m 1,128,-1
 320 896 l 1,129,-1
 256 896 l 1,130,-1
 256 832 l 1,131,-1
 320 832 l 1,128,-1
448 832 m 1,132,-1
 448 896 l 1,133,-1
 384 896 l 1,134,-1
 384 832 l 1,135,-1
 448 832 l 1,132,-1
576 832 m 1,136,-1
 576 896 l 1,137,-1
 512 896 l 1,138,-1
 512 832 l 1,139,-1
 576 832 l 1,136,-1
704 832 m 1,140,-1
 704 896 l 1,141,-1
 640 896 l 1,142,-1
 640 832 l 1,143,-1
 704 832 l 1,140,-1
832 832 m 1,144,-1
 832 896 l 1,145,-1
 768 896 l 1,146,-1
 768 832 l 1,147,-1
 832 832 l 1,144,-1
64 -64 m 1,148,-1
 64 0 l 1,149,-1
 0 0 l 1,150,-1
 0 -64 l 1,151,-1
 64 -64 l 1,148,-1
960 832 m 1,152,-1
 960 896 l 1,153,-1
 896 896 l 1,154,-1
 896 832 l 1,155,-1
 960 832 l 1,152,-1
EndSplineSet
EndChar

StartChar: uni001E
Encoding: 30 30 30
Width: 1024
GlyphClass: 2
Flags: W
LayerCount: 2
Fore
SplineSet
128 -128 m 1,0,-1
 128 -64 l 1,1,-1
 64 -64 l 1,2,-1
 64 -128 l 1,3,-1
 128 -128 l 1,0,-1
256 -128 m 1,4,-1
 256 -64 l 1,5,-1
 192 -64 l 1,6,-1
 192 -128 l 1,7,-1
 256 -128 l 1,4,-1
384 -128 m 1,8,-1
 384 -64 l 1,9,-1
 320 -64 l 1,10,-1
 320 -128 l 1,11,-1
 384 -128 l 1,8,-1
512 -128 m 1,12,-1
 512 -64 l 1,13,-1
 448 -64 l 1,14,-1
 448 -128 l 1,15,-1
 512 -128 l 1,12,-1
640 -128 m 1,16,-1
 640 -64 l 1,17,-1
 576 -64 l 1,18,-1
 576 -128 l 1,19,-1
 640 -128 l 1,16,-1
768 -128 m 1,20,-1
 768 -64 l 1,21,-1
 704 -64 l 1,22,-1
 704 -128 l 1,23,-1
 768 -128 l 1,20,-1
896 -128 m 1,24,-1
 896 -64 l 1,25,-1
 832 -64 l 1,26,-1
 832 -128 l 1,27,-1
 896 -128 l 1,24,-1
1024 -128 m 1,28,-1
 1024 -64 l 1,29,-1
 960 -64 l 1,30,-1
 960 -128 l 1,31,-1
 1024 -128 l 1,28,-1
1024 0 m 1,32,-1
 1024 64 l 1,33,-1
 960 64 l 1,34,-1
 960 0 l 1,35,-1
 1024 0 l 1,32,-1
64 64 m 1,36,-1
 64 128 l 1,37,-1
 0 128 l 1,38,-1
 0 64 l 1,39,-1
 64 64 l 1,36,-1
1024 128 m 1,40,-1
 1024 192 l 1,41,-1
 960 192 l 1,42,-1
 960 128 l 1,43,-1
 1024 128 l 1,40,-1
64 192 m 1,44,-1
 64 256 l 1,45,-1
 0 256 l 1,46,-1
 0 192 l 1,47,-1
 64 192 l 1,44,-1
448 256 m 1,48,-1
 448 320 l 1,49,-1
 384 320 l 1,50,-1
 384 256 l 1,51,-1
 448 256 l 1,48,-1
1024 256 m 1,52,-1
 1024 320 l 1,53,-1
 960 320 l 1,54,-1
 960 256 l 1,55,-1
 1024 256 l 1,52,-1
64 320 m 1,56,-1
 64 384 l 1,57,-1
 0 384 l 1,58,-1
 0 320 l 1,59,-1
 64 320 l 1,56,-1
768 320 m 1,60,-1
 768 384 l 1,61,-1
 704 384 l 1,62,-1
 704 320 l 1,63,-1
 512 320 l 1,64,-1
 512 256 l 1,65,-1
 704 256 l 1,66,-1
 704 320 l 1,67,-1
 768 320 l 1,60,-1
1024 384 m 1,68,-1
 1024 448 l 1,69,-1
 960 448 l 1,70,-1
 960 384 l 1,71,-1
 1024 384 l 1,68,-1
64 448 m 1,72,-1
 64 512 l 1,73,-1
 0 512 l 1,74,-1
 0 448 l 1,75,-1
 64 448 l 1,72,-1
448 448 m 1,76,-1
 448 512 l 1,77,-1
 384 512 l 1,78,-1
 384 448 l 1,79,-1
 256 448 l 1,80,-1
 256 512 l 1,81,-1
 384 512 l 1,82,-1
 384 576 l 1,83,-1
 192 576 l 1,84,-1
 192 256 l 1,85,-1
 256 256 l 1,86,87
 256 256 256 256 256 384 c 1,88,-1
 320 384 l 1,89,-1
 320 320 l 1,90,-1
 384 320 l 1,91,92
 384 320 384 320 384 448 c 1,93,-1
 448 448 l 1,76,-1
768 512 m 1,94,-1
 768 576 l 1,95,-1
 576 576 l 1,96,-1
 576 512 l 1,97,-1
 512 512 l 1,98,-1
 512 448 l 1,99,-1
 576 448 l 1,100,-1
 576 384 l 1,101,-1
 704 384 l 1,102,-1
 704 448 l 1,103,-1
 576 448 l 1,104,-1
 576 512 l 1,105,-1
 768 512 l 1,94,-1
1024 512 m 1,106,-1
 1024 576 l 1,107,-1
 960 576 l 1,108,-1
 960 512 l 1,109,-1
 1024 512 l 1,106,-1
64 576 m 1,110,-1
 64 640 l 1,111,-1
 0 640 l 1,112,-1
 0 576 l 1,113,-1
 64 576 l 1,110,-1
1024 640 m 1,114,-1
 1024 704 l 1,115,-1
 960 704 l 1,116,-1
 960 640 l 1,117,-1
 1024 640 l 1,114,-1
64 704 m 1,118,-1
 64 768 l 1,119,-1
 0 768 l 1,120,-1
 0 704 l 1,121,-1
 64 704 l 1,118,-1
1024 768 m 1,122,-1
 1024 832 l 1,123,-1
 960 832 l 1,124,-1
 960 768 l 1,125,-1
 1024 768 l 1,122,-1
64 832 m 1,126,-1
 64 896 l 1,127,-1
 0 896 l 1,128,-1
 0 832 l 1,129,-1
 64 832 l 1,126,-1
192 832 m 1,130,-1
 192 896 l 1,131,-1
 128 896 l 1,132,-1
 128 832 l 1,133,-1
 192 832 l 1,130,-1
320 832 m 1,134,-1
 320 896 l 1,135,-1
 256 896 l 1,136,-1
 256 832 l 1,137,-1
 320 832 l 1,134,-1
448 832 m 1,138,-1
 448 896 l 1,139,-1
 384 896 l 1,140,-1
 384 832 l 1,141,-1
 448 832 l 1,138,-1
576 832 m 1,142,-1
 576 896 l 1,143,-1
 512 896 l 1,144,-1
 512 832 l 1,145,-1
 576 832 l 1,142,-1
704 832 m 1,146,-1
 704 896 l 1,147,-1
 640 896 l 1,148,-1
 640 832 l 1,149,-1
 704 832 l 1,146,-1
832 832 m 1,150,-1
 832 896 l 1,151,-1
 768 896 l 1,152,-1
 768 832 l 1,153,-1
 832 832 l 1,150,-1
64 -64 m 1,154,-1
 64 0 l 1,155,-1
 0 0 l 1,156,-1
 0 -64 l 1,157,-1
 64 -64 l 1,154,-1
960 832 m 1,158,-1
 960 896 l 1,159,-1
 896 896 l 1,160,-1
 896 832 l 1,161,-1
 960 832 l 1,158,-1
EndSplineSet
EndChar

StartChar: uni001F
Encoding: 31 31 31
Width: 1024
GlyphClass: 2
Flags: W
LayerCount: 2
Fore
SplineSet
128 -128 m 1,0,-1
 128 -64 l 1,1,-1
 64 -64 l 1,2,-1
 64 -128 l 1,3,-1
 128 -128 l 1,0,-1
256 -128 m 1,4,-1
 256 -64 l 1,5,-1
 192 -64 l 1,6,-1
 192 -128 l 1,7,-1
 256 -128 l 1,4,-1
384 -128 m 1,8,-1
 384 -64 l 1,9,-1
 320 -64 l 1,10,-1
 320 -128 l 1,11,-1
 384 -128 l 1,8,-1
512 -128 m 1,12,-1
 512 -64 l 1,13,-1
 448 -64 l 1,14,-1
 448 -128 l 1,15,-1
 512 -128 l 1,12,-1
640 -128 m 1,16,-1
 640 -64 l 1,17,-1
 576 -64 l 1,18,-1
 576 -128 l 1,19,-1
 640 -128 l 1,16,-1
768 -128 m 1,20,-1
 768 -64 l 1,21,-1
 704 -64 l 1,22,-1
 704 -128 l 1,23,-1
 768 -128 l 1,20,-1
896 -128 m 1,24,-1
 896 -64 l 1,25,-1
 832 -64 l 1,26,-1
 832 -128 l 1,27,-1
 896 -128 l 1,24,-1
1024 -128 m 1,28,-1
 1024 -64 l 1,29,-1
 960 -64 l 1,30,-1
 960 -128 l 1,31,-1
 1024 -128 l 1,28,-1
1024 0 m 1,32,-1
 1024 64 l 1,33,-1
 960 64 l 1,34,-1
 960 0 l 1,35,-1
 1024 0 l 1,32,-1
64 64 m 1,36,-1
 64 128 l 1,37,-1
 0 128 l 1,38,-1
 0 64 l 1,39,-1
 64 64 l 1,36,-1
1024 128 m 1,40,-1
 1024 192 l 1,41,-1
 960 192 l 1,42,-1
 960 128 l 1,43,-1
 1024 128 l 1,40,-1
64 192 m 1,44,-1
 64 256 l 1,45,-1
 0 256 l 1,46,-1
 0 192 l 1,47,-1
 64 192 l 1,44,-1
1024 256 m 1,48,-1
 1024 320 l 1,49,-1
 960 320 l 1,50,-1
 960 256 l 1,51,-1
 1024 256 l 1,48,-1
64 320 m 1,52,-1
 64 384 l 1,53,-1
 0 384 l 1,54,-1
 0 320 l 1,55,-1
 64 320 l 1,52,-1
768 320 m 1,56,-1
 768 384 l 1,57,-1
 704 384 l 1,58,-1
 704 320 l 1,59,-1
 512 320 l 1,60,-1
 512 256 l 1,61,-1
 704 256 l 1,62,-1
 704 320 l 1,63,-1
 768 320 l 1,56,-1
1024 384 m 1,64,-1
 1024 448 l 1,65,-1
 960 448 l 1,66,-1
 960 384 l 1,67,-1
 1024 384 l 1,64,-1
64 448 m 1,68,-1
 64 512 l 1,69,-1
 0 512 l 1,70,-1
 0 448 l 1,71,-1
 64 448 l 1,68,-1
768 512 m 1,72,-1
 768 576 l 1,73,-1
 576 576 l 1,74,-1
 576 512 l 1,75,-1
 512 512 l 1,76,-1
 512 448 l 1,77,-1
 576 448 l 1,78,-1
 576 384 l 1,79,-1
 704 384 l 1,80,-1
 704 448 l 1,81,-1
 576 448 l 1,82,-1
 576 512 l 1,83,-1
 768 512 l 1,72,-1
1024 512 m 1,84,-1
 1024 576 l 1,85,-1
 960 576 l 1,86,-1
 960 512 l 1,87,-1
 1024 512 l 1,84,-1
64 576 m 1,88,-1
 64 640 l 1,89,-1
 0 640 l 1,90,-1
 0 576 l 1,91,-1
 64 576 l 1,88,-1
1024 640 m 1,92,-1
 1024 704 l 1,93,-1
 960 704 l 1,94,-1
 960 640 l 1,95,-1
 1024 640 l 1,92,-1
64 704 m 1,96,-1
 64 768 l 1,97,-1
 0 768 l 1,98,-1
 0 704 l 1,99,-1
 64 704 l 1,96,-1
1024 768 m 1,100,-1
 1024 832 l 1,101,-1
 960 832 l 1,102,-1
 960 768 l 1,103,-1
 1024 768 l 1,100,-1
64 832 m 1,104,-1
 64 896 l 1,105,-1
 0 896 l 1,106,-1
 0 832 l 1,107,-1
 64 832 l 1,104,-1
192 832 m 1,108,-1
 192 896 l 1,109,-1
 128 896 l 1,110,-1
 128 832 l 1,111,-1
 192 832 l 1,108,-1
320 832 m 1,112,-1
 320 896 l 1,113,-1
 256 896 l 1,114,-1
 256 832 l 1,115,-1
 320 832 l 1,112,-1
448 832 m 1,116,-1
 448 896 l 1,117,-1
 384 896 l 1,118,-1
 384 832 l 1,119,-1
 448 832 l 1,116,-1
576 832 m 1,120,-1
 576 896 l 1,121,-1
 512 896 l 1,122,-1
 512 832 l 1,123,-1
 576 832 l 1,120,-1
704 832 m 1,124,-1
 704 896 l 1,125,-1
 640 896 l 1,126,-1
 640 832 l 1,127,-1
 704 832 l 1,124,-1
832 832 m 1,128,-1
 832 896 l 1,129,-1
 768 896 l 1,130,-1
 768 832 l 1,131,-1
 832 832 l 1,128,-1
64 -64 m 1,132,-1
 64 0 l 1,133,-1
 0 0 l 1,134,-1
 0 -64 l 1,135,-1
 64 -64 l 1,132,-1
256 320 m 1,136,-1
 256 256 l 1,137,-1
 384 256 l 1,138,-1
 384 320 l 1,139,-1
 256 320 l 1,136,-1
256 320 m 1,140,141
 256 320 256 320 256 576 c 1,142,-1
 192 576 l 1,143,144
 192 576 192 576 192 320 c 1,145,-1
 256 320 l 1,140,141
384 320 m 1,146,-1
 448 320 l 1,147,148
 448 320 448 320 448 576 c 1,149,-1
 384 576 l 1,150,151
 384 576 384 576 384 320 c 1,146,-1
960 832 m 1,152,-1
 960 896 l 1,153,-1
 896 896 l 1,154,-1
 896 832 l 1,155,-1
 960 832 l 1,152,-1
EndSplineSet
EndChar

StartChar: uni0021
Encoding: 33 33 33
Width: 512
GlyphClass: 2
Flags: W
LayerCount: 2
Fore
SplineSet
256 128 m 1,0,1
 256 128 256 128 256 0 c 1,2,-1
 320 0 l 1,3,4
 320 0 320 0 320 128 c 1,5,-1
 256 128 l 1,0,1
256 640 m 1,6,-1
 256 192 l 1,7,-1
 320 192 l 1,8,-1
 320 640 l 1,9,-1
 256 640 l 1,6,-1
EndSplineSet
EndChar

StartChar: uni0022
Encoding: 34 34 34
Width: 512
GlyphClass: 2
Flags: W
LayerCount: 2
Fore
SplineSet
128 768 m 1,0,1
 128 768 128 768 128 512 c 1,2,-1
 192 512 l 1,3,4
 192 512 192 512 192 768 c 1,5,-1
 128 768 l 1,0,1
384 768 m 1,6,7
 384 768 384 768 384 512 c 1,8,-1
 448 512 l 1,9,10
 448 512 448 512 448 768 c 1,11,-1
 384 768 l 1,6,7
EndSplineSet
EndChar

StartChar: uni0023
Encoding: 35 35 35
Width: 512
GlyphClass: 2
Flags: W
LayerCount: 2
Fore
SplineSet
448 192 m 1,0,-1
 448 256 l 1,1,-1
 384 256 l 1,2,3
 384 256 384 256 384 384 c 1,4,-1
 448 384 l 1,5,6
 448 384 448 384 448 640 c 1,7,-1
 384 640 l 1,8,-1
 384 448 l 1,9,-1
 256 448 l 1,10,-1
 256 640 l 1,11,-1
 192 640 l 1,12,-1
 192 448 l 1,13,-1
 64 448 l 1,14,-1
 64 384 l 1,15,-1
 128 384 l 1,16,17
 128 384 128 384 128 256 c 1,18,-1
 64 256 l 1,19,20
 64 256 64 256 64 0 c 1,21,-1
 128 0 l 1,22,-1
 128 192 l 1,23,-1
 256 192 l 1,24,-1
 256 0 l 1,25,-1
 320 0 l 1,26,-1
 320 192 l 1,27,-1
 448 192 l 1,0,-1
192 256 m 1,28,29
 192 256 192 256 192 384 c 1,30,-1
 320 384 l 1,31,32
 320 384 320 384 320 256 c 1,33,-1
 192 256 l 1,28,29
EndSplineSet
EndChar

StartChar: uni0024
Encoding: 36 36 36
Width: 512
GlyphClass: 2
Flags: W
LayerCount: 2
Fore
SplineSet
512 448 m 1,0,-1
 512 512 l 1,1,-1
 448 512 l 1,2,-1
 448 448 l 1,3,-1
 512 448 l 1,0,-1
320 64 m 1,4,-1
 448 64 l 1,5,-1
 448 128 l 1,6,-1
 320 128 l 1,7,8
 320 128 320 128 320 256 c 1,9,-1
 448 256 l 1,10,11
 448 256 448 256 448 128 c 1,12,-1
 512 128 l 1,13,14
 512 128 512 128 512 256 c 1,15,-1
 448 256 l 1,16,-1
 448 320 l 1,17,-1
 320 320 l 1,18,-1
 320 512 l 1,19,-1
 448 512 l 1,20,-1
 448 576 l 1,21,-1
 320 576 l 1,22,-1
 320 640 l 1,23,-1
 256 640 l 1,24,-1
 256 576 l 1,25,-1
 128 576 l 1,26,-1
 128 512 l 1,27,-1
 64 512 l 1,28,29
 64 512 64 512 64 384 c 1,30,-1
 128 384 l 1,31,-1
 128 320 l 1,32,-1
 256 320 l 1,33,-1
 256 128 l 1,34,-1
 128 128 l 1,35,-1
 128 64 l 1,36,-1
 256 64 l 1,37,-1
 256 0 l 1,38,-1
 320 0 l 1,39,-1
 320 64 l 1,4,-1
128 128 m 1,40,-1
 128 192 l 1,41,-1
 64 192 l 1,42,-1
 64 128 l 1,43,-1
 128 128 l 1,40,-1
128 384 m 1,44,45
 128 384 128 384 128 512 c 1,46,-1
 256 512 l 1,47,48
 256 512 256 512 256 384 c 1,49,-1
 128 384 l 1,44,45
EndSplineSet
EndChar

StartChar: uni0025
Encoding: 37 37 37
Width: 512
GlyphClass: 2
Flags: W
LayerCount: 2
Fore
SplineSet
512 576 m 1,0,-1
 512 640 l 1,1,-1
 448 640 l 1,2,-1
 448 576 l 1,3,-1
 384 576 l 1,4,5
 384 576 384 576 384 448 c 1,6,-1
 320 448 l 1,7,-1
 320 384 l 1,8,-1
 256 384 l 1,9,10
 256 384 256 384 256 256 c 1,11,-1
 192 256 l 1,12,-1
 192 192 l 1,13,-1
 128 192 l 1,14,15
 128 192 128 192 128 64 c 1,16,-1
 64 64 l 1,17,-1
 64 0 l 1,18,-1
 128 0 l 1,19,-1
 128 64 l 1,20,-1
 192 64 l 1,21,22
 192 64 192 64 192 192 c 1,23,-1
 256 192 l 1,24,25
 256 192 256 192 256 64 c 1,26,-1
 320 64 l 1,27,-1
 320 0 l 1,28,-1
 448 0 l 1,29,-1
 448 64 l 1,30,-1
 320 64 l 1,31,32
 320 64 320 64 320 192 c 1,33,-1
 256 192 l 1,34,-1
 256 256 l 1,35,-1
 320 256 l 1,36,-1
 320 192 l 1,37,-1
 448 192 l 1,38,39
 448 192 448 192 448 64 c 1,40,-1
 512 64 l 1,41,42
 512 64 512 64 512 192 c 1,43,-1
 448 192 l 1,44,-1
 448 256 l 1,45,-1
 320 256 l 1,46,47
 320 256 320 256 320 384 c 1,48,-1
 384 384 l 1,49,-1
 384 448 l 1,50,-1
 448 448 l 1,51,52
 448 448 448 448 448 576 c 1,53,-1
 512 576 l 1,0,-1
256 384 m 1,54,-1
 256 448 l 1,55,-1
 128 448 l 1,56,-1
 128 384 l 1,57,-1
 256 384 l 1,54,-1
128 448 m 1,58,59
 128 448 128 448 128 576 c 1,60,-1
 64 576 l 1,61,62
 64 576 64 576 64 448 c 1,63,-1
 128 448 l 1,58,59
256 448 m 1,64,-1
 320 448 l 1,65,66
 320 448 320 448 320 576 c 1,67,-1
 256 576 l 1,68,69
 256 576 256 576 256 448 c 1,64,-1
128 576 m 1,70,-1
 256 576 l 1,71,-1
 256 640 l 1,72,-1
 128 640 l 1,73,-1
 128 576 l 1,70,-1
EndSplineSet
EndChar

StartChar: uni0026
Encoding: 38 38 38
Width: 512
GlyphClass: 2
Flags: W
LayerCount: 2
Fore
SplineSet
512 0 m 1,0,-1
 512 64 l 1,1,-1
 448 64 l 1,2,-1
 448 0 l 1,3,-1
 512 0 l 1,0,-1
128 64 m 1,4,-1
 128 0 l 1,5,-1
 320 0 l 1,6,-1
 320 64 l 1,7,-1
 128 64 l 1,4,-1
128 64 m 1,8,-1
 128 256 l 1,9,-1
 64 256 l 1,10,-1
 64 64 l 1,11,-1
 128 64 l 1,8,-1
320 64 m 1,12,-1
 448 64 l 1,13,14
 448 64 448 64 448 192 c 1,15,-1
 384 192 l 1,16,-1
 384 128 l 1,17,-1
 320 128 l 1,18,-1
 320 64 l 1,12,-1
384 192 m 1,19,-1
 384 256 l 1,20,-1
 320 256 l 1,21,-1
 320 192 l 1,22,-1
 384 192 l 1,19,-1
448 192 m 1,23,-1
 512 192 l 1,24,25
 512 192 512 192 512 320 c 1,26,-1
 448 320 l 1,27,28
 448 320 448 320 448 192 c 1,23,-1
128 256 m 1,29,-1
 192 256 l 1,30,-1
 192 320 l 1,31,-1
 128 320 l 1,32,-1
 128 256 l 1,29,-1
320 256 m 1,33,34
 320 256 320 256 320 384 c 1,35,-1
 256 384 l 1,36,-1
 256 448 l 1,37,-1
 192 448 l 1,38,39
 192 448 192 448 192 320 c 1,40,-1
 256 320 l 1,41,-1
 256 256 l 1,42,-1
 320 256 l 1,33,34
320 384 m 1,43,-1
 384 384 l 1,44,-1
 384 448 l 1,45,-1
 320 448 l 1,46,-1
 320 384 l 1,43,-1
192 448 m 1,47,48
 192 448 192 448 192 576 c 1,49,-1
 128 576 l 1,50,51
 128 576 128 576 128 448 c 1,52,-1
 192 448 l 1,47,48
384 448 m 1,53,-1
 448 448 l 1,54,55
 448 448 448 448 448 576 c 1,56,-1
 384 576 l 1,57,58
 384 576 384 576 384 448 c 1,53,-1
192 576 m 1,59,-1
 384 576 l 1,60,-1
 384 640 l 1,61,-1
 192 640 l 1,62,-1
 192 576 l 1,59,-1
EndSplineSet
EndChar

StartChar: uni0027
Encoding: 39 39 39
Width: 512
GlyphClass: 2
Flags: W
LayerCount: 2
Fore
SplineSet
256 768 m 1,0,1
 256 768 256 768 256 512 c 1,2,-1
 320 512 l 1,3,4
 320 512 320 512 320 768 c 1,5,-1
 256 768 l 1,0,1
EndSplineSet
EndChar

StartChar: uni0028
Encoding: 40 40 40
Width: 512
GlyphClass: 2
Flags: W
LayerCount: 2
Fore
SplineSet
384 -64 m 1,0,-1
 384 0 l 1,1,-1
 320 0 l 1,2,-1
 320 -64 l 1,3,-1
 384 -64 l 1,0,-1
384 640 m 1,4,-1
 384 704 l 1,5,-1
 320 704 l 1,6,-1
 320 640 l 1,7,-1
 256 640 l 1,8,9
 256 640 256 640 256 512 c 1,10,-1
 192 512 l 1,11,12
 192 512 192 512 192 128 c 1,13,-1
 256 128 l 1,14,15
 256 128 256 128 256 0 c 1,16,-1
 320 0 l 1,17,18
 320 0 320 0 320 128 c 1,19,-1
 256 128 l 1,20,21
 256 128 256 128 256 512 c 1,22,-1
 320 512 l 1,23,24
 320 512 320 512 320 640 c 1,25,-1
 384 640 l 1,4,-1
EndSplineSet
EndChar

StartChar: uni0029
Encoding: 41 41 41
Width: 512
GlyphClass: 2
Flags: W
LayerCount: 2
Fore
SplineSet
192 0 m 1,0,-1
 128 0 l 1,1,-1
 128 -64 l 1,2,-1
 192 -64 l 1,3,-1
 192 0 l 1,0,-1
192 0 m 1,4,-1
 256 0 l 1,5,6
 256 0 256 0 256 128 c 1,7,-1
 192 128 l 1,8,9
 192 128 192 128 192 0 c 1,4,-1
256 128 m 1,10,-1
 320 128 l 1,11,12
 320 128 320 128 320 512 c 1,13,-1
 256 512 l 1,14,15
 256 512 256 512 256 128 c 1,10,-1
256 512 m 1,16,17
 256 512 256 512 256 640 c 1,18,-1
 192 640 l 1,19,20
 192 640 192 640 192 512 c 1,21,-1
 256 512 l 1,16,17
192 640 m 1,22,-1
 192 704 l 1,23,-1
 128 704 l 1,24,-1
 128 640 l 1,25,-1
 192 640 l 1,22,-1
EndSplineSet
EndChar

StartChar: uni002A
Encoding: 42 42 42
Width: 512
GlyphClass: 2
Flags: W
LayerCount: 2
Fore
SplineSet
512 128 m 1,0,-1
 512 192 l 1,1,-1
 448 192 l 1,2,-1
 448 128 l 1,3,-1
 512 128 l 1,0,-1
512 384 m 1,4,-1
 512 448 l 1,5,-1
 448 448 l 1,6,-1
 448 384 l 1,7,-1
 384 384 l 1,8,-1
 384 320 l 1,9,-1
 320 320 l 1,10,-1
 320 512 l 1,11,-1
 256 512 l 1,12,-1
 256 320 l 1,13,-1
 192 320 l 1,14,-1
 192 256 l 1,15,-1
 128 256 l 1,16,-1
 128 192 l 1,17,-1
 64 192 l 1,18,-1
 64 128 l 1,19,-1
 128 128 l 1,20,-1
 128 192 l 1,21,-1
 192 192 l 1,22,-1
 192 256 l 1,23,-1
 256 256 l 1,24,-1
 256 64 l 1,25,-1
 320 64 l 1,26,-1
 320 256 l 1,27,-1
 384 256 l 1,28,-1
 384 192 l 1,29,-1
 448 192 l 1,30,-1
 448 256 l 1,31,-1
 384 256 l 1,32,-1
 384 320 l 1,33,-1
 448 320 l 1,34,-1
 448 384 l 1,35,-1
 512 384 l 1,4,-1
192 320 m 1,36,-1
 192 384 l 1,37,-1
 128 384 l 1,38,-1
 128 320 l 1,39,-1
 192 320 l 1,36,-1
128 384 m 1,40,-1
 128 448 l 1,41,-1
 64 448 l 1,42,-1
 64 384 l 1,43,-1
 128 384 l 1,40,-1
EndSplineSet
EndChar

StartChar: uni002B
Encoding: 43 43 43
Width: 512
GlyphClass: 2
Flags: W
LayerCount: 2
Fore
SplineSet
512 256 m 1,0,-1
 512 320 l 1,1,-1
 320 320 l 1,2,-1
 320 512 l 1,3,-1
 256 512 l 1,4,-1
 256 320 l 1,5,-1
 64 320 l 1,6,-1
 64 256 l 1,7,-1
 256 256 l 1,8,-1
 256 64 l 1,9,-1
 320 64 l 1,10,-1
 320 256 l 1,11,-1
 512 256 l 1,0,-1
EndSplineSet
EndChar

StartChar: uni002C
Encoding: 44 44 44
Width: 512
GlyphClass: 2
Flags: W
LayerCount: 2
Fore
SplineSet
256 -64 m 1,0,-1
 192 -64 l 1,1,-1
 192 -128 l 1,2,-1
 256 -128 l 1,3,-1
 256 -64 l 1,0,-1
256 -64 m 1,4,-1
 320 -64 l 1,5,-1
 320 128 l 1,6,-1
 192 128 l 1,7,-1
 192 64 l 1,8,-1
 256 64 l 1,9,10
 256 64 256 64 256 -64 c 1,4,-1
EndSplineSet
EndChar

StartChar: uni002D
Encoding: 45 45 45
Width: 512
GlyphClass: 2
Flags: W
LayerCount: 2
Fore
SplineSet
384 256 m 1,0,-1
 384 320 l 1,1,-1
 128 320 l 1,2,-1
 128 256 l 1,3,-1
 384 256 l 1,0,-1
EndSplineSet
EndChar

StartChar: uni002E
Encoding: 46 46 46
Width: 512
GlyphClass: 2
Flags: W
LayerCount: 2
Fore
SplineSet
192 128 m 1,0,1
 192 128 192 128 192 0 c 1,2,-1
 320 0 l 1,3,4
 320 0 320 0 320 128 c 1,5,-1
 192 128 l 1,0,1
EndSplineSet
EndChar

StartChar: uni002F
Encoding: 47 47 47
Width: 512
GlyphClass: 2
Flags: W
LayerCount: 2
Fore
SplineSet
64 128 m 1,0,1
 64 128 64 128 64 0 c 1,2,-1
 128 0 l 1,3,4
 128 0 128 0 128 128 c 1,5,-1
 64 128 l 1,0,1
128 128 m 1,6,-1
 192 128 l 1,7,-1
 192 192 l 1,8,-1
 128 192 l 1,9,-1
 128 128 l 1,6,-1
192 192 m 1,10,-1
 256 192 l 1,11,12
 256 192 256 192 256 320 c 1,13,-1
 192 320 l 1,14,15
 192 320 192 320 192 192 c 1,10,-1
256 320 m 1,16,-1
 320 320 l 1,17,18
 320 320 320 320 320 448 c 1,19,-1
 256 448 l 1,20,21
 256 448 256 448 256 320 c 1,16,-1
320 448 m 1,22,-1
 384 448 l 1,23,-1
 384 512 l 1,24,-1
 320 512 l 1,25,-1
 320 448 l 1,22,-1
384 512 m 1,26,-1
 448 512 l 1,27,28
 448 512 448 512 448 640 c 1,29,-1
 384 640 l 1,30,31
 384 640 384 640 384 512 c 1,26,-1
EndSplineSet
EndChar

StartChar: uni0030
Encoding: 48 48 48
Width: 512
GlyphClass: 2
Flags: W
LayerCount: 2
Fore
SplineSet
192 64 m 1,0,-1
 192 0 l 1,1,-1
 320 0 l 1,2,-1
 320 64 l 1,3,-1
 192 64 l 1,0,-1
192 64 m 1,4,-1
 192 128 l 1,5,-1
 128 128 l 1,6,-1
 128 64 l 1,7,-1
 192 64 l 1,4,-1
320 64 m 1,8,-1
 384 64 l 1,9,-1
 384 128 l 1,10,-1
 320 128 l 1,11,-1
 320 64 l 1,8,-1
128 128 m 1,12,13
 128 128 128 128 128 512 c 1,14,-1
 64 512 l 1,15,16
 64 512 64 512 64 128 c 1,17,-1
 128 128 l 1,12,13
384 128 m 1,18,-1
 448 128 l 1,19,20
 448 128 448 128 448 512 c 1,21,-1
 384 512 l 1,22,23
 384 512 384 512 384 128 c 1,18,-1
128 512 m 1,24,-1
 192 512 l 1,25,-1
 192 576 l 1,26,-1
 128 576 l 1,27,-1
 128 512 l 1,24,-1
384 512 m 1,28,-1
 384 576 l 1,29,-1
 320 576 l 1,30,-1
 320 512 l 1,31,-1
 384 512 l 1,28,-1
192 576 m 1,32,-1
 320 576 l 1,33,-1
 320 640 l 1,34,-1
 192 640 l 1,35,-1
 192 576 l 1,32,-1
EndSplineSet
EndChar

StartChar: uni0031
Encoding: 49 49 49
Width: 512
GlyphClass: 2
Flags: W
LayerCount: 2
Fore
SplineSet
448 0 m 1,0,-1
 448 64 l 1,1,-1
 320 64 l 1,2,-1
 320 640 l 1,3,-1
 256 640 l 1,4,-1
 256 576 l 1,5,-1
 192 576 l 1,6,-1
 192 512 l 1,7,-1
 128 512 l 1,8,-1
 128 448 l 1,9,-1
 192 448 l 1,10,-1
 192 512 l 1,11,-1
 256 512 l 1,12,-1
 256 64 l 1,13,-1
 128 64 l 1,14,-1
 128 0 l 1,15,-1
 448 0 l 1,0,-1
EndSplineSet
EndChar

StartChar: uni0032
Encoding: 50 50 50
Width: 512
GlyphClass: 2
Flags: W
LayerCount: 2
Fore
SplineSet
448 0 m 1,0,-1
 448 64 l 1,1,-1
 128 64 l 1,2,3
 128 64 128 64 128 192 c 1,4,-1
 64 192 l 1,5,-1
 64 0 l 1,6,-1
 448 0 l 1,0,-1
128 192 m 1,7,-1
 192 192 l 1,8,-1
 192 256 l 1,9,-1
 128 256 l 1,10,-1
 128 192 l 1,7,-1
192 256 m 1,11,-1
 256 256 l 1,12,-1
 256 320 l 1,13,-1
 192 320 l 1,14,-1
 192 256 l 1,11,-1
256 320 m 1,15,-1
 384 320 l 1,16,-1
 384 384 l 1,17,-1
 256 384 l 1,18,-1
 256 320 l 1,15,-1
384 384 m 1,19,-1
 448 384 l 1,20,-1
 448 576 l 1,21,-1
 384 576 l 1,22,-1
 384 384 l 1,19,-1
64 576 m 1,23,24
 64 576 64 576 64 448 c 1,25,-1
 128 448 l 1,26,27
 128 448 128 448 128 576 c 1,28,-1
 64 576 l 1,23,24
128 576 m 1,29,-1
 384 576 l 1,30,-1
 384 640 l 1,31,-1
 128 640 l 1,32,-1
 128 576 l 1,29,-1
EndSplineSet
EndChar

StartChar: uni0033
Encoding: 51 51 51
Width: 512
GlyphClass: 2
Flags: W
LayerCount: 2
Fore
SplineSet
128 64 m 1,0,-1
 128 0 l 1,1,-1
 384 0 l 1,2,-1
 384 64 l 1,3,-1
 128 64 l 1,0,-1
128 64 m 1,4,5
 128 64 128 64 128 192 c 1,6,-1
 64 192 l 1,7,8
 64 192 64 192 64 64 c 1,9,-1
 128 64 l 1,4,5
384 64 m 1,10,-1
 448 64 l 1,11,12
 448 64 448 64 448 320 c 1,13,-1
 384 320 l 1,14,15
 384 320 384 320 384 64 c 1,10,-1
384 320 m 1,16,-1
 384 384 l 1,17,-1
 192 384 l 1,18,-1
 192 320 l 1,19,-1
 384 320 l 1,16,-1
384 384 m 1,20,-1
 448 384 l 1,21,-1
 448 576 l 1,22,-1
 384 576 l 1,23,-1
 384 384 l 1,20,-1
64 576 m 1,24,25
 64 576 64 576 64 448 c 1,26,-1
 128 448 l 1,27,28
 128 448 128 448 128 576 c 1,29,-1
 64 576 l 1,24,25
128 576 m 1,30,-1
 384 576 l 1,31,-1
 384 640 l 1,32,-1
 128 640 l 1,33,-1
 128 576 l 1,30,-1
EndSplineSet
EndChar

StartChar: uni0034
Encoding: 52 52 52
Width: 512
GlyphClass: 2
Flags: W
LayerCount: 2
Fore
SplineSet
448 192 m 1,0,-1
 448 256 l 1,1,-1
 384 256 l 1,2,3
 384 256 384 256 384 640 c 1,4,-1
 320 640 l 1,5,-1
 320 576 l 1,6,-1
 256 576 l 1,7,-1
 256 512 l 1,8,-1
 192 512 l 1,9,-1
 192 448 l 1,10,-1
 128 448 l 1,11,-1
 128 384 l 1,12,-1
 64 384 l 1,13,-1
 64 192 l 1,14,-1
 320 192 l 1,15,-1
 320 0 l 1,16,-1
 384 0 l 1,17,-1
 384 192 l 1,18,-1
 448 192 l 1,0,-1
128 256 m 1,19,20
 128 256 128 256 128 384 c 1,21,-1
 192 384 l 1,22,-1
 192 448 l 1,23,-1
 256 448 l 1,24,-1
 256 512 l 1,25,-1
 320 512 l 1,26,27
 320 512 320 512 320 256 c 1,28,-1
 128 256 l 1,19,20
EndSplineSet
EndChar

StartChar: uni0035
Encoding: 53 53 53
Width: 512
GlyphClass: 2
Flags: W
LayerCount: 2
Fore
SplineSet
448 576 m 1,0,-1
 448 640 l 1,1,-1
 64 640 l 1,2,-1
 64 320 l 1,3,-1
 384 320 l 1,4,5
 384 320 384 320 384 64 c 1,6,-1
 128 64 l 1,7,-1
 128 0 l 1,8,-1
 384 0 l 1,9,-1
 384 64 l 1,10,-1
 448 64 l 1,11,12
 448 64 448 64 448 320 c 1,13,-1
 384 320 l 1,14,-1
 384 384 l 1,15,-1
 128 384 l 1,16,-1
 128 576 l 1,17,-1
 448 576 l 1,0,-1
128 64 m 1,18,-1
 128 128 l 1,19,-1
 64 128 l 1,20,-1
 64 64 l 1,21,-1
 128 64 l 1,18,-1
EndSplineSet
EndChar

StartChar: uni0036
Encoding: 54 54 54
Width: 512
GlyphClass: 2
Flags: W
LayerCount: 2
Fore
SplineSet
384 576 m 1,0,-1
 384 640 l 1,1,-1
 192 640 l 1,2,-1
 192 576 l 1,3,-1
 128 576 l 1,4,-1
 128 512 l 1,5,-1
 64 512 l 1,6,-1
 64 64 l 1,7,-1
 128 64 l 1,8,-1
 128 0 l 1,9,-1
 384 0 l 1,10,-1
 384 64 l 1,11,-1
 128 64 l 1,12,13
 128 64 128 64 128 320 c 1,14,-1
 384 320 l 1,15,16
 384 320 384 320 384 64 c 1,17,-1
 448 64 l 1,18,19
 448 64 448 64 448 320 c 1,20,-1
 384 320 l 1,21,-1
 384 384 l 1,22,-1
 128 384 l 1,23,24
 128 384 128 384 128 512 c 1,25,-1
 192 512 l 1,26,-1
 192 576 l 1,27,-1
 384 576 l 1,0,-1
EndSplineSet
EndChar

StartChar: uni0037
Encoding: 55 55 55
Width: 512
GlyphClass: 2
Flags: W
LayerCount: 2
Fore
SplineSet
256 256 m 1,0,1
 256 256 256 256 256 0 c 1,2,-1
 320 0 l 1,3,4
 320 0 320 0 320 256 c 1,5,-1
 256 256 l 1,0,1
320 256 m 1,6,-1
 384 256 l 1,7,-1
 384 448 l 1,8,-1
 320 448 l 1,9,-1
 320 256 l 1,6,-1
384 448 m 1,10,-1
 448 448 l 1,11,-1
 448 640 l 1,12,-1
 64 640 l 1,13,-1
 64 576 l 1,14,-1
 384 576 l 1,15,16
 384 576 384 576 384 448 c 1,10,-1
EndSplineSet
EndChar

StartChar: uni0038
Encoding: 56 56 56
Width: 512
GlyphClass: 2
Flags: W
LayerCount: 2
Fore
SplineSet
128 64 m 1,0,-1
 128 0 l 1,1,-1
 384 0 l 1,2,-1
 384 64 l 1,3,-1
 128 64 l 1,0,-1
128 64 m 1,4,5
 128 64 128 64 128 320 c 1,6,-1
 64 320 l 1,7,8
 64 320 64 320 64 64 c 1,9,-1
 128 64 l 1,4,5
384 64 m 1,10,-1
 448 64 l 1,11,12
 448 64 448 64 448 320 c 1,13,-1
 384 320 l 1,14,15
 384 320 384 320 384 64 c 1,10,-1
128 320 m 1,16,-1
 384 320 l 1,17,-1
 384 384 l 1,18,-1
 128 384 l 1,19,-1
 128 320 l 1,16,-1
128 384 m 1,20,-1
 128 576 l 1,21,-1
 64 576 l 1,22,-1
 64 384 l 1,23,-1
 128 384 l 1,20,-1
384 384 m 1,24,-1
 448 384 l 1,25,-1
 448 576 l 1,26,-1
 384 576 l 1,27,-1
 384 384 l 1,24,-1
128 576 m 1,28,-1
 384 576 l 1,29,-1
 384 640 l 1,30,-1
 128 640 l 1,31,-1
 128 576 l 1,28,-1
EndSplineSet
EndChar

StartChar: uni0039
Encoding: 57 57 57
Width: 512
GlyphClass: 2
Flags: W
LayerCount: 2
Fore
SplineSet
320 64 m 1,0,-1
 128 64 l 1,1,-1
 128 0 l 1,2,-1
 320 0 l 1,3,-1
 320 64 l 1,0,-1
320 64 m 1,4,-1
 384 64 l 1,5,-1
 384 128 l 1,6,-1
 320 128 l 1,7,-1
 320 64 l 1,4,-1
384 128 m 1,8,-1
 448 128 l 1,9,-1
 448 576 l 1,10,-1
 384 576 l 1,11,-1
 384 384 l 1,12,-1
 128 384 l 1,13,-1
 128 320 l 1,14,-1
 384 320 l 1,15,-1
 384 128 l 1,8,-1
128 384 m 1,16,-1
 128 576 l 1,17,-1
 64 576 l 1,18,-1
 64 384 l 1,19,-1
 128 384 l 1,16,-1
128 576 m 1,20,-1
 384 576 l 1,21,-1
 384 640 l 1,22,-1
 128 640 l 1,23,-1
 128 576 l 1,20,-1
EndSplineSet
EndChar

StartChar: uni003A
Encoding: 58 58 58
Width: 512
GlyphClass: 2
Flags: W
LayerCount: 2
Fore
SplineSet
192 192 m 1,0,1
 192 192 192 192 192 64 c 1,2,-1
 320 64 l 1,3,4
 320 64 320 64 320 192 c 1,5,-1
 192 192 l 1,0,1
192 512 m 1,6,7
 192 512 192 512 192 384 c 1,8,-1
 320 384 l 1,9,10
 320 384 320 384 320 512 c 1,11,-1
 192 512 l 1,6,7
EndSplineSet
EndChar

StartChar: uni003B
Encoding: 59 59 59
Width: 512
GlyphClass: 2
Flags: W
LayerCount: 2
Fore
SplineSet
256 0 m 1,0,-1
 192 0 l 1,1,-1
 192 -64 l 1,2,-1
 256 -64 l 1,3,-1
 256 0 l 1,0,-1
256 0 m 1,4,-1
 320 0 l 1,5,-1
 320 192 l 1,6,-1
 192 192 l 1,7,-1
 192 128 l 1,8,-1
 256 128 l 1,9,10
 256 128 256 128 256 0 c 1,4,-1
192 512 m 1,11,12
 192 512 192 512 192 384 c 1,13,-1
 320 384 l 1,14,15
 320 384 320 384 320 512 c 1,16,-1
 192 512 l 1,11,12
EndSplineSet
EndChar

StartChar: uni003C
Encoding: 60 60 60
Width: 512
GlyphClass: 2
Flags: W
LayerCount: 2
Fore
SplineSet
448 0 m 1,0,-1
 448 64 l 1,1,-1
 384 64 l 1,2,-1
 384 0 l 1,3,-1
 448 0 l 1,0,-1
448 512 m 1,4,-1
 448 576 l 1,5,-1
 384 576 l 1,6,-1
 384 512 l 1,7,-1
 320 512 l 1,8,-1
 320 448 l 1,9,-1
 256 448 l 1,10,-1
 256 384 l 1,11,-1
 192 384 l 1,12,-1
 192 320 l 1,13,-1
 128 320 l 1,14,-1
 128 256 l 1,15,-1
 192 256 l 1,16,-1
 192 192 l 1,17,-1
 256 192 l 1,18,-1
 256 128 l 1,19,-1
 320 128 l 1,20,-1
 320 64 l 1,21,-1
 384 64 l 1,22,-1
 384 128 l 1,23,-1
 320 128 l 1,24,-1
 320 192 l 1,25,-1
 256 192 l 1,26,-1
 256 256 l 1,27,-1
 192 256 l 1,28,-1
 192 320 l 1,29,-1
 256 320 l 1,30,-1
 256 384 l 1,31,-1
 320 384 l 1,32,-1
 320 448 l 1,33,-1
 384 448 l 1,34,-1
 384 512 l 1,35,-1
 448 512 l 1,4,-1
EndSplineSet
EndChar

StartChar: uni003D
Encoding: 61 61 61
Width: 512
GlyphClass: 2
Flags: W
LayerCount: 2
Fore
SplineSet
448 128 m 1,0,-1
 448 192 l 1,1,-1
 64 192 l 1,2,-1
 64 128 l 1,3,-1
 448 128 l 1,0,-1
448 384 m 1,4,-1
 448 448 l 1,5,-1
 64 448 l 1,6,-1
 64 384 l 1,7,-1
 448 384 l 1,4,-1
EndSplineSet
EndChar

StartChar: uni003E
Encoding: 62 62 62
Width: 512
GlyphClass: 2
Flags: W
LayerCount: 2
Fore
SplineSet
384 256 m 1,0,-1
 384 320 l 1,1,-1
 320 320 l 1,2,-1
 320 256 l 1,3,-1
 256 256 l 1,4,-1
 256 192 l 1,5,-1
 192 192 l 1,6,-1
 192 128 l 1,7,-1
 128 128 l 1,8,-1
 128 64 l 1,9,-1
 64 64 l 1,10,-1
 64 0 l 1,11,-1
 128 0 l 1,12,-1
 128 64 l 1,13,-1
 192 64 l 1,14,-1
 192 128 l 1,15,-1
 256 128 l 1,16,-1
 256 192 l 1,17,-1
 320 192 l 1,18,-1
 320 256 l 1,19,-1
 384 256 l 1,0,-1
320 320 m 1,20,-1
 320 384 l 1,21,-1
 256 384 l 1,22,-1
 256 320 l 1,23,-1
 320 320 l 1,20,-1
256 384 m 1,24,-1
 256 448 l 1,25,-1
 192 448 l 1,26,-1
 192 384 l 1,27,-1
 256 384 l 1,24,-1
192 448 m 1,28,-1
 192 512 l 1,29,-1
 128 512 l 1,30,-1
 128 448 l 1,31,-1
 192 448 l 1,28,-1
128 512 m 1,32,-1
 128 576 l 1,33,-1
 64 576 l 1,34,-1
 64 512 l 1,35,-1
 128 512 l 1,32,-1
EndSplineSet
EndChar

StartChar: uni003F
Encoding: 63 63 63
Width: 512
GlyphClass: 2
Flags: W
LayerCount: 2
Fore
SplineSet
256 128 m 1,0,1
 256 128 256 128 256 0 c 1,2,-1
 320 0 l 1,3,4
 320 0 320 0 320 128 c 1,5,-1
 256 128 l 1,0,1
256 320 m 1,6,7
 256 320 256 320 256 192 c 1,8,-1
 320 192 l 1,9,10
 320 192 320 192 320 320 c 1,11,-1
 256 320 l 1,6,7
320 320 m 1,12,-1
 384 320 l 1,13,-1
 384 384 l 1,14,-1
 320 384 l 1,15,-1
 320 320 l 1,12,-1
384 384 m 1,16,-1
 448 384 l 1,17,-1
 448 576 l 1,18,-1
 384 576 l 1,19,-1
 384 384 l 1,16,-1
64 576 m 1,20,21
 64 576 64 576 64 448 c 1,22,-1
 128 448 l 1,23,24
 128 448 128 448 128 576 c 1,25,-1
 64 576 l 1,20,21
128 576 m 1,26,-1
 384 576 l 1,27,-1
 384 640 l 1,28,-1
 128 640 l 1,29,-1
 128 576 l 1,26,-1
EndSplineSet
EndChar

StartChar: uni0040
Encoding: 64 64 64
Width: 512
GlyphClass: 2
Flags: W
LayerCount: 2
Fore
SplineSet
448 0 m 1,0,-1
 448 64 l 1,1,-1
 192 64 l 1,2,-1
 192 0 l 1,3,-1
 448 0 l 1,0,-1
192 64 m 1,4,-1
 192 128 l 1,5,-1
 128 128 l 1,6,-1
 128 64 l 1,7,-1
 192 64 l 1,4,-1
128 128 m 1,8,9
 128 128 128 128 128 512 c 1,10,-1
 64 512 l 1,11,12
 64 512 64 512 64 128 c 1,13,-1
 128 128 l 1,8,9
256 192 m 1,14,-1
 256 128 l 1,15,-1
 448 128 l 1,16,-1
 448 576 l 1,17,-1
 384 576 l 1,18,19
 384 576 384 576 384 448 c 1,20,-1
 320 448 l 1,21,-1
 320 384 l 1,22,-1
 384 384 l 1,23,-1
 384 192 l 1,24,-1
 256 192 l 1,14,-1
256 192 m 1,25,26
 256 192 256 192 256 448 c 1,27,-1
 192 448 l 1,28,29
 192 448 192 448 192 192 c 1,30,-1
 256 192 l 1,25,26
256 448 m 1,31,-1
 320 448 l 1,32,-1
 320 512 l 1,33,-1
 256 512 l 1,34,-1
 256 448 l 1,31,-1
128 512 m 1,35,-1
 192 512 l 1,36,-1
 192 576 l 1,37,-1
 128 576 l 1,38,-1
 128 512 l 1,35,-1
192 576 m 1,39,-1
 384 576 l 1,40,-1
 384 640 l 1,41,-1
 192 640 l 1,42,-1
 192 576 l 1,39,-1
EndSplineSet
EndChar

StartChar: uni0041
Encoding: 65 65 65
Width: 512
GlyphClass: 2
Flags: W
LayerCount: 2
Fore
SplineSet
64 448 m 1,0,-1
 64 0 l 1,1,-1
 128 0 l 1,2,3
 128 0 128 0 128 256 c 1,4,-1
 384 256 l 1,5,6
 384 256 384 256 384 0 c 1,7,-1
 448 0 l 1,8,-1
 448 448 l 1,9,-1
 384 448 l 1,10,11
 384 448 384 448 384 320 c 1,12,-1
 128 320 l 1,13,14
 128 320 128 320 128 448 c 1,15,-1
 64 448 l 1,0,-1
128 448 m 1,16,-1
 192 448 l 1,17,18
 192 448 192 448 192 576 c 1,19,-1
 128 576 l 1,20,21
 128 576 128 576 128 448 c 1,16,-1
384 448 m 1,22,23
 384 448 384 448 384 576 c 1,24,-1
 320 576 l 1,25,26
 320 576 320 576 320 448 c 1,27,-1
 384 448 l 1,22,23
192 576 m 1,28,-1
 320 576 l 1,29,-1
 320 640 l 1,30,-1
 192 640 l 1,31,-1
 192 576 l 1,28,-1
EndSplineSet
EndChar

StartChar: uni0042
Encoding: 66 66 66
Width: 512
GlyphClass: 2
Flags: W
LayerCount: 2
Fore
SplineSet
128 64 m 1,0,-1
 192 64 l 1,1,-1
 192 0 l 1,2,-1
 384 0 l 1,3,-1
 384 64 l 1,4,-1
 192 64 l 1,5,-1
 192 128 l 1,6,-1
 128 128 l 1,7,8
 128 128 128 128 128 384 c 1,9,-1
 192 384 l 1,10,-1
 192 448 l 1,11,-1
 128 448 l 1,12,13
 128 448 128 448 128 704 c 1,14,-1
 64 704 l 1,15,-1
 64 0 l 1,16,-1
 128 0 l 1,17,-1
 128 64 l 1,0,-1
384 64 m 1,18,-1
 448 64 l 1,19,20
 448 64 448 64 448 448 c 1,21,-1
 384 448 l 1,22,23
 384 448 384 448 384 64 c 1,18,-1
192 448 m 1,24,-1
 384 448 l 1,25,-1
 384 512 l 1,26,-1
 192 512 l 1,27,-1
 192 448 l 1,24,-1
EndSplineSet
EndChar

StartChar: uni0043
Encoding: 67 67 67
Width: 512
GlyphClass: 2
Flags: W
LayerCount: 2
Fore
SplineSet
448 64 m 1,0,-1
 448 128 l 1,1,-1
 384 128 l 1,2,-1
 384 64 l 1,3,-1
 128 64 l 1,4,-1
 128 0 l 1,5,-1
 384 0 l 1,6,-1
 384 64 l 1,7,-1
 448 64 l 1,0,-1
448 384 m 1,8,-1
 448 448 l 1,9,-1
 384 448 l 1,10,-1
 384 384 l 1,11,-1
 448 384 l 1,8,-1
128 64 m 1,12,13
 128 64 128 64 128 448 c 1,14,-1
 64 448 l 1,15,16
 64 448 64 448 64 64 c 1,17,-1
 128 64 l 1,12,13
128 448 m 1,18,-1
 384 448 l 1,19,-1
 384 512 l 1,20,-1
 128 512 l 1,21,-1
 128 448 l 1,18,-1
EndSplineSet
EndChar

StartChar: uni0044
Encoding: 68 68 68
Width: 512
GlyphClass: 2
Flags: W
LayerCount: 2
Fore
SplineSet
128 64 m 1,0,-1
 128 0 l 1,1,-1
 320 0 l 1,2,-1
 320 64 l 1,3,-1
 128 64 l 1,0,-1
128 64 m 1,4,5
 128 64 128 64 128 448 c 1,6,-1
 64 448 l 1,7,8
 64 448 64 448 64 64 c 1,9,-1
 128 64 l 1,4,5
384 64 m 1,10,-1
 384 0 l 1,11,-1
 448 0 l 1,12,-1
 448 704 l 1,13,-1
 384 704 l 1,14,15
 384 704 384 704 384 448 c 1,16,-1
 320 448 l 1,17,-1
 320 384 l 1,18,-1
 384 384 l 1,19,20
 384 384 384 384 384 128 c 1,21,-1
 320 128 l 1,22,-1
 320 64 l 1,23,-1
 384 64 l 1,10,-1
128 448 m 1,24,-1
 320 448 l 1,25,-1
 320 512 l 1,26,-1
 128 512 l 1,27,-1
 128 448 l 1,24,-1
EndSplineSet
EndChar

StartChar: uni0045
Encoding: 69 69 69
Width: 512
GlyphClass: 2
Flags: W
LayerCount: 2
Fore
SplineSet
448 128 m 1,0,-1
 448 192 l 1,1,-1
 64 192 l 1,2,-1
 64 128 l 1,3,-1
 448 128 l 1,0,-1
448 256 m 1,4,-1
 448 320 l 1,5,-1
 64 320 l 1,6,-1
 64 256 l 1,7,-1
 448 256 l 1,4,-1
448 384 m 1,8,-1
 448 448 l 1,9,-1
 64 448 l 1,10,-1
 64 384 l 1,11,-1
 448 384 l 1,8,-1
EndSplineSet
EndChar

StartChar: uni0046
Encoding: 70 70 70
Width: 512
GlyphClass: 2
Flags: W
LayerCount: 2
Fore
SplineSet
448 256 m 1,0,-1
 448 320 l 1,1,-1
 384 320 l 1,2,-1
 384 384 l 1,3,-1
 320 384 l 1,4,-1
 320 320 l 1,5,-1
 0 320 l 1,6,-1
 0 256 l 1,7,-1
 320 256 l 1,8,-1
 320 192 l 1,9,-1
 256 192 l 1,10,-1
 256 128 l 1,11,-1
 320 128 l 1,12,-1
 320 192 l 1,13,-1
 384 192 l 1,14,-1
 384 256 l 1,15,-1
 448 256 l 1,0,-1
320 384 m 1,16,-1
 320 448 l 1,17,-1
 256 448 l 1,18,-1
 256 384 l 1,19,-1
 320 384 l 1,16,-1
EndSplineSet
EndChar

StartChar: uni0047
Encoding: 71 71 71
Width: 512
GlyphClass: 2
Flags: W
LayerCount: 2
Fore
SplineSet
128 -64 m 1,0,-1
 128 -128 l 1,1,-1
 384 -128 l 1,2,-1
 384 -64 l 1,3,-1
 128 -64 l 1,0,-1
128 -64 m 1,4,5
 128 -64 128 -64 128 64 c 1,6,-1
 64 64 l 1,7,8
 64 64 64 64 64 -64 c 1,9,-1
 128 -64 l 1,4,5
384 -64 m 1,10,-1
 448 -64 l 1,11,12
 448 -64 448 -64 448 64 c 1,13,-1
 384 64 l 1,14,15
 384 64 384 64 384 -64 c 1,10,-1
128 64 m 1,16,-1
 384 64 l 1,17,-1
 384 128 l 1,18,-1
 192 128 l 1,19,-1
 192 192 l 1,20,-1
 320 192 l 1,21,-1
 320 256 l 1,22,-1
 128 256 l 1,23,-1
 128 64 l 1,16,-1
128 256 m 1,24,-1
 128 448 l 1,25,-1
 64 448 l 1,26,-1
 64 256 l 1,27,-1
 128 256 l 1,24,-1
320 256 m 1,28,-1
 384 256 l 1,29,-1
 384 448 l 1,30,-1
 320 448 l 1,31,-1
 320 256 l 1,28,-1
128 448 m 1,32,-1
 320 448 l 1,33,-1
 320 512 l 1,34,-1
 128 512 l 1,35,-1
 128 448 l 1,32,-1
384 448 m 1,36,-1
 448 448 l 1,37,38
 448 448 448 448 448 576 c 1,39,-1
 384 576 l 1,40,41
 384 576 384 576 384 448 c 1,36,-1
EndSplineSet
EndChar

StartChar: uni0048
Encoding: 72 72 72
Width: 512
GlyphClass: 2
Flags: W
LayerCount: 2
Fore
SplineSet
320 64 m 1,0,-1
 320 128 l 1,1,-1
 192 128 l 1,2,-1
 192 64 l 1,3,-1
 320 64 l 1,0,-1
448 256 m 1,4,-1
 448 320 l 1,5,-1
 64 320 l 1,6,-1
 64 256 l 1,7,-1
 448 256 l 1,4,-1
320 448 m 1,8,-1
 320 512 l 1,9,-1
 192 512 l 1,10,-1
 192 448 l 1,11,-1
 320 448 l 1,8,-1
EndSplineSet
EndChar

StartChar: uni0049
Encoding: 73 73 73
Width: 512
GlyphClass: 2
Flags: W
LayerCount: 2
Fore
SplineSet
448 128 m 1,0,-1
 448 192 l 1,1,-1
 256 192 l 1,2,-1
 256 256 l 1,3,-1
 192 256 l 1,4,-1
 192 192 l 1,5,-1
 64 192 l 1,6,-1
 64 128 l 1,7,-1
 128 128 l 1,8,-1
 128 64 l 1,9,-1
 64 64 l 1,10,-1
 64 0 l 1,11,-1
 128 0 l 1,12,-1
 128 64 l 1,13,-1
 192 64 l 1,14,-1
 192 128 l 1,15,-1
 448 128 l 1,0,-1
448 320 m 1,16,-1
 448 384 l 1,17,-1
 384 384 l 1,18,-1
 384 448 l 1,19,-1
 320 448 l 1,20,-1
 320 384 l 1,21,-1
 64 384 l 1,22,-1
 64 320 l 1,23,-1
 256 320 l 1,24,-1
 256 256 l 1,25,-1
 320 256 l 1,26,-1
 320 320 l 1,27,-1
 448 320 l 1,16,-1
448 448 m 1,28,-1
 448 512 l 1,29,-1
 384 512 l 1,30,-1
 384 448 l 1,31,-1
 448 448 l 1,28,-1
EndSplineSet
EndChar

StartChar: uni004A
Encoding: 74 74 74
Width: 512
GlyphClass: 2
Flags: W
LayerCount: 2
Fore
SplineSet
512 576 m 1,0,-1
 512 640 l 1,1,-1
 192 640 l 1,2,-1
 192 576 l 1,3,-1
 320 576 l 1,4,5
 320 576 320 576 320 64 c 1,6,-1
 128 64 l 1,7,-1
 128 0 l 1,8,-1
 320 0 l 1,9,-1
 320 64 l 1,10,-1
 384 64 l 1,11,12
 384 64 384 64 384 576 c 1,13,-1
 512 576 l 1,0,-1
128 64 m 1,14,15
 128 64 128 64 128 192 c 1,16,-1
 64 192 l 1,17,18
 64 192 64 192 64 64 c 1,19,-1
 128 64 l 1,14,15
EndSplineSet
EndChar

StartChar: uni004B
Encoding: 75 75 75
Width: 512
GlyphClass: 2
Flags: W
LayerCount: 2
Fore
SplineSet
448 192 m 1,0,-1
 448 256 l 1,1,-1
 384 256 l 1,2,-1
 384 192 l 1,3,-1
 256 192 l 1,4,-1
 256 128 l 1,5,-1
 384 128 l 1,6,-1
 384 192 l 1,7,-1
 448 192 l 1,0,-1
448 384 m 1,8,-1
 448 448 l 1,9,-1
 384 448 l 1,10,-1
 384 384 l 1,11,-1
 256 384 l 1,12,-1
 256 320 l 1,13,-1
 384 320 l 1,14,-1
 384 384 l 1,15,-1
 448 384 l 1,8,-1
128 192 m 1,16,-1
 64 192 l 1,17,-1
 64 128 l 1,18,-1
 128 128 l 1,19,-1
 128 192 l 1,16,-1
128 192 m 1,20,-1
 256 192 l 1,21,-1
 256 256 l 1,22,-1
 128 256 l 1,23,-1
 128 192 l 1,20,-1
128 384 m 1,24,-1
 64 384 l 1,25,-1
 64 320 l 1,26,-1
 128 320 l 1,27,-1
 128 384 l 1,24,-1
128 384 m 1,28,-1
 256 384 l 1,29,-1
 256 448 l 1,30,-1
 128 448 l 1,31,-1
 128 384 l 1,28,-1
EndSplineSet
EndChar

StartChar: uni004C
Encoding: 76 76 76
Width: 512
GlyphClass: 2
Flags: W
LayerCount: 2
Fore
SplineSet
448 0 m 1,0,-1
 448 64 l 1,1,-1
 128 64 l 1,2,-1
 128 640 l 1,3,-1
 64 640 l 1,4,5
 64 640 64 640 64 0 c 1,6,-1
 448 0 l 1,0,-1
EndSplineSet
EndChar

StartChar: uni004D
Encoding: 77 77 77
Width: 512
GlyphClass: 2
Flags: W
LayerCount: 2
Fore
SplineSet
64 640 m 1,0,1
 64 640 64 640 64 0 c 1,2,-1
 128 0 l 1,3,4
 128 0 128 0 128 384 c 1,5,-1
 192 384 l 1,6,7
 192 384 192 384 192 256 c 1,8,-1
 320 256 l 1,9,10
 320 256 320 256 320 384 c 1,11,-1
 192 384 l 1,12,13
 192 384 192 384 192 512 c 1,14,-1
 128 512 l 1,15,16
 128 512 128 512 128 640 c 1,17,-1
 64 640 l 1,0,1
384 384 m 1,18,19
 384 384 384 384 384 0 c 1,20,-1
 448 0 l 1,21,22
 448 0 448 0 448 640 c 1,23,-1
 384 640 l 1,24,25
 384 640 384 640 384 512 c 1,26,-1
 320 512 l 1,27,28
 320 512 320 512 320 384 c 1,29,-1
 384 384 l 1,18,19
EndSplineSet
EndChar

StartChar: uni004E
Encoding: 78 78 78
Width: 512
GlyphClass: 2
Flags: W
LayerCount: 2
Fore
SplineSet
64 512 m 1,0,1
 64 512 64 512 64 0 c 1,2,-1
 128 0 l 1,3,4
 128 0 128 0 128 384 c 1,5,-1
 192 384 l 1,6,-1
 192 448 l 1,7,-1
 128 448 l 1,8,-1
 128 512 l 1,9,-1
 64 512 l 1,0,1
384 448 m 1,10,-1
 384 0 l 1,11,-1
 448 0 l 1,12,-1
 448 448 l 1,13,-1
 384 448 l 1,10,-1
192 448 m 1,14,-1
 384 448 l 1,15,-1
 384 512 l 1,16,-1
 192 512 l 1,17,-1
 192 448 l 1,14,-1
EndSplineSet
EndChar

StartChar: uni004F
Encoding: 79 79 79
Width: 512
GlyphClass: 2
Flags: W
LayerCount: 2
Fore
SplineSet
128 64 m 1,0,-1
 128 0 l 1,1,-1
 384 0 l 1,2,-1
 384 64 l 1,3,-1
 128 64 l 1,0,-1
128 64 m 1,4,5
 128 64 128 64 128 576 c 1,6,-1
 64 576 l 1,7,8
 64 576 64 576 64 64 c 1,9,-1
 128 64 l 1,4,5
384 64 m 1,10,-1
 448 64 l 1,11,12
 448 64 448 64 448 576 c 1,13,-1
 384 576 l 1,14,15
 384 576 384 576 384 64 c 1,10,-1
128 576 m 1,16,-1
 384 576 l 1,17,-1
 384 640 l 1,18,-1
 128 640 l 1,19,-1
 128 576 l 1,16,-1
EndSplineSet
EndChar

StartChar: uni0050
Encoding: 80 80 80
Width: 512
GlyphClass: 2
Flags: W
LayerCount: 2
Fore
SplineSet
256 128 m 1,0,-1
 256 192 l 1,1,-1
 192 192 l 1,2,-1
 192 128 l 1,3,-1
 256 128 l 1,0,-1
512 256 m 1,4,-1
 512 320 l 1,5,-1
 192 320 l 1,6,-1
 192 384 l 1,7,-1
 128 384 l 1,8,-1
 128 320 l 1,9,-1
 64 320 l 1,10,-1
 64 256 l 1,11,-1
 128 256 l 1,12,-1
 128 192 l 1,13,-1
 192 192 l 1,14,-1
 192 256 l 1,15,-1
 512 256 l 1,4,-1
256 384 m 1,16,-1
 256 448 l 1,17,-1
 192 448 l 1,18,-1
 192 384 l 1,19,-1
 256 384 l 1,16,-1
EndSplineSet
EndChar

StartChar: uni0051
Encoding: 81 81 81
Width: 512
GlyphClass: 2
Flags: W
LayerCount: 2
Fore
SplineSet
384 64 m 1,0,-1
 384 -128 l 1,1,-1
 448 -128 l 1,2,3
 448 -128 448 -128 448 512 c 1,4,-1
 384 512 l 1,5,-1
 384 448 l 1,6,-1
 320 448 l 1,7,-1
 320 384 l 1,8,-1
 384 384 l 1,9,10
 384 384 384 384 384 128 c 1,11,-1
 320 128 l 1,12,-1
 320 64 l 1,13,-1
 128 64 l 1,14,-1
 128 0 l 1,15,-1
 320 0 l 1,16,-1
 320 64 l 1,17,-1
 384 64 l 1,0,-1
128 64 m 1,18,19
 128 64 128 64 128 448 c 1,20,-1
 64 448 l 1,21,22
 64 448 64 448 64 64 c 1,23,-1
 128 64 l 1,18,19
128 448 m 1,24,-1
 320 448 l 1,25,-1
 320 512 l 1,26,-1
 128 512 l 1,27,-1
 128 448 l 1,24,-1
EndSplineSet
EndChar

StartChar: uni0052
Encoding: 82 82 82
Width: 512
GlyphClass: 2
Flags: W
LayerCount: 2
Fore
SplineSet
64 512 m 1,0,1
 64 512 64 512 64 0 c 1,2,-1
 128 0 l 1,3,4
 128 0 128 0 128 384 c 1,5,-1
 192 384 l 1,6,-1
 192 448 l 1,7,-1
 128 448 l 1,8,-1
 128 512 l 1,9,-1
 64 512 l 1,0,1
384 448 m 1,10,11
 384 448 384 448 384 320 c 1,12,-1
 448 320 l 1,13,14
 448 320 448 320 448 448 c 1,15,-1
 384 448 l 1,10,11
192 448 m 1,16,-1
 384 448 l 1,17,-1
 384 512 l 1,18,-1
 192 512 l 1,19,-1
 192 448 l 1,16,-1
EndSplineSet
EndChar

StartChar: uni0053
Encoding: 83 83 83
Width: 512
GlyphClass: 2
Flags: W
LayerCount: 2
Fore
SplineSet
448 384 m 1,0,-1
 448 448 l 1,1,-1
 384 448 l 1,2,-1
 384 384 l 1,3,-1
 448 384 l 1,0,-1
128 64 m 1,4,-1
 128 0 l 1,5,-1
 384 0 l 1,6,-1
 384 64 l 1,7,-1
 128 64 l 1,4,-1
128 64 m 1,8,-1
 128 128 l 1,9,-1
 64 128 l 1,10,-1
 64 64 l 1,11,-1
 128 64 l 1,8,-1
384 64 m 1,12,-1
 448 64 l 1,13,14
 448 64 448 64 448 192 c 1,15,-1
 384 192 l 1,16,17
 384 192 384 192 384 64 c 1,12,-1
384 192 m 1,18,-1
 384 256 l 1,19,-1
 256 256 l 1,20,-1
 256 192 l 1,21,-1
 384 192 l 1,18,-1
256 256 m 1,22,-1
 256 320 l 1,23,-1
 128 320 l 1,24,-1
 128 256 l 1,25,-1
 256 256 l 1,22,-1
128 320 m 1,26,27
 128 320 128 320 128 448 c 1,28,-1
 64 448 l 1,29,30
 64 448 64 448 64 320 c 1,31,-1
 128 320 l 1,26,27
128 448 m 1,32,-1
 384 448 l 1,33,-1
 384 512 l 1,34,-1
 128 512 l 1,35,-1
 128 448 l 1,32,-1
EndSplineSet
EndChar

StartChar: uni0054
Encoding: 84 84 84
Width: 512
GlyphClass: 2
Flags: W
LayerCount: 2
Fore
SplineSet
384 0 m 1,0,-1
 384 64 l 1,1,-1
 256 64 l 1,2,-1
 256 0 l 1,3,-1
 384 0 l 1,0,-1
384 384 m 1,4,-1
 384 448 l 1,5,-1
 256 448 l 1,6,-1
 256 640 l 1,7,-1
 192 640 l 1,8,-1
 192 448 l 1,9,-1
 64 448 l 1,10,-1
 64 384 l 1,11,-1
 192 384 l 1,12,-1
 192 64 l 1,13,-1
 256 64 l 1,14,-1
 256 384 l 1,15,-1
 384 384 l 1,4,-1
EndSplineSet
EndChar

StartChar: uni0055
Encoding: 85 85 85
Width: 512
GlyphClass: 2
Flags: W
LayerCount: 2
Fore
SplineSet
448 576 m 1,0,-1
 448 640 l 1,1,-1
 384 640 l 1,2,-1
 384 576 l 1,3,-1
 448 576 l 1,0,-1
256 640 m 1,4,5
 256 640 256 640 256 -128 c 1,6,-1
 320 -128 l 1,7,8
 320 -128 320 -128 320 640 c 1,9,-1
 384 640 l 1,10,-1
 384 704 l 1,11,-1
 320 704 l 1,12,-1
 320 768 l 1,13,-1
 256 768 l 1,14,-1
 256 704 l 1,15,-1
 192 704 l 1,16,-1
 192 640 l 1,17,-1
 128 640 l 1,18,-1
 128 576 l 1,19,-1
 192 576 l 1,20,-1
 192 640 l 1,21,-1
 256 640 l 1,4,5
EndSplineSet
EndChar

StartChar: uni0056
Encoding: 86 86 86
Width: 512
GlyphClass: 2
Flags: W
LayerCount: 2
Fore
SplineSet
448 128 m 1,0,-1
 448 192 l 1,1,-1
 384 192 l 1,2,-1
 384 128 l 1,3,-1
 320 128 l 1,4,5
 320 128 320 128 320 896 c 1,6,-1
 256 896 l 1,7,8
 256 896 256 896 256 128 c 1,9,-1
 192 128 l 1,10,-1
 192 64 l 1,11,-1
 256 64 l 1,12,-1
 256 0 l 1,13,-1
 320 0 l 1,14,-1
 320 64 l 1,15,-1
 384 64 l 1,16,-1
 384 128 l 1,17,-1
 448 128 l 1,0,-1
192 128 m 1,18,-1
 192 192 l 1,19,-1
 128 192 l 1,20,-1
 128 128 l 1,21,-1
 192 128 l 1,18,-1
EndSplineSet
EndChar

StartChar: uni0057
Encoding: 87 87 87
Width: 512
GlyphClass: 2
Flags: W
LayerCount: 2
Fore
SplineSet
64 640 m 1,0,1
 64 640 64 640 64 0 c 1,2,-1
 320 0 l 1,3,-1
 320 64 l 1,4,-1
 128 64 l 1,5,6
 128 64 128 64 128 576 c 1,7,-1
 320 576 l 1,8,-1
 320 512 l 1,9,-1
 384 512 l 1,10,11
 384 512 384 512 384 128 c 1,12,-1
 320 128 l 1,13,-1
 320 64 l 1,14,-1
 384 64 l 1,15,-1
 384 128 l 1,16,-1
 448 128 l 1,17,18
 448 128 448 128 448 512 c 1,19,-1
 384 512 l 1,20,-1
 384 576 l 1,21,-1
 320 576 l 1,22,-1
 320 640 l 1,23,-1
 64 640 l 1,0,1
EndSplineSet
EndChar

StartChar: uni0058
Encoding: 88 88 88
Width: 512
GlyphClass: 2
Flags: W
LayerCount: 2
Fore
SplineSet
512 576 m 1,0,-1
 512 640 l 1,1,-1
 64 640 l 1,2,-1
 64 576 l 1,3,-1
 256 576 l 1,4,-1
 256 0 l 1,5,-1
 320 0 l 1,6,-1
 320 576 l 1,7,-1
 512 576 l 1,0,-1
EndSplineSet
EndChar

StartChar: uni0059
Encoding: 89 89 89
Width: 512
GlyphClass: 2
Flags: W
LayerCount: 2
Fore
SplineSet
384 -64 m 1,0,-1
 128 -64 l 1,1,-1
 128 -128 l 1,2,-1
 384 -128 l 1,3,-1
 384 -64 l 1,0,-1
384 -64 m 1,4,-1
 448 -64 l 1,5,-1
 448 512 l 1,6,-1
 384 512 l 1,7,-1
 384 192 l 1,8,-1
 320 192 l 1,9,-1
 320 128 l 1,10,-1
 192 128 l 1,11,-1
 192 64 l 1,12,-1
 320 64 l 1,13,-1
 320 128 l 1,14,-1
 384 128 l 1,15,-1
 384 -64 l 1,4,-1
192 128 m 1,16,-1
 192 192 l 1,17,-1
 128 192 l 1,18,-1
 128 128 l 1,19,-1
 192 128 l 1,16,-1
128 192 m 1,20,-1
 128 512 l 1,21,-1
 64 512 l 1,22,-1
 64 192 l 1,23,-1
 128 192 l 1,20,-1
EndSplineSet
EndChar

StartChar: uni005A
Encoding: 90 90 90
Width: 512
GlyphClass: 2
Flags: W
LayerCount: 2
Fore
SplineSet
64 128 m 1,0,1
 64 128 64 128 64 0 c 1,2,-1
 448 0 l 1,3,4
 448 0 448 0 448 128 c 1,5,-1
 384 128 l 1,6,-1
 384 64 l 1,7,-1
 128 64 l 1,8,-1
 128 128 l 1,9,-1
 64 128 l 1,0,1
128 128 m 1,10,-1
 192 128 l 1,11,-1
 192 192 l 1,12,-1
 128 192 l 1,13,-1
 128 128 l 1,10,-1
192 192 m 1,14,-1
 256 192 l 1,15,-1
 256 256 l 1,16,-1
 192 256 l 1,17,-1
 192 192 l 1,14,-1
256 256 m 1,18,-1
 320 256 l 1,19,20
 320 256 320 256 320 384 c 1,21,-1
 256 384 l 1,22,23
 256 384 256 384 256 256 c 1,18,-1
256 384 m 1,24,-1
 256 448 l 1,25,-1
 192 448 l 1,26,-1
 192 384 l 1,27,-1
 256 384 l 1,24,-1
192 448 m 1,28,-1
 192 512 l 1,29,-1
 128 512 l 1,30,-1
 128 448 l 1,31,-1
 192 448 l 1,28,-1
128 512 m 1,32,-1
 128 576 l 1,33,-1
 384 576 l 1,34,-1
 384 512 l 1,35,-1
 448 512 l 1,36,37
 448 512 448 512 448 640 c 1,38,-1
 64 640 l 1,39,40
 64 640 64 640 64 512 c 1,41,-1
 128 512 l 1,32,-1
EndSplineSet
EndChar

StartChar: uni005B
Encoding: 91 91 91
Width: 512
GlyphClass: 2
Flags: W
LayerCount: 2
Fore
SplineSet
448 -64 m 1,0,-1
 448 0 l 1,1,-1
 320 0 l 1,2,3
 320 0 320 0 320 640 c 1,4,-1
 448 640 l 1,5,-1
 448 704 l 1,6,-1
 256 704 l 1,7,8
 256 704 256 704 256 -64 c 1,9,-1
 448 -64 l 1,0,-1
EndSplineSet
EndChar

StartChar: uni005C
Encoding: 92 92 92
Width: 512
GlyphClass: 2
Flags: W
LayerCount: 2
Fore
SplineSet
384 128 m 1,0,1
 384 128 384 128 384 0 c 1,2,-1
 448 0 l 1,3,4
 448 0 448 0 448 128 c 1,5,-1
 384 128 l 1,0,1
384 128 m 1,6,-1
 384 192 l 1,7,-1
 320 192 l 1,8,-1
 320 128 l 1,9,-1
 384 128 l 1,6,-1
320 192 m 1,10,11
 320 192 320 192 320 320 c 1,12,-1
 256 320 l 1,13,14
 256 320 256 320 256 192 c 1,15,-1
 320 192 l 1,10,11
256 320 m 1,16,17
 256 320 256 320 256 448 c 1,18,-1
 192 448 l 1,19,20
 192 448 192 448 192 320 c 1,21,-1
 256 320 l 1,16,17
192 448 m 1,22,-1
 192 512 l 1,23,-1
 128 512 l 1,24,-1
 128 448 l 1,25,-1
 192 448 l 1,22,-1
128 512 m 1,26,27
 128 512 128 512 128 640 c 1,28,-1
 64 640 l 1,29,30
 64 640 64 640 64 512 c 1,31,-1
 128 512 l 1,26,27
EndSplineSet
EndChar

StartChar: uni005D
Encoding: 93 93 93
Width: 512
GlyphClass: 2
Flags: W
LayerCount: 2
Fore
SplineSet
192 0 m 1,0,-1
 64 0 l 1,1,-1
 64 -64 l 1,2,-1
 256 -64 l 1,3,4
 256 -64 256 -64 256 704 c 1,5,-1
 64 704 l 1,6,-1
 64 640 l 1,7,-1
 192 640 l 1,8,9
 192 640 192 640 192 0 c 1,0,-1
EndSplineSet
EndChar

StartChar: uni005E
Encoding: 94 94 94
Width: 512
GlyphClass: 2
Flags: W
LayerCount: 2
Fore
SplineSet
448 576 m 1,0,-1
 448 640 l 1,1,-1
 384 640 l 1,2,-1
 384 576 l 1,3,-1
 448 576 l 1,0,-1
128 640 m 1,4,-1
 64 640 l 1,5,-1
 64 576 l 1,6,-1
 128 576 l 1,7,-1
 128 640 l 1,4,-1
128 640 m 1,8,-1
 192 640 l 1,9,-1
 192 704 l 1,10,-1
 128 704 l 1,11,-1
 128 640 l 1,8,-1
384 640 m 1,12,-1
 384 704 l 1,13,-1
 320 704 l 1,14,-1
 320 640 l 1,15,-1
 384 640 l 1,12,-1
192 704 m 1,16,-1
 320 704 l 1,17,-1
 320 768 l 1,18,-1
 192 768 l 1,19,-1
 192 704 l 1,16,-1
EndSplineSet
EndChar

StartChar: uni005F
Encoding: 95 95 95
Width: 512
GlyphClass: 2
Flags: W
LayerCount: 2
Fore
SplineSet
512 -64 m 1,0,-1
 512 0 l 1,1,-1
 64 0 l 1,2,-1
 64 -64 l 1,3,-1
 512 -64 l 1,0,-1
EndSplineSet
EndChar

StartChar: uni0060
Encoding: 96 96 96
Width: 512
GlyphClass: 2
Flags: W
LayerCount: 2
Fore
SplineSet
320 640 m 1,0,-1
 320 704 l 1,1,-1
 256 704 l 1,2,-1
 256 640 l 1,3,-1
 320 640 l 1,0,-1
256 704 m 1,4,-1
 256 768 l 1,5,-1
 192 768 l 1,6,-1
 192 704 l 1,7,-1
 256 704 l 1,4,-1
192 768 m 1,8,-1
 192 832 l 1,9,-1
 128 832 l 1,10,-1
 128 768 l 1,11,-1
 192 768 l 1,8,-1
EndSplineSet
EndChar

StartChar: uni0061
Encoding: 97 97 97
Width: 512
GlyphClass: 2
Flags: W
LayerCount: 2
Fore
SplineSet
128 64 m 1,0,-1
 128 0 l 1,1,-1
 320 0 l 1,2,-1
 320 64 l 1,3,-1
 128 64 l 1,0,-1
128 64 m 1,4,-1
 128 256 l 1,5,-1
 64 256 l 1,6,-1
 64 64 l 1,7,-1
 128 64 l 1,4,-1
384 64 m 1,8,-1
 384 0 l 1,9,-1
 448 0 l 1,10,-1
 448 448 l 1,11,-1
 384 448 l 1,12,13
 384 448 384 448 384 320 c 1,14,-1
 128 320 l 1,15,-1
 128 256 l 1,16,-1
 384 256 l 1,17,18
 384 256 384 256 384 128 c 1,19,-1
 320 128 l 1,20,-1
 320 64 l 1,21,-1
 384 64 l 1,8,-1
128 448 m 1,22,-1
 64 448 l 1,23,-1
 64 384 l 1,24,-1
 128 384 l 1,25,-1
 128 448 l 1,22,-1
128 448 m 1,26,-1
 384 448 l 1,27,-1
 384 512 l 1,28,-1
 128 512 l 1,29,-1
 128 448 l 1,26,-1
EndSplineSet
EndChar

StartChar: uni0062
Encoding: 98 98 98
Width: 512
GlyphClass: 2
Flags: W
LayerCount: 2
Fore
SplineSet
128 64 m 1,0,-1
 192 64 l 1,1,-1
 192 0 l 1,2,-1
 384 0 l 1,3,-1
 384 64 l 1,4,-1
 192 64 l 1,5,-1
 192 128 l 1,6,-1
 128 128 l 1,7,8
 128 128 128 128 128 384 c 1,9,-1
 192 384 l 1,10,-1
 192 448 l 1,11,-1
 128 448 l 1,12,13
 128 448 128 448 128 704 c 1,14,-1
 64 704 l 1,15,-1
 64 0 l 1,16,-1
 128 0 l 1,17,-1
 128 64 l 1,0,-1
384 64 m 1,18,-1
 448 64 l 1,19,20
 448 64 448 64 448 448 c 1,21,-1
 384 448 l 1,22,23
 384 448 384 448 384 64 c 1,18,-1
192 448 m 1,24,-1
 384 448 l 1,25,-1
 384 512 l 1,26,-1
 192 512 l 1,27,-1
 192 448 l 1,24,-1
EndSplineSet
EndChar

StartChar: uni0063
Encoding: 99 99 99
Width: 512
GlyphClass: 2
Flags: W
LayerCount: 2
Fore
SplineSet
448 64 m 1,0,-1
 448 128 l 1,1,-1
 384 128 l 1,2,-1
 384 64 l 1,3,-1
 128 64 l 1,4,-1
 128 0 l 1,5,-1
 384 0 l 1,6,-1
 384 64 l 1,7,-1
 448 64 l 1,0,-1
448 384 m 1,8,-1
 448 448 l 1,9,-1
 384 448 l 1,10,-1
 384 384 l 1,11,-1
 448 384 l 1,8,-1
128 64 m 1,12,13
 128 64 128 64 128 448 c 1,14,-1
 64 448 l 1,15,16
 64 448 64 448 64 64 c 1,17,-1
 128 64 l 1,12,13
128 448 m 1,18,-1
 384 448 l 1,19,-1
 384 512 l 1,20,-1
 128 512 l 1,21,-1
 128 448 l 1,18,-1
EndSplineSet
EndChar

StartChar: uni0064
Encoding: 100 100 100
Width: 512
GlyphClass: 2
Flags: W
LayerCount: 2
Fore
SplineSet
128 64 m 1,0,-1
 128 0 l 1,1,-1
 320 0 l 1,2,-1
 320 64 l 1,3,-1
 128 64 l 1,0,-1
128 64 m 1,4,5
 128 64 128 64 128 448 c 1,6,-1
 64 448 l 1,7,8
 64 448 64 448 64 64 c 1,9,-1
 128 64 l 1,4,5
384 64 m 1,10,-1
 384 0 l 1,11,-1
 448 0 l 1,12,-1
 448 704 l 1,13,-1
 384 704 l 1,14,15
 384 704 384 704 384 448 c 1,16,-1
 320 448 l 1,17,-1
 320 384 l 1,18,-1
 384 384 l 1,19,20
 384 384 384 384 384 128 c 1,21,-1
 320 128 l 1,22,-1
 320 64 l 1,23,-1
 384 64 l 1,10,-1
128 448 m 1,24,-1
 320 448 l 1,25,-1
 320 512 l 1,26,-1
 128 512 l 1,27,-1
 128 448 l 1,24,-1
EndSplineSet
EndChar

StartChar: uni0065
Encoding: 101 101 101
Width: 512
GlyphClass: 2
Flags: W
LayerCount: 2
Fore
SplineSet
448 64 m 1,0,-1
 448 128 l 1,1,-1
 384 128 l 1,2,-1
 384 64 l 1,3,-1
 128 64 l 1,4,-1
 128 0 l 1,5,-1
 384 0 l 1,6,-1
 384 64 l 1,7,-1
 448 64 l 1,0,-1
128 64 m 1,8,-1
 128 256 l 1,9,-1
 448 256 l 1,10,-1
 448 448 l 1,11,-1
 384 448 l 1,12,13
 384 448 384 448 384 320 c 1,14,-1
 128 320 l 1,15,16
 128 320 128 320 128 448 c 1,17,-1
 64 448 l 1,18,19
 64 448 64 448 64 64 c 1,20,-1
 128 64 l 1,8,-1
128 448 m 1,21,-1
 384 448 l 1,22,-1
 384 512 l 1,23,-1
 128 512 l 1,24,-1
 128 448 l 1,21,-1
EndSplineSet
EndChar

StartChar: uni0066
Encoding: 102 102 102
Width: 512
GlyphClass: 2
Flags: W
LayerCount: 2
Fore
SplineSet
384 384 m 1,0,-1
 384 448 l 1,1,-1
 256 448 l 1,2,-1
 256 640 l 1,3,-1
 192 640 l 1,4,-1
 192 448 l 1,5,-1
 64 448 l 1,6,-1
 64 384 l 1,7,-1
 192 384 l 1,8,9
 192 384 192 384 192 0 c 1,10,-1
 256 0 l 1,11,12
 256 0 256 0 256 384 c 1,13,-1
 384 384 l 1,0,-1
384 640 m 1,14,-1
 384 704 l 1,15,-1
 256 704 l 1,16,-1
 256 640 l 1,17,-1
 384 640 l 1,14,-1
EndSplineSet
EndChar

StartChar: uni0067
Encoding: 103 103 103
Width: 512
GlyphClass: 2
Flags: W
LayerCount: 2
Fore
SplineSet
128 -64 m 1,0,-1
 128 -128 l 1,1,-1
 384 -128 l 1,2,-1
 384 -64 l 1,3,-1
 128 -64 l 1,0,-1
128 -64 m 1,4,5
 128 -64 128 -64 128 64 c 1,6,-1
 64 64 l 1,7,8
 64 64 64 64 64 -64 c 1,9,-1
 128 -64 l 1,4,5
384 -64 m 1,10,-1
 448 -64 l 1,11,12
 448 -64 448 -64 448 64 c 1,13,-1
 384 64 l 1,14,15
 384 64 384 64 384 -64 c 1,10,-1
128 64 m 1,16,-1
 384 64 l 1,17,-1
 384 128 l 1,18,-1
 192 128 l 1,19,-1
 192 192 l 1,20,-1
 320 192 l 1,21,-1
 320 256 l 1,22,-1
 128 256 l 1,23,-1
 128 64 l 1,16,-1
128 256 m 1,24,-1
 128 448 l 1,25,-1
 64 448 l 1,26,-1
 64 256 l 1,27,-1
 128 256 l 1,24,-1
320 256 m 1,28,-1
 384 256 l 1,29,-1
 384 448 l 1,30,-1
 320 448 l 1,31,-1
 320 256 l 1,28,-1
128 448 m 1,32,-1
 320 448 l 1,33,-1
 320 512 l 1,34,-1
 128 512 l 1,35,-1
 128 448 l 1,32,-1
384 448 m 1,36,-1
 448 448 l 1,37,38
 448 448 448 448 448 576 c 1,39,-1
 384 576 l 1,40,41
 384 576 384 576 384 448 c 1,36,-1
EndSplineSet
EndChar

StartChar: uni0068
Encoding: 104 104 104
Width: 512
GlyphClass: 2
Flags: W
LayerCount: 2
Fore
SplineSet
64 640 m 1,0,1
 64 640 64 640 64 0 c 1,2,-1
 128 0 l 1,3,-1
 128 320 l 1,4,-1
 384 320 l 1,5,-1
 384 0 l 1,6,-1
 448 0 l 1,7,8
 448 0 448 0 448 640 c 1,9,-1
 384 640 l 1,10,11
 384 640 384 640 384 384 c 1,12,-1
 128 384 l 1,13,14
 128 384 128 384 128 640 c 1,15,-1
 64 640 l 1,0,1
EndSplineSet
EndChar

StartChar: uni0069
Encoding: 105 105 105
Width: 512
GlyphClass: 2
Flags: W
LayerCount: 2
Fore
SplineSet
448 0 m 1,0,-1
 448 64 l 1,1,-1
 320 64 l 1,2,-1
 320 512 l 1,3,-1
 192 512 l 1,4,-1
 192 448 l 1,5,-1
 256 448 l 1,6,7
 256 448 256 448 256 64 c 1,8,-1
 128 64 l 1,9,-1
 128 0 l 1,10,-1
 448 0 l 1,0,-1
256 704 m 1,11,12
 256 704 256 704 256 576 c 1,13,-1
 320 576 l 1,14,15
 320 576 320 576 320 704 c 1,16,-1
 256 704 l 1,11,12
EndSplineSet
EndChar

StartChar: uni006A
Encoding: 106 106 106
Width: 512
GlyphClass: 2
Flags: W
LayerCount: 2
Fore
SplineSet
128 -64 m 1,0,-1
 128 -128 l 1,1,-1
 256 -128 l 1,2,-1
 256 -64 l 1,3,-1
 128 -64 l 1,0,-1
128 -64 m 1,4,-1
 128 0 l 1,5,-1
 64 0 l 1,6,-1
 64 -64 l 1,7,-1
 128 -64 l 1,4,-1
256 -64 m 1,8,-1
 320 -64 l 1,9,-1
 320 0 l 1,10,-1
 256 0 l 1,11,-1
 256 -64 l 1,8,-1
320 0 m 1,12,-1
 384 0 l 1,13,14
 384 0 384 0 384 512 c 1,15,-1
 256 512 l 1,16,-1
 256 448 l 1,17,-1
 320 448 l 1,18,-1
 320 0 l 1,12,-1
320 704 m 1,19,20
 320 704 320 704 320 576 c 1,21,-1
 384 576 l 1,22,23
 384 576 384 576 384 704 c 1,24,-1
 320 704 l 1,19,20
EndSplineSet
EndChar

StartChar: uni006B
Encoding: 107 107 107
Width: 512
GlyphClass: 2
Flags: W
LayerCount: 2
Fore
SplineSet
448 0 m 1,0,-1
 448 64 l 1,1,-1
 384 64 l 1,2,-1
 384 0 l 1,3,-1
 448 0 l 1,0,-1
384 448 m 1,4,-1
 384 512 l 1,5,-1
 320 512 l 1,6,-1
 320 448 l 1,7,-1
 256 448 l 1,8,-1
 256 384 l 1,9,-1
 192 384 l 1,10,-1
 192 320 l 1,11,-1
 128 320 l 1,12,13
 128 320 128 320 128 704 c 1,14,-1
 64 704 l 1,15,-1
 64 0 l 1,16,-1
 128 0 l 1,17,18
 128 0 128 0 128 256 c 1,19,-1
 192 256 l 1,20,-1
 192 192 l 1,21,-1
 256 192 l 1,22,-1
 256 128 l 1,23,-1
 320 128 l 1,24,-1
 320 64 l 1,25,-1
 384 64 l 1,26,-1
 384 128 l 1,27,-1
 320 128 l 1,28,-1
 320 192 l 1,29,-1
 256 192 l 1,30,-1
 256 256 l 1,31,-1
 192 256 l 1,32,-1
 192 320 l 1,33,-1
 256 320 l 1,34,-1
 256 384 l 1,35,-1
 320 384 l 1,36,-1
 320 448 l 1,37,-1
 384 448 l 1,4,-1
EndSplineSet
EndChar

StartChar: uni006C
Encoding: 108 108 108
Width: 512
GlyphClass: 2
Flags: W
LayerCount: 2
Fore
SplineSet
448 0 m 1,0,-1
 448 64 l 1,1,-1
 320 64 l 1,2,3
 320 64 320 64 320 704 c 1,4,-1
 192 704 l 1,5,-1
 192 640 l 1,6,-1
 256 640 l 1,7,-1
 256 64 l 1,8,-1
 128 64 l 1,9,-1
 128 0 l 1,10,-1
 448 0 l 1,0,-1
EndSplineSet
EndChar

StartChar: uni006D
Encoding: 109 109 109
Width: 512
GlyphClass: 2
Flags: W
LayerCount: 2
Fore
SplineSet
64 512 m 1,0,1
 64 512 64 512 64 0 c 1,2,-1
 128 0 l 1,3,-1
 128 448 l 1,4,-1
 256 448 l 1,5,-1
 256 0 l 1,6,-1
 320 0 l 1,7,-1
 320 448 l 1,8,-1
 256 448 l 1,9,-1
 256 512 l 1,10,-1
 64 512 l 1,0,1
448 448 m 1,11,-1
 448 0 l 1,12,-1
 512 0 l 1,13,-1
 512 448 l 1,14,-1
 448 448 l 1,11,-1
320 448 m 1,15,-1
 448 448 l 1,16,-1
 448 512 l 1,17,-1
 320 512 l 1,18,-1
 320 448 l 1,15,-1
EndSplineSet
EndChar

StartChar: uni006E
Encoding: 110 110 110
Width: 512
GlyphClass: 2
Flags: W
LayerCount: 2
Fore
SplineSet
64 512 m 1,0,1
 64 512 64 512 64 0 c 1,2,-1
 128 0 l 1,3,4
 128 0 128 0 128 384 c 1,5,-1
 192 384 l 1,6,-1
 192 448 l 1,7,-1
 128 448 l 1,8,-1
 128 512 l 1,9,-1
 64 512 l 1,0,1
384 448 m 1,10,-1
 384 0 l 1,11,-1
 448 0 l 1,12,-1
 448 448 l 1,13,-1
 384 448 l 1,10,-1
192 448 m 1,14,-1
 384 448 l 1,15,-1
 384 512 l 1,16,-1
 192 512 l 1,17,-1
 192 448 l 1,14,-1
EndSplineSet
EndChar

StartChar: uni006F
Encoding: 111 111 111
Width: 512
GlyphClass: 2
Flags: W
LayerCount: 2
Fore
SplineSet
128 64 m 1,0,-1
 128 0 l 1,1,-1
 384 0 l 1,2,-1
 384 64 l 1,3,-1
 128 64 l 1,0,-1
128 64 m 1,4,5
 128 64 128 64 128 448 c 1,6,-1
 64 448 l 1,7,8
 64 448 64 448 64 64 c 1,9,-1
 128 64 l 1,4,5
384 64 m 1,10,-1
 448 64 l 1,11,12
 448 64 448 64 448 448 c 1,13,-1
 384 448 l 1,14,15
 384 448 384 448 384 64 c 1,10,-1
128 448 m 1,16,-1
 384 448 l 1,17,-1
 384 512 l 1,18,-1
 128 512 l 1,19,-1
 128 448 l 1,16,-1
EndSplineSet
EndChar

StartChar: uni0070
Encoding: 112 112 112
Width: 512
GlyphClass: 2
Flags: W
LayerCount: 2
Fore
SplineSet
64 512 m 1,0,1
 64 512 64 512 64 -128 c 1,2,-1
 128 -128 l 1,3,-1
 128 64 l 1,4,-1
 192 64 l 1,5,-1
 192 0 l 1,6,-1
 384 0 l 1,7,-1
 384 64 l 1,8,-1
 192 64 l 1,9,-1
 192 128 l 1,10,-1
 128 128 l 1,11,12
 128 128 128 128 128 384 c 1,13,-1
 192 384 l 1,14,-1
 192 448 l 1,15,-1
 128 448 l 1,16,-1
 128 512 l 1,17,-1
 64 512 l 1,0,1
384 64 m 1,18,-1
 448 64 l 1,19,20
 448 64 448 64 448 448 c 1,21,-1
 384 448 l 1,22,23
 384 448 384 448 384 64 c 1,18,-1
192 448 m 1,24,-1
 384 448 l 1,25,-1
 384 512 l 1,26,-1
 192 512 l 1,27,-1
 192 448 l 1,24,-1
EndSplineSet
EndChar

StartChar: uni0071
Encoding: 113 113 113
Width: 512
GlyphClass: 2
Flags: W
LayerCount: 2
Fore
SplineSet
384 64 m 1,0,-1
 384 -128 l 1,1,-1
 448 -128 l 1,2,3
 448 -128 448 -128 448 512 c 1,4,-1
 384 512 l 1,5,-1
 384 448 l 1,6,-1
 320 448 l 1,7,-1
 320 384 l 1,8,-1
 384 384 l 1,9,10
 384 384 384 384 384 128 c 1,11,-1
 320 128 l 1,12,-1
 320 64 l 1,13,-1
 128 64 l 1,14,-1
 128 0 l 1,15,-1
 320 0 l 1,16,-1
 320 64 l 1,17,-1
 384 64 l 1,0,-1
128 64 m 1,18,19
 128 64 128 64 128 448 c 1,20,-1
 64 448 l 1,21,22
 64 448 64 448 64 64 c 1,23,-1
 128 64 l 1,18,19
128 448 m 1,24,-1
 320 448 l 1,25,-1
 320 512 l 1,26,-1
 128 512 l 1,27,-1
 128 448 l 1,24,-1
EndSplineSet
EndChar

StartChar: uni0072
Encoding: 114 114 114
Width: 512
GlyphClass: 2
Flags: W
LayerCount: 2
Fore
SplineSet
64 512 m 1,0,1
 64 512 64 512 64 0 c 1,2,-1
 128 0 l 1,3,4
 128 0 128 0 128 384 c 1,5,-1
 192 384 l 1,6,-1
 192 448 l 1,7,-1
 128 448 l 1,8,-1
 128 512 l 1,9,-1
 64 512 l 1,0,1
384 448 m 1,10,11
 384 448 384 448 384 320 c 1,12,-1
 448 320 l 1,13,14
 448 320 448 320 448 448 c 1,15,-1
 384 448 l 1,10,11
192 448 m 1,16,-1
 384 448 l 1,17,-1
 384 512 l 1,18,-1
 192 512 l 1,19,-1
 192 448 l 1,16,-1
EndSplineSet
EndChar

StartChar: uni0073
Encoding: 115 115 115
Width: 512
GlyphClass: 2
Flags: W
LayerCount: 2
Fore
SplineSet
448 384 m 1,0,-1
 448 448 l 1,1,-1
 384 448 l 1,2,-1
 384 384 l 1,3,-1
 448 384 l 1,0,-1
128 64 m 1,4,-1
 128 0 l 1,5,-1
 384 0 l 1,6,-1
 384 64 l 1,7,-1
 128 64 l 1,4,-1
128 64 m 1,8,-1
 128 128 l 1,9,-1
 64 128 l 1,10,-1
 64 64 l 1,11,-1
 128 64 l 1,8,-1
384 64 m 1,12,-1
 448 64 l 1,13,14
 448 64 448 64 448 192 c 1,15,-1
 384 192 l 1,16,17
 384 192 384 192 384 64 c 1,12,-1
384 192 m 1,18,-1
 384 256 l 1,19,-1
 256 256 l 1,20,-1
 256 192 l 1,21,-1
 384 192 l 1,18,-1
256 256 m 1,22,-1
 256 320 l 1,23,-1
 128 320 l 1,24,-1
 128 256 l 1,25,-1
 256 256 l 1,22,-1
128 320 m 1,26,27
 128 320 128 320 128 448 c 1,28,-1
 64 448 l 1,29,30
 64 448 64 448 64 320 c 1,31,-1
 128 320 l 1,26,27
128 448 m 1,32,-1
 384 448 l 1,33,-1
 384 512 l 1,34,-1
 128 512 l 1,35,-1
 128 448 l 1,32,-1
EndSplineSet
EndChar

StartChar: uni0074
Encoding: 116 116 116
Width: 512
GlyphClass: 2
Flags: W
LayerCount: 2
Fore
SplineSet
384 0 m 1,0,-1
 384 64 l 1,1,-1
 256 64 l 1,2,-1
 256 0 l 1,3,-1
 384 0 l 1,0,-1
384 384 m 1,4,-1
 384 448 l 1,5,-1
 256 448 l 1,6,-1
 256 640 l 1,7,-1
 192 640 l 1,8,-1
 192 448 l 1,9,-1
 64 448 l 1,10,-1
 64 384 l 1,11,-1
 192 384 l 1,12,-1
 192 64 l 1,13,-1
 256 64 l 1,14,-1
 256 384 l 1,15,-1
 384 384 l 1,4,-1
EndSplineSet
EndChar

StartChar: uni0075
Encoding: 117 117 117
Width: 512
GlyphClass: 2
Flags: W
LayerCount: 2
Fore
SplineSet
128 64 m 1,0,-1
 128 0 l 1,1,-1
 320 0 l 1,2,-1
 320 64 l 1,3,-1
 128 64 l 1,0,-1
128 64 m 1,4,-1
 128 512 l 1,5,-1
 64 512 l 1,6,-1
 64 64 l 1,7,-1
 128 64 l 1,4,-1
384 64 m 1,8,-1
 384 0 l 1,9,-1
 448 0 l 1,10,11
 448 0 448 0 448 512 c 1,12,-1
 384 512 l 1,13,14
 384 512 384 512 384 128 c 1,15,-1
 320 128 l 1,16,-1
 320 64 l 1,17,-1
 384 64 l 1,8,-1
EndSplineSet
EndChar

StartChar: uni0076
Encoding: 118 118 118
Width: 512
GlyphClass: 2
Flags: W
LayerCount: 2
Fore
SplineSet
192 128 m 1,0,1
 192 128 192 128 192 0 c 1,2,-1
 320 0 l 1,3,4
 320 0 320 0 320 128 c 1,5,-1
 192 128 l 1,0,1
192 128 m 1,6,-1
 192 320 l 1,7,-1
 128 320 l 1,8,-1
 128 128 l 1,9,-1
 192 128 l 1,6,-1
320 128 m 1,10,-1
 384 128 l 1,11,-1
 384 320 l 1,12,-1
 320 320 l 1,13,-1
 320 128 l 1,10,-1
128 320 m 1,14,-1
 128 512 l 1,15,-1
 64 512 l 1,16,-1
 64 320 l 1,17,-1
 128 320 l 1,14,-1
384 320 m 1,18,-1
 448 320 l 1,19,-1
 448 512 l 1,20,-1
 384 512 l 1,21,-1
 384 320 l 1,18,-1
EndSplineSet
EndChar

StartChar: uni0077
Encoding: 119 119 119
Width: 512
GlyphClass: 2
Flags: W
LayerCount: 2
Fore
SplineSet
64 640 m 1,0,1
 64 640 64 640 64 0 c 1,2,-1
 320 0 l 1,3,-1
 320 64 l 1,4,-1
 128 64 l 1,5,6
 128 64 128 64 128 576 c 1,7,-1
 320 576 l 1,8,-1
 320 512 l 1,9,-1
 384 512 l 1,10,11
 384 512 384 512 384 128 c 1,12,-1
 320 128 l 1,13,-1
 320 64 l 1,14,-1
 384 64 l 1,15,-1
 384 128 l 1,16,-1
 448 128 l 1,17,18
 448 128 448 128 448 512 c 1,19,-1
 384 512 l 1,20,-1
 384 576 l 1,21,-1
 320 576 l 1,22,-1
 320 640 l 1,23,-1
 64 640 l 1,0,1
EndSplineSet
EndChar

StartChar: uni0078
Encoding: 120 120 120
Width: 512
GlyphClass: 2
Flags: W
LayerCount: 2
Fore
SplineSet
512 576 m 1,0,-1
 512 640 l 1,1,-1
 64 640 l 1,2,-1
 64 576 l 1,3,-1
 256 576 l 1,4,-1
 256 0 l 1,5,-1
 320 0 l 1,6,-1
 320 576 l 1,7,-1
 512 576 l 1,0,-1
EndSplineSet
EndChar

StartChar: uni0079
Encoding: 121 121 121
Width: 512
GlyphClass: 2
Flags: W
LayerCount: 2
Fore
SplineSet
384 -64 m 1,0,-1
 128 -64 l 1,1,-1
 128 -128 l 1,2,-1
 384 -128 l 1,3,-1
 384 -64 l 1,0,-1
384 -64 m 1,4,-1
 448 -64 l 1,5,-1
 448 512 l 1,6,-1
 384 512 l 1,7,-1
 384 192 l 1,8,-1
 320 192 l 1,9,-1
 320 128 l 1,10,-1
 192 128 l 1,11,-1
 192 64 l 1,12,-1
 320 64 l 1,13,-1
 320 128 l 1,14,-1
 384 128 l 1,15,-1
 384 -64 l 1,4,-1
192 128 m 1,16,-1
 192 192 l 1,17,-1
 128 192 l 1,18,-1
 128 128 l 1,19,-1
 192 128 l 1,16,-1
128 192 m 1,20,-1
 128 512 l 1,21,-1
 64 512 l 1,22,-1
 64 192 l 1,23,-1
 128 192 l 1,20,-1
EndSplineSet
EndChar

StartChar: uni007A
Encoding: 122 122 122
Width: 512
GlyphClass: 2
Flags: W
LayerCount: 2
Fore
SplineSet
64 128 m 1,0,1
 64 128 64 128 64 0 c 1,2,-1
 448 0 l 1,3,4
 448 0 448 0 448 128 c 1,5,-1
 384 128 l 1,6,-1
 384 64 l 1,7,-1
 128 64 l 1,8,-1
 128 128 l 1,9,-1
 64 128 l 1,0,1
128 128 m 1,10,-1
 192 128 l 1,11,-1
 192 192 l 1,12,-1
 128 192 l 1,13,-1
 128 128 l 1,10,-1
192 192 m 1,14,-1
 256 192 l 1,15,-1
 256 256 l 1,16,-1
 192 256 l 1,17,-1
 192 192 l 1,14,-1
256 256 m 1,18,-1
 320 256 l 1,19,20
 320 256 320 256 320 384 c 1,21,-1
 256 384 l 1,22,23
 256 384 256 384 256 256 c 1,18,-1
256 384 m 1,24,-1
 256 448 l 1,25,-1
 192 448 l 1,26,-1
 192 384 l 1,27,-1
 256 384 l 1,24,-1
192 448 m 1,28,-1
 192 512 l 1,29,-1
 128 512 l 1,30,-1
 128 448 l 1,31,-1
 192 448 l 1,28,-1
128 512 m 1,32,-1
 128 576 l 1,33,-1
 384 576 l 1,34,-1
 384 512 l 1,35,-1
 448 512 l 1,36,37
 448 512 448 512 448 640 c 1,38,-1
 64 640 l 1,39,40
 64 640 64 640 64 512 c 1,41,-1
 128 512 l 1,32,-1
EndSplineSet
EndChar

StartChar: uni007B
Encoding: 123 123 123
Width: 512
GlyphClass: 2
Flags: W
LayerCount: 2
Fore
SplineSet
384 -64 m 1,0,-1
 384 0 l 1,1,-1
 256 0 l 1,2,-1
 256 -64 l 1,3,-1
 384 -64 l 1,0,-1
384 640 m 1,4,-1
 384 704 l 1,5,-1
 256 704 l 1,6,-1
 256 640 l 1,7,-1
 192 640 l 1,8,9
 192 640 192 640 192 512 c 1,10,-1
 256 512 l 1,11,12
 256 512 256 512 256 384 c 1,13,-1
 192 384 l 1,14,15
 192 384 192 384 192 256 c 1,16,-1
 256 256 l 1,17,18
 256 256 256 256 256 128 c 1,19,-1
 192 128 l 1,20,21
 192 128 192 128 192 0 c 1,22,-1
 256 0 l 1,23,24
 256 0 256 0 256 128 c 1,25,-1
 320 128 l 1,26,27
 320 128 320 128 320 256 c 1,28,-1
 256 256 l 1,29,30
 256 256 256 256 256 384 c 1,31,-1
 320 384 l 1,32,33
 320 384 320 384 320 512 c 1,34,-1
 256 512 l 1,35,36
 256 512 256 512 256 640 c 1,37,-1
 384 640 l 1,4,-1
EndSplineSet
EndChar

StartChar: uni007C
Encoding: 124 124 124
Width: 512
GlyphClass: 2
Flags: W
LayerCount: 2
Fore
SplineSet
256 768 m 1,0,1
 256 768 256 768 256 -128 c 1,2,-1
 320 -128 l 1,3,4
 320 -128 320 -128 320 768 c 1,5,-1
 256 768 l 1,0,1
EndSplineSet
EndChar

StartChar: uni007D
Encoding: 125 125 125
Width: 512
GlyphClass: 2
Flags: W
LayerCount: 2
Fore
SplineSet
256 0 m 1,0,-1
 128 0 l 1,1,-1
 128 -64 l 1,2,-1
 256 -64 l 1,3,-1
 256 0 l 1,0,-1
256 0 m 1,4,-1
 320 0 l 1,5,6
 320 0 320 0 320 128 c 1,7,-1
 256 128 l 1,8,9
 256 128 256 128 256 0 c 1,4,-1
256 128 m 1,10,11
 256 128 256 128 256 256 c 1,12,-1
 192 256 l 1,13,14
 192 256 192 256 192 128 c 1,15,-1
 256 128 l 1,10,11
256 256 m 1,16,-1
 320 256 l 1,17,18
 320 256 320 256 320 384 c 1,19,-1
 256 384 l 1,20,21
 256 384 256 384 256 256 c 1,16,-1
256 384 m 1,22,23
 256 384 256 384 256 512 c 1,24,-1
 192 512 l 1,25,26
 192 512 192 512 192 384 c 1,27,-1
 256 384 l 1,22,23
256 512 m 1,28,-1
 320 512 l 1,29,30
 320 512 320 512 320 640 c 1,31,-1
 256 640 l 1,32,33
 256 640 256 640 256 512 c 1,28,-1
256 640 m 1,34,-1
 256 704 l 1,35,-1
 128 704 l 1,36,-1
 128 640 l 1,37,-1
 256 640 l 1,34,-1
EndSplineSet
EndChar

StartChar: uni007E
Encoding: 126 126 126
Width: 512
GlyphClass: 2
Flags: W
LayerCount: 2
Fore
SplineSet
64 640 m 1,0,1
 64 640 64 640 64 512 c 1,2,-1
 128 512 l 1,3,4
 128 512 128 512 128 640 c 1,5,-1
 64 640 l 1,0,1
320 576 m 1,6,-1
 320 512 l 1,7,-1
 448 512 l 1,8,-1
 448 576 l 1,9,-1
 320 576 l 1,6,-1
320 576 m 1,10,-1
 320 640 l 1,11,-1
 256 640 l 1,12,-1
 256 576 l 1,13,-1
 320 576 l 1,10,-1
448 576 m 1,14,-1
 512 576 l 1,15,16
 512 576 512 576 512 704 c 1,17,-1
 448 704 l 1,18,19
 448 704 448 704 448 576 c 1,14,-1
128 640 m 1,20,-1
 256 640 l 1,21,-1
 256 704 l 1,22,-1
 128 704 l 1,23,-1
 128 640 l 1,20,-1
EndSplineSet
EndChar

StartChar: uni007F
Encoding: 127 127 127
Width: 1024
GlyphClass: 2
Flags: W
LayerCount: 2
Fore
SplineSet
128 -128 m 1,0,-1
 128 -64 l 1,1,-1
 64 -64 l 1,2,-1
 64 -128 l 1,3,-1
 128 -128 l 1,0,-1
256 -128 m 1,4,-1
 256 -64 l 1,5,-1
 192 -64 l 1,6,-1
 192 -128 l 1,7,-1
 256 -128 l 1,4,-1
384 -128 m 1,8,-1
 384 -64 l 1,9,-1
 320 -64 l 1,10,-1
 320 -128 l 1,11,-1
 384 -128 l 1,8,-1
512 -128 m 1,12,-1
 512 -64 l 1,13,-1
 448 -64 l 1,14,-1
 448 -128 l 1,15,-1
 512 -128 l 1,12,-1
640 -128 m 1,16,-1
 640 -64 l 1,17,-1
 576 -64 l 1,18,-1
 576 -128 l 1,19,-1
 640 -128 l 1,16,-1
768 -128 m 1,20,-1
 768 -64 l 1,21,-1
 704 -64 l 1,22,-1
 704 -128 l 1,23,-1
 768 -128 l 1,20,-1
896 -128 m 1,24,-1
 896 -64 l 1,25,-1
 832 -64 l 1,26,-1
 832 -128 l 1,27,-1
 896 -128 l 1,24,-1
1024 -128 m 1,28,-1
 1024 -64 l 1,29,-1
 960 -64 l 1,30,-1
 960 -128 l 1,31,-1
 1024 -128 l 1,28,-1
1024 0 m 1,32,-1
 1024 64 l 1,33,-1
 960 64 l 1,34,-1
 960 0 l 1,35,-1
 1024 0 l 1,32,-1
64 64 m 1,36,-1
 64 128 l 1,37,-1
 0 128 l 1,38,-1
 0 64 l 1,39,-1
 64 64 l 1,36,-1
1024 128 m 1,40,-1
 1024 192 l 1,41,-1
 960 192 l 1,42,-1
 960 128 l 1,43,-1
 1024 128 l 1,40,-1
640 256 m 1,44,-1
 640 320 l 1,45,-1
 448 320 l 1,46,-1
 448 384 l 1,47,-1
 640 384 l 1,48,-1
 640 448 l 1,49,-1
 448 448 l 1,50,-1
 448 512 l 1,51,-1
 640 512 l 1,52,-1
 640 576 l 1,53,-1
 384 576 l 1,54,-1
 384 256 l 1,55,-1
 640 256 l 1,44,-1
1024 256 m 1,56,-1
 1024 320 l 1,57,-1
 768 320 l 1,58,59
 768 320 768 320 768 576 c 1,60,-1
 704 576 l 1,61,-1
 704 256 l 1,62,-1
 1024 256 l 1,56,-1
1024 384 m 1,63,-1
 1024 448 l 1,64,-1
 960 448 l 1,65,-1
 960 384 l 1,66,-1
 1024 384 l 1,63,-1
1024 512 m 1,67,-1
 1024 576 l 1,68,-1
 960 576 l 1,69,-1
 960 512 l 1,70,-1
 1024 512 l 1,67,-1
1024 640 m 1,71,-1
 1024 704 l 1,72,-1
 960 704 l 1,73,-1
 960 640 l 1,74,-1
 1024 640 l 1,71,-1
64 704 m 1,75,-1
 64 768 l 1,76,-1
 0 768 l 1,77,-1
 0 704 l 1,78,-1
 64 704 l 1,75,-1
1024 768 m 1,79,-1
 1024 832 l 1,80,-1
 960 832 l 1,81,-1
 960 768 l 1,82,-1
 1024 768 l 1,79,-1
64 832 m 1,83,-1
 64 896 l 1,84,-1
 0 896 l 1,85,-1
 0 832 l 1,86,-1
 64 832 l 1,83,-1
192 832 m 1,87,-1
 192 896 l 1,88,-1
 128 896 l 1,89,-1
 128 832 l 1,90,-1
 192 832 l 1,87,-1
320 832 m 1,91,-1
 320 896 l 1,92,-1
 256 896 l 1,93,-1
 256 832 l 1,94,-1
 320 832 l 1,91,-1
448 832 m 1,95,-1
 448 896 l 1,96,-1
 384 896 l 1,97,-1
 384 832 l 1,98,-1
 448 832 l 1,95,-1
576 832 m 1,99,-1
 576 896 l 1,100,-1
 512 896 l 1,101,-1
 512 832 l 1,102,-1
 576 832 l 1,99,-1
704 832 m 1,103,-1
 704 896 l 1,104,-1
 640 896 l 1,105,-1
 640 832 l 1,106,-1
 704 832 l 1,103,-1
832 832 m 1,107,-1
 832 896 l 1,108,-1
 768 896 l 1,109,-1
 768 832 l 1,110,-1
 832 832 l 1,107,-1
64 -64 m 1,111,-1
 64 0 l 1,112,-1
 0 0 l 1,113,-1
 0 -64 l 1,114,-1
 64 -64 l 1,111,-1
64 256 m 1,115,-1
 0 256 l 1,116,-1
 0 192 l 1,117,-1
 64 192 l 1,118,-1
 64 256 l 1,115,-1
64 256 m 1,119,-1
 256 256 l 1,120,-1
 256 320 l 1,121,-1
 128 320 l 1,122,-1
 128 512 l 1,123,-1
 256 512 l 1,124,-1
 256 320 l 1,125,-1
 320 320 l 1,126,-1
 320 512 l 1,127,-1
 256 512 l 1,128,-1
 256 576 l 1,129,-1
 64 576 l 1,130,-1
 64 512 l 1,131,-1
 0 512 l 1,132,-1
 0 448 l 1,133,-1
 64 448 l 1,134,-1
 64 384 l 1,135,-1
 0 384 l 1,136,-1
 0 320 l 1,137,-1
 64 320 l 1,138,-1
 64 256 l 1,119,-1
64 576 m 1,139,-1
 64 640 l 1,140,-1
 0 640 l 1,141,-1
 0 576 l 1,142,-1
 64 576 l 1,139,-1
960 832 m 1,143,-1
 960 896 l 1,144,-1
 896 896 l 1,145,-1
 896 832 l 1,146,-1
 960 832 l 1,143,-1
EndSplineSet
EndChar

StartChar: uni0080
Encoding: 128 128 128
Width: 1024
GlyphClass: 2
Flags: W
LayerCount: 2
Fore
SplineSet
128 -128 m 1,0,-1
 128 -64 l 1,1,-1
 64 -64 l 1,2,-1
 64 -128 l 1,3,-1
 128 -128 l 1,0,-1
256 -128 m 1,4,-1
 256 -64 l 1,5,-1
 192 -64 l 1,6,-1
 192 -128 l 1,7,-1
 256 -128 l 1,4,-1
384 -128 m 1,8,-1
 384 -64 l 1,9,-1
 320 -64 l 1,10,-1
 320 -128 l 1,11,-1
 384 -128 l 1,8,-1
512 -128 m 1,12,-1
 512 -64 l 1,13,-1
 448 -64 l 1,14,-1
 448 -128 l 1,15,-1
 512 -128 l 1,12,-1
640 -128 m 1,16,-1
 640 -64 l 1,17,-1
 576 -64 l 1,18,-1
 576 -128 l 1,19,-1
 640 -128 l 1,16,-1
768 -128 m 1,20,-1
 768 -64 l 1,21,-1
 704 -64 l 1,22,-1
 704 -128 l 1,23,-1
 768 -128 l 1,20,-1
896 -128 m 1,24,-1
 896 -64 l 1,25,-1
 832 -64 l 1,26,-1
 832 -128 l 1,27,-1
 896 -128 l 1,24,-1
1024 -128 m 1,28,-1
 1024 -64 l 1,29,-1
 960 -64 l 1,30,-1
 960 -128 l 1,31,-1
 1024 -128 l 1,28,-1
1024 0 m 1,32,-1
 1024 64 l 1,33,-1
 960 64 l 1,34,-1
 960 0 l 1,35,-1
 1024 0 l 1,32,-1
64 64 m 1,36,-1
 64 128 l 1,37,-1
 0 128 l 1,38,-1
 0 64 l 1,39,-1
 64 64 l 1,36,-1
1024 128 m 1,40,-1
 1024 192 l 1,41,-1
 960 192 l 1,42,-1
 960 128 l 1,43,-1
 1024 128 l 1,40,-1
1024 256 m 1,44,-1
 1024 320 l 1,45,-1
 960 320 l 1,46,-1
 960 256 l 1,47,-1
 1024 256 l 1,44,-1
1024 384 m 1,48,-1
 1024 448 l 1,49,-1
 960 448 l 1,50,-1
 960 512 l 1,51,-1
 896 512 l 1,52,-1
 896 320 l 1,53,-1
 768 320 l 1,54,-1
 768 512 l 1,55,-1
 896 512 l 1,56,-1
 896 576 l 1,57,-1
 704 576 l 1,58,-1
 704 256 l 1,59,-1
 896 256 l 1,60,-1
 896 320 l 1,61,-1
 960 320 l 1,62,-1
 960 384 l 1,63,-1
 1024 384 l 1,48,-1
320 448 m 1,64,-1
 320 512 l 1,65,-1
 256 512 l 1,66,-1
 256 448 l 1,67,-1
 128 448 l 1,68,-1
 128 512 l 1,69,-1
 256 512 l 1,70,-1
 256 576 l 1,71,-1
 64 576 l 1,72,-1
 64 512 l 1,73,-1
 0 512 l 1,74,-1
 0 448 l 1,75,-1
 64 448 l 1,76,-1
 64 384 l 1,77,-1
 0 384 l 1,78,-1
 0 320 l 1,79,-1
 64 320 l 1,80,-1
 64 256 l 1,81,-1
 0 256 l 1,82,-1
 0 192 l 1,83,-1
 64 192 l 1,84,-1
 64 256 l 1,85,-1
 128 256 l 1,86,87
 128 256 128 256 128 384 c 1,88,-1
 256 384 l 1,89,-1
 256 448 l 1,90,-1
 320 448 l 1,64,-1
1024 512 m 1,91,-1
 1024 576 l 1,92,-1
 960 576 l 1,93,-1
 960 512 l 1,94,-1
 1024 512 l 1,91,-1
1024 640 m 1,95,-1
 1024 704 l 1,96,-1
 960 704 l 1,97,-1
 960 640 l 1,98,-1
 1024 640 l 1,95,-1
64 704 m 1,99,-1
 64 768 l 1,100,-1
 0 768 l 1,101,-1
 0 704 l 1,102,-1
 64 704 l 1,99,-1
1024 768 m 1,103,-1
 1024 832 l 1,104,-1
 960 832 l 1,105,-1
 960 768 l 1,106,-1
 1024 768 l 1,103,-1
64 832 m 1,107,-1
 64 896 l 1,108,-1
 0 896 l 1,109,-1
 0 832 l 1,110,-1
 64 832 l 1,107,-1
192 832 m 1,111,-1
 192 896 l 1,112,-1
 128 896 l 1,113,-1
 128 832 l 1,114,-1
 192 832 l 1,111,-1
320 832 m 1,115,-1
 320 896 l 1,116,-1
 256 896 l 1,117,-1
 256 832 l 1,118,-1
 320 832 l 1,115,-1
448 832 m 1,119,-1
 448 896 l 1,120,-1
 384 896 l 1,121,-1
 384 832 l 1,122,-1
 448 832 l 1,119,-1
576 832 m 1,123,-1
 576 896 l 1,124,-1
 512 896 l 1,125,-1
 512 832 l 1,126,-1
 576 832 l 1,123,-1
704 832 m 1,127,-1
 704 896 l 1,128,-1
 640 896 l 1,129,-1
 640 832 l 1,130,-1
 704 832 l 1,127,-1
832 832 m 1,131,-1
 832 896 l 1,132,-1
 768 896 l 1,133,-1
 768 832 l 1,134,-1
 832 832 l 1,131,-1
64 -64 m 1,135,-1
 64 0 l 1,136,-1
 0 0 l 1,137,-1
 0 -64 l 1,138,-1
 64 -64 l 1,135,-1
384 512 m 1,139,140
 384 512 384 512 384 256 c 1,141,-1
 448 256 l 1,142,143
 448 256 448 256 448 384 c 1,144,-1
 576 384 l 1,145,146
 576 384 576 384 576 256 c 1,147,-1
 640 256 l 1,148,149
 640 256 640 256 640 512 c 1,150,-1
 576 512 l 1,151,-1
 576 448 l 1,152,-1
 448 448 l 1,153,-1
 448 512 l 1,154,-1
 384 512 l 1,139,140
448 512 m 1,155,-1
 576 512 l 1,156,-1
 576 576 l 1,157,-1
 448 576 l 1,158,-1
 448 512 l 1,155,-1
64 576 m 1,159,-1
 64 640 l 1,160,-1
 0 640 l 1,161,-1
 0 576 l 1,162,-1
 64 576 l 1,159,-1
960 832 m 1,163,-1
 960 896 l 1,164,-1
 896 896 l 1,165,-1
 896 832 l 1,166,-1
 960 832 l 1,163,-1
EndSplineSet
EndChar

StartChar: uni0081
Encoding: 129 129 129
Width: 1024
GlyphClass: 2
Flags: W
LayerCount: 2
Fore
SplineSet
128 -128 m 1,0,-1
 128 -64 l 1,1,-1
 64 -64 l 1,2,-1
 64 -128 l 1,3,-1
 128 -128 l 1,0,-1
256 -128 m 1,4,-1
 256 -64 l 1,5,-1
 192 -64 l 1,6,-1
 192 -128 l 1,7,-1
 256 -128 l 1,4,-1
384 -128 m 1,8,-1
 384 -64 l 1,9,-1
 320 -64 l 1,10,-1
 320 -128 l 1,11,-1
 384 -128 l 1,8,-1
512 -128 m 1,12,-1
 512 -64 l 1,13,-1
 448 -64 l 1,14,-1
 448 -128 l 1,15,-1
 512 -128 l 1,12,-1
640 -128 m 1,16,-1
 640 -64 l 1,17,-1
 576 -64 l 1,18,-1
 576 -128 l 1,19,-1
 640 -128 l 1,16,-1
768 -128 m 1,20,-1
 768 -64 l 1,21,-1
 704 -64 l 1,22,-1
 704 -128 l 1,23,-1
 768 -128 l 1,20,-1
896 -128 m 1,24,-1
 896 -64 l 1,25,-1
 832 -64 l 1,26,-1
 832 -128 l 1,27,-1
 896 -128 l 1,24,-1
1024 -128 m 1,28,-1
 1024 -64 l 1,29,-1
 960 -64 l 1,30,-1
 960 -128 l 1,31,-1
 1024 -128 l 1,28,-1
1024 0 m 1,32,-1
 1024 64 l 1,33,-1
 960 64 l 1,34,-1
 960 0 l 1,35,-1
 1024 0 l 1,32,-1
64 64 m 1,36,-1
 64 128 l 1,37,-1
 0 128 l 1,38,-1
 0 64 l 1,39,-1
 64 64 l 1,36,-1
1024 128 m 1,40,-1
 1024 192 l 1,41,-1
 960 192 l 1,42,-1
 960 128 l 1,43,-1
 1024 128 l 1,40,-1
1024 256 m 1,44,-1
 1024 320 l 1,45,-1
 960 320 l 1,46,-1
 960 256 l 1,47,-1
 1024 256 l 1,44,-1
1024 384 m 1,48,-1
 1024 448 l 1,49,-1
 960 448 l 1,50,-1
 960 384 l 1,51,-1
 1024 384 l 1,48,-1
1024 512 m 1,52,-1
 1024 576 l 1,53,-1
 960 576 l 1,54,-1
 960 512 l 1,55,-1
 896 512 l 1,56,-1
 896 448 l 1,57,-1
 768 448 l 1,58,-1
 768 512 l 1,59,-1
 896 512 l 1,60,-1
 896 576 l 1,61,-1
 704 576 l 1,62,-1
 704 256 l 1,63,-1
 768 256 l 1,64,65
 768 256 768 256 768 384 c 1,66,-1
 896 384 l 1,67,-1
 896 448 l 1,68,-1
 960 448 l 1,69,-1
 960 512 l 1,70,-1
 1024 512 l 1,52,-1
1024 640 m 1,71,-1
 1024 704 l 1,72,-1
 960 704 l 1,73,-1
 960 640 l 1,74,-1
 1024 640 l 1,71,-1
64 704 m 1,75,-1
 64 768 l 1,76,-1
 0 768 l 1,77,-1
 0 704 l 1,78,-1
 64 704 l 1,75,-1
1024 768 m 1,79,-1
 1024 832 l 1,80,-1
 960 832 l 1,81,-1
 960 768 l 1,82,-1
 1024 768 l 1,79,-1
64 832 m 1,83,-1
 64 896 l 1,84,-1
 0 896 l 1,85,-1
 0 832 l 1,86,-1
 64 832 l 1,83,-1
192 832 m 1,87,-1
 192 896 l 1,88,-1
 128 896 l 1,89,-1
 128 832 l 1,90,-1
 192 832 l 1,87,-1
320 832 m 1,91,-1
 320 896 l 1,92,-1
 256 896 l 1,93,-1
 256 832 l 1,94,-1
 320 832 l 1,91,-1
448 832 m 1,95,-1
 448 896 l 1,96,-1
 384 896 l 1,97,-1
 384 832 l 1,98,-1
 448 832 l 1,95,-1
576 832 m 1,99,-1
 576 896 l 1,100,-1
 512 896 l 1,101,-1
 512 832 l 1,102,-1
 576 832 l 1,99,-1
704 832 m 1,103,-1
 704 896 l 1,104,-1
 640 896 l 1,105,-1
 640 832 l 1,106,-1
 704 832 l 1,103,-1
832 832 m 1,107,-1
 832 896 l 1,108,-1
 768 896 l 1,109,-1
 768 832 l 1,110,-1
 832 832 l 1,107,-1
64 -64 m 1,111,-1
 64 0 l 1,112,-1
 0 0 l 1,113,-1
 0 -64 l 1,114,-1
 64 -64 l 1,111,-1
64 256 m 1,115,-1
 0 256 l 1,116,-1
 0 192 l 1,117,-1
 64 192 l 1,118,-1
 64 256 l 1,115,-1
64 256 m 1,119,-1
 128 256 l 1,120,121
 128 256 128 256 128 384 c 1,122,-1
 256 384 l 1,123,124
 256 384 256 384 256 256 c 1,125,-1
 320 256 l 1,126,-1
 320 576 l 1,127,-1
 256 576 l 1,128,129
 256 576 256 576 256 448 c 1,130,-1
 128 448 l 1,131,132
 128 448 128 448 128 576 c 1,133,-1
 64 576 l 1,134,-1
 64 512 l 1,135,-1
 0 512 l 1,136,-1
 0 448 l 1,137,-1
 64 448 l 1,138,-1
 64 384 l 1,139,-1
 0 384 l 1,140,-1
 0 320 l 1,141,-1
 64 320 l 1,142,-1
 64 256 l 1,119,-1
448 320 m 1,143,-1
 448 256 l 1,144,-1
 576 256 l 1,145,-1
 576 320 l 1,146,-1
 448 320 l 1,143,-1
448 320 m 1,147,-1
 448 512 l 1,148,-1
 384 512 l 1,149,-1
 384 320 l 1,150,-1
 448 320 l 1,147,-1
576 320 m 1,151,-1
 640 320 l 1,152,-1
 640 512 l 1,153,-1
 576 512 l 1,154,-1
 576 320 l 1,151,-1
448 512 m 1,155,-1
 576 512 l 1,156,-1
 576 576 l 1,157,-1
 448 576 l 1,158,-1
 448 512 l 1,155,-1
64 576 m 1,159,-1
 64 640 l 1,160,-1
 0 640 l 1,161,-1
 0 576 l 1,162,-1
 64 576 l 1,159,-1
960 832 m 1,163,-1
 960 896 l 1,164,-1
 896 896 l 1,165,-1
 896 832 l 1,166,-1
 960 832 l 1,163,-1
EndSplineSet
EndChar

StartChar: uni0082
Encoding: 130 130 130
Width: 1024
GlyphClass: 2
Flags: W
LayerCount: 2
Fore
SplineSet
128 -128 m 1,0,-1
 128 -64 l 1,1,-1
 64 -64 l 1,2,-1
 64 -128 l 1,3,-1
 128 -128 l 1,0,-1
256 -128 m 1,4,-1
 256 -64 l 1,5,-1
 192 -64 l 1,6,-1
 192 -128 l 1,7,-1
 256 -128 l 1,4,-1
384 -128 m 1,8,-1
 384 -64 l 1,9,-1
 320 -64 l 1,10,-1
 320 -128 l 1,11,-1
 384 -128 l 1,8,-1
512 -128 m 1,12,-1
 512 -64 l 1,13,-1
 448 -64 l 1,14,-1
 448 -128 l 1,15,-1
 512 -128 l 1,12,-1
640 -128 m 1,16,-1
 640 -64 l 1,17,-1
 576 -64 l 1,18,-1
 576 -128 l 1,19,-1
 640 -128 l 1,16,-1
768 -128 m 1,20,-1
 768 -64 l 1,21,-1
 704 -64 l 1,22,-1
 704 -128 l 1,23,-1
 768 -128 l 1,20,-1
896 -128 m 1,24,-1
 896 -64 l 1,25,-1
 832 -64 l 1,26,-1
 832 -128 l 1,27,-1
 896 -128 l 1,24,-1
1024 -128 m 1,28,-1
 1024 -64 l 1,29,-1
 960 -64 l 1,30,-1
 960 -128 l 1,31,-1
 1024 -128 l 1,28,-1
1024 0 m 1,32,-1
 1024 64 l 1,33,-1
 960 64 l 1,34,-1
 960 0 l 1,35,-1
 1024 0 l 1,32,-1
64 64 m 1,36,-1
 64 128 l 1,37,-1
 0 128 l 1,38,-1
 0 64 l 1,39,-1
 64 64 l 1,36,-1
1024 128 m 1,40,-1
 1024 192 l 1,41,-1
 960 192 l 1,42,-1
 960 128 l 1,43,-1
 1024 128 l 1,40,-1
1024 256 m 1,44,-1
 1024 320 l 1,45,-1
 960 320 l 1,46,-1
 960 384 l 1,47,-1
 1024 384 l 1,48,-1
 1024 448 l 1,49,-1
 960 448 l 1,50,-1
 960 512 l 1,51,-1
 1024 512 l 1,52,-1
 1024 576 l 1,53,-1
 896 576 l 1,54,55
 896 576 896 576 896 448 c 1,56,-1
 768 448 l 1,57,58
 768 448 768 448 768 576 c 1,59,-1
 704 576 l 1,60,-1
 704 256 l 1,61,-1
 768 256 l 1,62,63
 768 256 768 256 768 384 c 1,64,-1
 896 384 l 1,65,66
 896 384 896 384 896 256 c 1,67,-1
 1024 256 l 1,44,-1
320 320 m 1,68,-1
 320 384 l 1,69,-1
 256 384 l 1,70,-1
 256 320 l 1,71,-1
 128 320 l 1,72,-1
 128 384 l 1,73,-1
 256 384 l 1,74,-1
 256 448 l 1,75,-1
 128 448 l 1,76,-1
 128 512 l 1,77,-1
 256 512 l 1,78,-1
 256 448 l 1,79,-1
 320 448 l 1,80,-1
 320 512 l 1,81,-1
 256 512 l 1,82,-1
 256 576 l 1,83,-1
 64 576 l 1,84,-1
 64 512 l 1,85,-1
 0 512 l 1,86,-1
 0 448 l 1,87,-1
 64 448 l 1,88,-1
 64 384 l 1,89,-1
 0 384 l 1,90,-1
 0 320 l 1,91,-1
 64 320 l 1,92,-1
 64 256 l 1,93,-1
 0 256 l 1,94,-1
 0 192 l 1,95,-1
 64 192 l 1,96,-1
 64 256 l 1,97,-1
 256 256 l 1,98,-1
 256 320 l 1,99,-1
 320 320 l 1,68,-1
640 448 m 1,100,-1
 640 512 l 1,101,-1
 576 512 l 1,102,-1
 576 448 l 1,103,-1
 448 448 l 1,104,-1
 448 512 l 1,105,-1
 576 512 l 1,106,-1
 576 576 l 1,107,-1
 384 576 l 1,108,-1
 384 256 l 1,109,-1
 448 256 l 1,110,111
 448 256 448 256 448 384 c 1,112,-1
 576 384 l 1,113,-1
 576 448 l 1,114,-1
 640 448 l 1,100,-1
1024 640 m 1,115,-1
 1024 704 l 1,116,-1
 960 704 l 1,117,-1
 960 640 l 1,118,-1
 1024 640 l 1,115,-1
64 704 m 1,119,-1
 64 768 l 1,120,-1
 0 768 l 1,121,-1
 0 704 l 1,122,-1
 64 704 l 1,119,-1
1024 768 m 1,123,-1
 1024 832 l 1,124,-1
 960 832 l 1,125,-1
 960 768 l 1,126,-1
 1024 768 l 1,123,-1
64 832 m 1,127,-1
 64 896 l 1,128,-1
 0 896 l 1,129,-1
 0 832 l 1,130,-1
 64 832 l 1,127,-1
192 832 m 1,131,-1
 192 896 l 1,132,-1
 128 896 l 1,133,-1
 128 832 l 1,134,-1
 192 832 l 1,131,-1
320 832 m 1,135,-1
 320 896 l 1,136,-1
 256 896 l 1,137,-1
 256 832 l 1,138,-1
 320 832 l 1,135,-1
448 832 m 1,139,-1
 448 896 l 1,140,-1
 384 896 l 1,141,-1
 384 832 l 1,142,-1
 448 832 l 1,139,-1
576 832 m 1,143,-1
 576 896 l 1,144,-1
 512 896 l 1,145,-1
 512 832 l 1,146,-1
 576 832 l 1,143,-1
704 832 m 1,147,-1
 704 896 l 1,148,-1
 640 896 l 1,149,-1
 640 832 l 1,150,-1
 704 832 l 1,147,-1
832 832 m 1,151,-1
 832 896 l 1,152,-1
 768 896 l 1,153,-1
 768 832 l 1,154,-1
 832 832 l 1,151,-1
64 -64 m 1,155,-1
 64 0 l 1,156,-1
 0 0 l 1,157,-1
 0 -64 l 1,158,-1
 64 -64 l 1,155,-1
64 576 m 1,159,-1
 64 640 l 1,160,-1
 0 640 l 1,161,-1
 0 576 l 1,162,-1
 64 576 l 1,159,-1
960 832 m 1,163,-1
 960 896 l 1,164,-1
 896 896 l 1,165,-1
 896 832 l 1,166,-1
 960 832 l 1,163,-1
EndSplineSet
EndChar

StartChar: uni0083
Encoding: 131 131 131
Width: 1024
GlyphClass: 2
Flags: W
LayerCount: 2
Fore
SplineSet
128 -128 m 1,0,-1
 128 -64 l 1,1,-1
 64 -64 l 1,2,-1
 64 -128 l 1,3,-1
 128 -128 l 1,0,-1
256 -128 m 1,4,-1
 256 -64 l 1,5,-1
 192 -64 l 1,6,-1
 192 -128 l 1,7,-1
 256 -128 l 1,4,-1
384 -128 m 1,8,-1
 384 -64 l 1,9,-1
 320 -64 l 1,10,-1
 320 -128 l 1,11,-1
 384 -128 l 1,8,-1
512 -128 m 1,12,-1
 512 -64 l 1,13,-1
 448 -64 l 1,14,-1
 448 -128 l 1,15,-1
 512 -128 l 1,12,-1
640 -128 m 1,16,-1
 640 -64 l 1,17,-1
 576 -64 l 1,18,-1
 576 -128 l 1,19,-1
 640 -128 l 1,16,-1
768 -128 m 1,20,-1
 768 -64 l 1,21,-1
 704 -64 l 1,22,-1
 704 -128 l 1,23,-1
 768 -128 l 1,20,-1
896 -128 m 1,24,-1
 896 -64 l 1,25,-1
 832 -64 l 1,26,-1
 832 -128 l 1,27,-1
 896 -128 l 1,24,-1
1024 -128 m 1,28,-1
 1024 -64 l 1,29,-1
 960 -64 l 1,30,-1
 960 -128 l 1,31,-1
 1024 -128 l 1,28,-1
1024 0 m 1,32,-1
 1024 64 l 1,33,-1
 960 64 l 1,34,-1
 960 0 l 1,35,-1
 1024 0 l 1,32,-1
64 64 m 1,36,-1
 64 128 l 1,37,-1
 0 128 l 1,38,-1
 0 64 l 1,39,-1
 64 64 l 1,36,-1
1024 128 m 1,40,-1
 1024 192 l 1,41,-1
 960 192 l 1,42,-1
 960 128 l 1,43,-1
 1024 128 l 1,40,-1
1024 256 m 1,44,-1
 1024 320 l 1,45,-1
 960 320 l 1,46,-1
 960 384 l 1,47,-1
 1024 384 l 1,48,-1
 1024 448 l 1,49,-1
 960 448 l 1,50,-1
 960 512 l 1,51,-1
 1024 512 l 1,52,-1
 1024 576 l 1,53,-1
 896 576 l 1,54,55
 896 576 896 576 896 448 c 1,56,-1
 768 448 l 1,57,58
 768 448 768 448 768 576 c 1,59,-1
 704 576 l 1,60,-1
 704 256 l 1,61,-1
 768 256 l 1,62,63
 768 256 768 256 768 384 c 1,64,-1
 896 384 l 1,65,66
 896 384 896 384 896 256 c 1,67,-1
 1024 256 l 1,44,-1
640 320 m 1,68,-1
 640 384 l 1,69,-1
 576 384 l 1,70,-1
 576 320 l 1,71,-1
 448 320 l 1,72,-1
 448 384 l 1,73,-1
 576 384 l 1,74,-1
 576 448 l 1,75,-1
 448 448 l 1,76,-1
 448 512 l 1,77,-1
 576 512 l 1,78,-1
 576 448 l 1,79,-1
 640 448 l 1,80,-1
 640 512 l 1,81,-1
 576 512 l 1,82,-1
 576 576 l 1,83,-1
 384 576 l 1,84,-1
 384 256 l 1,85,-1
 576 256 l 1,86,-1
 576 320 l 1,87,-1
 640 320 l 1,68,-1
1024 640 m 1,88,-1
 1024 704 l 1,89,-1
 960 704 l 1,90,-1
 960 640 l 1,91,-1
 1024 640 l 1,88,-1
64 704 m 1,92,-1
 64 768 l 1,93,-1
 0 768 l 1,94,-1
 0 704 l 1,95,-1
 64 704 l 1,92,-1
1024 768 m 1,96,-1
 1024 832 l 1,97,-1
 960 832 l 1,98,-1
 960 768 l 1,99,-1
 1024 768 l 1,96,-1
64 832 m 1,100,-1
 64 896 l 1,101,-1
 0 896 l 1,102,-1
 0 832 l 1,103,-1
 64 832 l 1,100,-1
192 832 m 1,104,-1
 192 896 l 1,105,-1
 128 896 l 1,106,-1
 128 832 l 1,107,-1
 192 832 l 1,104,-1
320 832 m 1,108,-1
 320 896 l 1,109,-1
 256 896 l 1,110,-1
 256 832 l 1,111,-1
 320 832 l 1,108,-1
448 832 m 1,112,-1
 448 896 l 1,113,-1
 384 896 l 1,114,-1
 384 832 l 1,115,-1
 448 832 l 1,112,-1
576 832 m 1,116,-1
 576 896 l 1,117,-1
 512 896 l 1,118,-1
 512 832 l 1,119,-1
 576 832 l 1,116,-1
704 832 m 1,120,-1
 704 896 l 1,121,-1
 640 896 l 1,122,-1
 640 832 l 1,123,-1
 704 832 l 1,120,-1
832 832 m 1,124,-1
 832 896 l 1,125,-1
 768 896 l 1,126,-1
 768 832 l 1,127,-1
 832 832 l 1,124,-1
64 -64 m 1,128,-1
 64 0 l 1,129,-1
 0 0 l 1,130,-1
 0 -64 l 1,131,-1
 64 -64 l 1,128,-1
64 256 m 1,132,-1
 0 256 l 1,133,-1
 0 192 l 1,134,-1
 64 192 l 1,135,-1
 64 256 l 1,132,-1
64 256 m 1,136,-1
 128 256 l 1,137,-1
 128 448 l 1,138,-1
 192 448 l 1,139,-1
 192 384 l 1,140,-1
 256 384 l 1,141,142
 256 384 256 384 256 256 c 1,143,-1
 320 256 l 1,144,-1
 320 576 l 1,145,-1
 256 576 l 1,146,147
 256 576 256 576 256 448 c 1,148,-1
 192 448 l 1,149,-1
 192 512 l 1,150,-1
 128 512 l 1,151,-1
 128 576 l 1,152,-1
 64 576 l 1,153,-1
 64 512 l 1,154,-1
 0 512 l 1,155,-1
 0 448 l 1,156,-1
 64 448 l 1,157,-1
 64 384 l 1,158,-1
 0 384 l 1,159,-1
 0 320 l 1,160,-1
 64 320 l 1,161,-1
 64 256 l 1,136,-1
64 576 m 1,162,-1
 64 640 l 1,163,-1
 0 640 l 1,164,-1
 0 576 l 1,165,-1
 64 576 l 1,162,-1
960 832 m 1,166,-1
 960 896 l 1,167,-1
 896 896 l 1,168,-1
 896 832 l 1,169,-1
 960 832 l 1,166,-1
EndSplineSet
EndChar

